<svg width="160" height="110" viewBox="0 0 160 110" fill="none" xmlns="http://www.w3.org/2000/svg">
<mask id="mask0_348_396" style="mask-type:alpha" maskUnits="userSpaceOnUse" x="0" y="0" width="160" height="110">
<rect width="160" height="110" fill="#D9D9D9"/>
</mask>
<g mask="url(#mask0_348_396)">
<path d="M75.2009 3.76511L75.1982 3.76569C59.9427 7.029 51.9582 23.5819 58.9239 37.4933L58.9242 37.4939C62.2065 44.0784 68.5929 48.8619 75.7535 50.102L75.7539 50.1021C77.9281 50.4811 82.0719 50.4811 84.2461 50.1021L84.2464 50.102C98.8892 47.5615 107.443 31.9127 101.836 17.894L101.836 17.8937C98.9157 10.5735 92.0293 5.02723 84.246 3.66665L84.2454 3.66655C83.067 3.45858 81.3442 3.36219 79.6355 3.37986C77.9248 3.39755 76.2623 3.52924 75.2009 3.76511ZM101.007 25.7668L101.007 25.7674C101.565 35.4632 95.28 44.2162 85.6888 47.1658L85.6858 47.1667C84.8273 47.4222 84.2835 47.5672 83.5054 47.6442C82.7406 47.7199 81.7516 47.7297 80 47.7297C78.2485 47.7297 77.2593 47.7199 76.4995 47.6442C75.7256 47.5671 75.1914 47.4218 74.3526 47.166L74.3511 47.1656C69.6959 45.7237 66.0165 43.2051 63.2674 39.5467C58.353 33.0421 57.5883 24.6729 61.2638 17.3835C63.2902 13.3513 66.8009 9.92527 71.0113 7.88199L71.0118 7.88174C75.3337 5.79317 81.0289 5.29717 85.5821 6.62174C94.3952 9.18111 100.47 16.7196 101.007 25.7668Z" fill="#07BCFF" stroke="#3E2BC5" stroke-width="0.7"/>
<path d="M85.1693 43.6355L85.1699 43.6353C88.0923 42.6545 90.2789 41.3597 92.2064 39.472C97.7425 34.0354 99.0594 25.852 95.531 18.8149C93.4232 14.6193 89.5823 11.4512 84.8558 10.0352L84.8551 10.035C83.8256 9.72423 82.849 9.60287 80.5012 9.54209C79.6729 9.53202 78.8154 9.5371 78.1056 9.55723C77.3818 9.57777 76.8472 9.61339 76.6394 9.65649C70.2405 11.0121 65.2834 15.4531 63.291 21.6085C60.7033 29.7312 64.4872 38.7142 72.1334 42.5574C72.6824 42.8318 73.8841 43.3133 74.8311 43.6357C75.6368 43.9076 76.0897 44.0396 76.7486 44.1091C77.4242 44.1804 78.3165 44.1859 80 44.1859C81.6834 44.1859 82.5758 44.1804 83.2514 44.1091C83.9103 44.0396 84.3633 43.9075 85.1693 43.6355ZM79.7968 41.6562L79.7943 41.6562C78.4021 41.6461 77.6185 41.6365 76.9886 41.5488C76.3435 41.4589 75.8639 41.288 75.0805 40.9829C69.188 38.7415 65.4608 33.7498 65.0866 27.6166L65.0865 27.6154C64.7116 21.1177 68.7719 15.1098 75.0045 12.8245L75.0048 12.8243C78.0271 11.7196 81.5821 11.7 84.6813 12.7399C89.4239 14.3209 92.8347 17.8822 94.3698 22.8184C94.7293 23.9502 94.9039 25.4253 94.9039 26.8843C94.9039 28.3432 94.7293 29.8181 94.3699 30.9499C92.8552 35.8456 89.3425 39.5092 84.6394 41.0495C83.8126 41.3251 83.2777 41.4816 82.6021 41.5647C81.9368 41.6466 81.1422 41.6562 79.7968 41.6562Z" fill="#07BCFF" stroke="#3E2BC5" stroke-width="0.7"/>
<path d="M77.4238 30.3075L76.7134 29.5159C76.7133 29.5158 76.7133 29.5157 76.7132 29.5156C75.5075 28.1783 74.4365 27.0519 73.6135 26.249C73.2015 25.8471 72.8557 25.5302 72.5886 25.3095C72.4547 25.1989 72.3455 25.1165 72.2607 25.0605C72.1906 25.0142 72.154 24.9974 72.1439 24.9927C72.1424 24.992 72.1415 24.9916 72.1411 24.9914L72.1297 24.9883C71.2787 24.7604 70.4252 25.6065 70.6701 26.5532L70.6707 26.556C70.6696 26.5516 70.6697 26.5516 70.6722 26.5569C70.6773 26.5674 70.6924 26.5986 70.7287 26.6564C70.7764 26.7324 70.8453 26.8309 70.9354 26.9507C71.115 27.1898 71.3661 27.4972 71.6687 27.8512C72.2732 28.5583 73.0714 29.4374 73.8864 30.3006C74.7015 31.1638 75.53 32.0073 76.1947 32.6437C76.5276 32.9623 76.8158 33.2256 77.0389 33.4126C77.1508 33.5064 77.2418 33.5771 77.311 33.6251C77.3694 33.6655 77.3942 33.6767 77.3939 33.6775C77.3939 33.6775 77.3937 33.6775 77.3932 33.6774L77.3945 33.6778C77.4898 33.705 77.6328 33.7195 77.7889 33.7129C77.9346 33.7067 78.0635 33.6834 78.1495 33.6538C78.1523 33.6518 78.1558 33.6493 78.16 33.6463C78.1828 33.6295 78.2156 33.6034 78.2595 33.566C78.3469 33.4917 78.4649 33.3844 78.6115 33.2458C78.904 32.9693 79.2987 32.5791 79.7686 32.1029C80.7076 31.1512 81.9391 29.8639 83.2375 28.4743C83.5983 28.0853 83.9382 27.719 84.2584 27.3739C86.827 24.6055 88.1299 23.2014 88.7921 22.4184C89.1695 21.9721 89.3098 21.76 89.3655 21.632C89.4017 21.5489 89.4014 21.5154 89.4004 21.3855C89.4002 21.3605 89.3999 21.3319 89.3999 21.2987C89.3999 20.8718 89.1564 20.4925 88.78 20.2575C88.4166 20.0306 87.9598 19.9588 87.5492 20.1034C87.5311 20.1199 87.5066 20.143 87.4751 20.1733C87.4004 20.2454 87.2954 20.3502 87.1624 20.485C86.897 20.7542 86.5264 21.1374 86.0774 21.6067C85.1799 22.5448 83.9725 23.8232 82.6733 25.2137C82.6732 25.2139 82.673 25.214 82.6729 25.2142L77.9408 30.3118L77.6799 30.5928L77.4238 30.3075Z" fill="#07BCFF" stroke="#3E2BC5" stroke-width="0.7"/>
<path d="M44.1679 13.5308C44.0129 13.5742 43.8678 13.6713 43.6946 13.8576C43.5399 14.0269 43.427 14.3189 43.403 14.644C43.3789 14.9706 43.4497 15.2547 43.5724 15.4177C43.5724 15.4176 43.5728 15.418 43.5736 15.4188C43.579 15.4242 43.6026 15.4481 43.6593 15.4938C43.721 15.5435 43.8049 15.6059 43.9104 15.6802C44.121 15.8283 44.4047 16.0146 44.7404 16.2265C45.411 16.6499 46.277 17.1679 47.1543 17.6742C48.0315 18.1806 48.9167 18.6733 49.6253 19.0464C49.9799 19.2331 50.2874 19.3883 50.5262 19.4998C50.6458 19.5557 50.745 19.5991 50.8225 19.6297C50.8612 19.645 50.8922 19.6561 50.9161 19.6638C50.9381 19.6709 50.9488 19.6733 50.9508 19.6737C51.4386 19.7511 51.8768 19.4465 52.0991 18.9553C52.3209 18.4654 52.2716 17.9076 51.8996 17.5596C51.783 17.4635 51.3418 17.1726 50.6836 16.7608C50.0289 16.3514 49.1887 15.8401 48.3176 15.3235C46.5704 14.3018 45.5457 13.7652 44.8671 13.5767C44.5376 13.4852 44.325 13.4867 44.1679 13.5308Z" fill="#F1F1F1" stroke="#3E2BC5" stroke-width="0.7"/>
<path d="M108.084 17.5762L108.083 17.5771C107.714 17.9092 107.67 18.4578 107.903 18.9528C108.138 19.4498 108.584 19.7511 109.05 19.6735L109.108 20.0188L109.048 19.6738C109.048 19.6738 109.048 19.6738 109.049 19.6738C109.05 19.6735 109.061 19.6712 109.084 19.6638C109.107 19.6561 109.138 19.645 109.177 19.6297C109.255 19.5991 109.354 19.5557 109.473 19.4998C109.712 19.3883 110.02 19.2331 110.374 19.0464C111.083 18.6733 111.968 18.1806 112.845 17.6742C113.723 17.1679 114.589 16.6499 115.259 16.2265C115.595 16.0146 115.879 15.8283 116.089 15.6802C116.195 15.6059 116.279 15.5435 116.34 15.4938C116.397 15.4481 116.421 15.4242 116.426 15.4188C116.427 15.418 116.427 15.4176 116.427 15.4177C116.55 15.2547 116.621 14.9706 116.597 14.644C116.573 14.3198 116.46 14.0287 116.306 13.8591C116.129 13.673 115.98 13.5754 115.821 13.532C115.66 13.4879 115.444 13.4875 115.111 13.5814C114.425 13.7748 113.389 14.3215 111.622 15.3637C110.75 15.8805 109.91 16.3918 109.26 16.7988C108.935 17.0024 108.66 17.179 108.452 17.3166C108.234 17.4612 108.116 17.5472 108.084 17.5762Z" fill="#F1F1F1" stroke="#3E2BC5" stroke-width="0.7"/>
<path d="M48.7417 27.7895L48.7417 27.7895L48.7443 27.7866C48.798 27.7276 48.8701 27.5983 48.929 27.4149C48.9859 27.2376 49.0189 27.0454 49.0189 26.8845C49.0189 26.7237 48.9859 26.5315 48.929 26.3542C48.8701 26.1707 48.798 26.0415 48.7443 25.9825L48.7443 25.9825L48.7417 25.9795C48.6885 25.9197 48.6542 25.8909 48.5735 25.8623C48.4702 25.8256 48.2906 25.791 47.94 25.7661C47.2422 25.7164 45.9941 25.7111 43.6205 25.7111C41.1537 25.7111 39.9087 25.7165 39.2265 25.7734C38.8851 25.8018 38.7207 25.841 38.6259 25.8808C38.5482 25.9135 38.5039 25.9508 38.4134 26.0456C37.9883 26.5219 38.0163 27.2944 38.4547 27.7038C38.5635 27.8031 38.6217 27.8484 38.7154 27.8859C38.8213 27.9282 38.9931 27.9674 39.3331 27.9957C40.0154 28.0525 41.2452 28.058 43.6814 28.058C46.0246 28.058 47.2574 28.0526 47.9473 28.003C48.294 27.9781 48.4715 27.9435 48.5738 27.907C48.6538 27.8784 48.6883 27.8495 48.7417 27.7895Z" fill="#F1F1F1" stroke="#3E2BC5" stroke-width="0.7"/>
<path d="M111.259 25.9795L111.259 25.9796L111.256 25.9825C111.202 26.0415 111.13 26.1707 111.071 26.3542C111.014 26.5315 110.981 26.7237 110.981 26.8845C110.981 27.0454 111.014 27.2376 111.071 27.4149C111.13 27.5983 111.202 27.7276 111.256 27.7866L111.256 27.7866L111.259 27.7895C111.312 27.8493 111.346 27.8781 111.427 27.9068C111.53 27.9435 111.71 27.978 112.06 28.003C112.758 28.0526 114.006 28.058 116.38 28.058H121.245L121.546 27.6664L121.546 27.6664L121.55 27.6612C121.793 27.3576 121.893 27.0546 121.887 26.7904C121.882 26.5304 121.774 26.2787 121.546 26.0653C121.437 25.9659 121.379 25.9206 121.285 25.8832C121.179 25.8409 121.007 25.8017 120.667 25.7734C119.985 25.7165 118.755 25.7111 116.319 25.7111C113.976 25.7111 112.743 25.7164 112.053 25.766C111.706 25.791 111.529 25.8255 111.426 25.862C111.346 25.8906 111.312 25.9195 111.259 25.9795Z" fill="#F1F1F1" stroke="#3E2BC5" stroke-width="0.7"/>
<path d="M43.6032 38.3082C43.5796 38.3269 43.5684 38.337 43.5651 38.34L43.5641 38.3412C43.4408 38.4891 43.3635 38.7709 43.3879 39.1075C43.412 39.4402 43.5298 39.7389 43.6901 39.9062L43.6901 39.9061L43.6939 39.9102C43.8668 40.0963 44.0131 40.194 44.1702 40.2377C44.3295 40.2821 44.5444 40.2834 44.8751 40.1919C45.5559 40.0034 46.5808 39.4669 48.3178 38.4451L48.3178 38.4451L48.3193 38.4442C49.1891 37.9385 50.0286 37.4277 50.6828 37.016C51.3415 36.6015 51.7855 36.3039 51.9009 36.2081C52.3552 35.7926 52.3709 34.9758 51.8266 34.448L51.8264 34.4482L51.8183 34.4397C51.5882 34.2011 51.3645 34.0911 51.1402 34.0644C50.9109 34.0371 50.6372 34.0917 50.3022 34.2635C49.4076 34.736 47.7558 35.7006 46.2977 36.5856C45.5692 37.0278 44.8923 37.4481 44.386 37.7748C44.1325 37.9384 43.9244 38.0769 43.7748 38.182C43.6997 38.2348 43.6426 38.2769 43.6032 38.3082Z" fill="#F1F1F1" stroke="#3E2BC5" stroke-width="0.7"/>
<path d="M108.124 36.2124L108.124 36.2124L108.125 36.2138C108.163 36.2479 108.286 36.338 108.505 36.4847C108.716 36.625 108.993 36.8034 109.319 37.0082C109.971 37.4174 110.811 37.9285 111.682 38.4452C113.429 39.4669 114.454 40.0035 115.133 40.192C115.462 40.2835 115.675 40.282 115.832 40.2379C115.987 40.1944 116.132 40.0971 116.306 39.9102L116.306 39.9102L116.31 39.9062C116.47 39.7388 116.588 39.4397 116.615 39.1052C116.641 38.7691 116.569 38.4865 116.453 38.3376C116.452 38.3362 116.446 38.3297 116.432 38.3175C116.415 38.3019 116.391 38.2817 116.36 38.2568C116.297 38.2068 116.211 38.1443 116.105 38.0702C115.892 37.9224 115.606 37.7367 115.269 37.5257C114.595 37.1042 113.727 36.5886 112.849 36.0848C111.97 35.5809 111.084 35.0907 110.376 34.7195C110.021 34.5337 109.713 34.3793 109.474 34.2683C109.355 34.2127 109.255 34.1695 109.178 34.139C109.139 34.1237 109.108 34.1126 109.084 34.1049C109.062 34.0979 109.051 34.0954 109.049 34.095C108.821 34.0587 108.701 34.0677 108.606 34.1008C108.506 34.1356 108.388 34.2126 108.197 34.4036C107.624 34.9767 107.646 35.7794 108.124 36.2124Z" fill="#F1F1F1" stroke="#3E2BC5" stroke-width="0.7"/>
<mask id="path-11-inside-1_348_396" fill="white">
<path d="M39.7406 47.6438C39.2125 48.2532 28 77.8689 28 78.6407C28 79.047 28.1422 79.4735 28.3656 79.6767C28.9344 80.1845 40.3703 85.0798 41.0203 85.0798C41.7516 85.0798 42.4016 84.2876 43.0109 82.622L43.4984 81.2814L47.9875 83.8204C50.4656 85.2017 52.5172 86.3798 52.5578 86.4204C52.5984 86.461 52.4766 86.847 52.2937 87.3142C51.6031 89.0204 52.1312 91.5595 53.4109 92.7376C54.0406 93.3064 55.5844 94.0173 56.2547 94.0173C56.7219 94.0173 56.8234 94.1392 57.0469 94.9314C57.3312 95.947 58.4281 97.3282 59.3219 97.7954C59.6469 97.9579 60.2969 98.161 60.7641 98.2423C61.5359 98.3845 61.6375 98.4657 61.9422 99.3392C62.6125 101.228 63.9328 102.386 65.7203 102.67C66.5125 102.792 66.6141 102.874 66.7969 103.564C67.0812 104.62 67.7719 105.575 68.7875 106.286C69.4984 106.794 69.9047 106.916 71.0625 106.977C72.9922 107.099 73.7641 106.774 75.3281 105.27L76.6687 103.991L78.3141 105.169C79.2078 105.819 80.3859 106.469 80.8937 106.611C82.0719 106.936 83.7578 106.774 84.8141 106.225C85.8906 105.697 87.3734 104.011 87.6781 103.036L87.9016 102.244L88.8969 102.305C91.4359 102.488 93.8125 100.883 94.6047 98.4657L94.8484 97.7142L96.4328 97.6532C97.7531 97.5923 98.1594 97.4704 98.9922 96.9626C100.17 96.2314 101.227 94.9314 101.511 93.8548L101.714 93.1032L102.994 93.0829C106.081 93.0017 108.234 90.8079 108.234 87.7001V86.3595L112.419 84.3079C114.714 83.1704 116.664 82.236 116.745 82.236C116.827 82.236 117.05 82.7032 117.253 83.2517C117.639 84.3485 118.391 85.0798 119.081 85.0798C119.63 85.0798 131.127 80.1235 131.614 79.6767C131.858 79.4735 132 79.047 132 78.6407C132 77.686 120.706 48.1313 120.178 47.6438C119.955 47.461 119.487 47.2985 119.142 47.2985C118.309 47.2985 106.427 51.5438 105.959 52.011C105.452 52.5188 105.492 53.4939 106.081 54.9767C106.366 55.6673 106.508 56.2767 106.447 56.3173C106.366 56.3579 104.558 57.2314 102.405 58.2267L98.5047 60.0751L91.5375 58.7548C87.4953 58.0032 84.0219 57.4548 83.25 57.4548C80.8937 57.4548 78.9641 58.2064 76.5672 60.0345L75.2469 61.0298L73.8453 60.0751C71.8547 58.6939 70.2094 58.186 67.9141 58.2064C66.3703 58.2267 65.6391 58.3485 63.1 59.1204L60.1141 60.0345L56.9047 58.1251C55.1375 57.0689 53.6547 56.1751 53.6344 56.1345C53.5937 56.0939 53.7766 55.4032 54.0609 54.611C54.6094 53.0064 54.5281 52.1532 53.7766 51.7673C52.6797 51.1579 41.4062 47.2985 40.7766 47.2985C40.3297 47.2985 39.9234 47.4407 39.7406 47.6438ZM43.3969 51.4829C43.7422 51.6251 44.0469 51.8282 44.0469 51.9095C44.0469 51.9907 42.9703 55.0782 41.6703 58.7751C40.3703 62.4517 39.3141 65.7829 39.2937 66.1688C39.2937 66.636 39.4359 66.961 39.7609 67.2251C40.35 67.7126 41.4875 67.7329 41.975 67.2454C42.1578 67.0626 43.4172 63.772 44.7578 59.9329C46.525 54.9157 47.2766 52.986 47.5 53.0063C47.6625 53.0063 48.4547 53.2501 49.2672 53.5548L50.7094 54.1032L45.4281 67.5095C42.5234 74.8829 40.0859 80.9767 40.0047 81.0579C39.9031 81.1798 31.9812 77.9501 31.6969 77.686C31.6766 77.6454 33.7687 72.1001 36.3484 65.3564C38.9281 58.6126 41.2234 52.6001 41.4469 52.011C41.8734 50.8532 41.8531 50.8532 43.3969 51.4829ZM118.289 51.3001C119.914 55.4642 128.344 77.6454 128.303 77.6657C127.998 77.9095 120.117 81.2001 120.036 81.0985C119.975 81.0376 117.517 74.9439 114.592 67.5501L109.291 54.1032L110.53 53.636C113.008 52.7017 112.459 51.9907 115.242 59.9329C116.583 63.7517 117.842 67.0626 118.025 67.2454C118.431 67.6517 119.427 67.7329 120.016 67.4079C120.219 67.3063 120.483 66.9407 120.605 66.5954C120.828 65.9048 120.747 65.6001 117.497 56.4392C116.644 54.0423 115.953 51.9907 115.953 51.8485C115.953 51.7267 116.38 51.4829 116.928 51.3204C118.167 50.8939 118.127 50.8938 118.289 51.3001ZM55.8078 61.3142C58.2453 62.7767 59.3828 63.3454 59.85 63.3454C60.2156 63.3454 61.9016 62.9189 63.6078 62.411C67.6094 61.1923 68.8281 61.1517 70.7984 62.147C71.55 62.5329 72.1797 62.9189 72.2203 63.0407C72.2406 63.1423 70.5344 64.5235 68.4016 66.0876C63.9937 69.3376 63.425 69.8454 62.9172 70.9626C62.3687 72.161 62.4094 74.1517 62.9984 75.3298C64.2375 77.7267 67.7719 78.9657 70.7781 78.072C71.3266 77.9095 73.3172 76.8126 75.1859 75.6345C77.0547 74.4564 78.6187 73.5017 78.6594 73.5017C78.7 73.5017 79.025 73.9485 79.3906 74.5173C81.95 78.4985 86.8047 80.0626 92.0453 78.6001L93.4266 78.2142L98.6469 81.972C101.511 84.0235 104.111 85.9735 104.436 86.3189C105.492 87.4564 105.005 89.2439 103.481 89.7517C102.527 90.0564 101.816 89.711 99.9062 88.0454C97.6313 86.0345 96.6766 85.4454 95.9453 85.5673C95.1734 85.7298 94.625 86.3798 94.625 87.1517C94.625 87.7814 94.95 88.147 97.2047 90.1579C98.7281 91.4985 98.8703 92.697 97.6312 93.8548C96.6156 94.8095 95.8437 94.6673 93.6906 93.1439C91.3547 91.4579 91.0703 91.3157 90.3391 91.4782C89.6078 91.6407 89.1406 92.2907 89.1406 93.1235C89.1406 93.672 89.3437 93.9564 90.2578 94.7282C91.5578 95.8454 91.8625 96.7189 91.2937 97.7751C90.4812 99.2782 89.0391 99.4814 87.5766 98.2829C87.0484 97.836 86.1547 97.1048 85.6266 96.6579C84.5094 95.7439 83.7781 95.622 83.0266 96.2314C82.6609 96.5157 82.5391 96.8204 82.5391 97.4704C82.5391 98.222 82.6609 98.4251 83.3922 99.0751C84.3672 99.9282 84.6719 100.456 84.6719 101.309C84.6719 102.142 83.6359 103.3 82.7422 103.483C81.9906 103.625 81.5641 103.442 80.0812 102.325L79.025 101.553L79.3094 100.781C79.6953 99.6845 79.6547 97.9173 79.2078 96.9626C78.5578 95.5204 77.1359 94.4439 75.5312 94.1392C74.9016 94.0376 74.7797 93.8954 74.4547 93.0017C74.2516 92.4532 73.8453 91.722 73.5609 91.3564C72.9516 90.6251 71.2453 89.7517 70.4328 89.7517C69.9656 89.7517 69.8641 89.6298 69.6406 88.8376C69.1531 87.111 67.2437 85.5064 65.6391 85.486C65.0906 85.486 64.9891 85.4048 64.8672 84.836C64.3391 82.4392 62.0437 80.8142 59.5453 81.0782C58.2656 81.2204 57.0875 81.8501 55.9297 83.0282C55.5031 83.4954 55.0562 83.861 54.9547 83.861C54.6297 83.861 44.8594 78.2751 44.8594 78.0923C44.8594 77.9907 46.4641 73.847 48.4344 68.8704C50.3844 63.9142 52.05 59.7298 52.1109 59.5673C52.1719 59.4048 52.2531 59.2829 52.3141 59.2829C52.3547 59.2829 53.9391 60.197 55.8078 61.3142ZM111.769 69.3579C113.841 74.6189 115.547 78.9657 115.547 79.0267C115.547 79.0673 113.495 80.1032 110.997 81.322L106.447 83.5157L100.577 79.2907C97.3672 76.9751 94.5234 74.9845 94.2797 74.8626C93.9547 74.7204 93.3656 74.8017 91.9031 75.2079C89.4656 75.8985 88.1047 76.0407 86.6828 75.7564C84.1844 75.2282 82.275 73.5626 81.3 71.0438C80.7922 69.7642 80.4672 69.4392 79.5938 69.4392C79.0047 69.4392 78.0094 69.9673 74.4344 72.2017C69.5391 75.2689 68.9906 75.472 67.3047 74.822C65.6391 74.1923 65.2734 72.8517 66.4516 71.7345C67.4672 70.7798 79.7562 61.7407 80.6906 61.2735C82.275 60.461 83.4937 60.5423 91.2125 62.0048C95.0922 62.736 98.5047 63.3454 98.8297 63.3454C99.1344 63.3251 101.267 62.4314 103.562 61.3345C106.244 60.0548 107.767 59.4251 107.848 59.5673C107.93 59.6892 109.697 64.097 111.769 69.3579ZM60.7844 84.4907C61.4953 84.8157 61.8406 85.7298 61.5156 86.5017C61.1906 87.3142 57.575 90.7673 57.0672 90.7673C55.95 90.7673 55.0359 89.6907 55.2797 88.6751C55.4625 88.0048 59.3219 84.2673 59.85 84.2673C60.0937 84.2673 60.5 84.3689 60.7844 84.4907ZM66.0859 89.2439C67 90.1376 66.7969 90.6251 64.5219 92.9204C63.3437 94.0985 62.2062 95.0735 61.9016 95.1345C61.15 95.3173 60.0938 94.4032 60.0938 93.5704C60.0938 93.0423 60.4594 92.5751 62.1656 90.8485C63.9734 89.0001 64.3187 88.736 64.9078 88.736C65.375 88.736 65.7609 88.8985 66.0859 89.2439ZM71.0016 93.4485C71.3062 93.7329 71.4688 94.1189 71.4688 94.586C71.4688 95.1954 71.225 95.5407 69.6203 97.186C67.4672 99.3595 66.9187 99.6845 66.025 99.2173C65.7 99.0548 65.3141 98.6485 65.1922 98.3032C64.8266 97.4704 65.1719 96.922 67.3656 94.7689C68.9094 93.2657 69.275 93.0017 69.8641 93.0017C70.2703 93.0017 70.7172 93.1642 71.0016 93.4485ZM75.9172 97.9985C76.6891 98.9735 76.5062 99.4001 74.3734 101.574C72.3625 103.605 71.875 103.909 70.9609 103.686C70.4531 103.564 69.8438 102.65 69.8438 102.02C69.8438 101.838 70.7781 100.741 71.9156 99.5829C73.8047 97.6532 74.0484 97.4704 74.7391 97.4704C75.3281 97.4704 75.5922 97.5923 75.9172 97.9985Z"/>
</mask>
<path d="M39.7406 47.6438C39.2125 48.2532 28 77.8689 28 78.6407C28 79.047 28.1422 79.4735 28.3656 79.6767C28.9344 80.1845 40.3703 85.0798 41.0203 85.0798C41.7516 85.0798 42.4016 84.2876 43.0109 82.622L43.4984 81.2814L47.9875 83.8204C50.4656 85.2017 52.5172 86.3798 52.5578 86.4204C52.5984 86.461 52.4766 86.847 52.2937 87.3142C51.6031 89.0204 52.1312 91.5595 53.4109 92.7376C54.0406 93.3064 55.5844 94.0173 56.2547 94.0173C56.7219 94.0173 56.8234 94.1392 57.0469 94.9314C57.3312 95.947 58.4281 97.3282 59.3219 97.7954C59.6469 97.9579 60.2969 98.161 60.7641 98.2423C61.5359 98.3845 61.6375 98.4657 61.9422 99.3392C62.6125 101.228 63.9328 102.386 65.7203 102.67C66.5125 102.792 66.6141 102.874 66.7969 103.564C67.0812 104.62 67.7719 105.575 68.7875 106.286C69.4984 106.794 69.9047 106.916 71.0625 106.977C72.9922 107.099 73.7641 106.774 75.3281 105.27L76.6687 103.991L78.3141 105.169C79.2078 105.819 80.3859 106.469 80.8937 106.611C82.0719 106.936 83.7578 106.774 84.8141 106.225C85.8906 105.697 87.3734 104.011 87.6781 103.036L87.9016 102.244L88.8969 102.305C91.4359 102.488 93.8125 100.883 94.6047 98.4657L94.8484 97.7142L96.4328 97.6532C97.7531 97.5923 98.1594 97.4704 98.9922 96.9626C100.17 96.2314 101.227 94.9314 101.511 93.8548L101.714 93.1032L102.994 93.0829C106.081 93.0017 108.234 90.8079 108.234 87.7001V86.3595L112.419 84.3079C114.714 83.1704 116.664 82.236 116.745 82.236C116.827 82.236 117.05 82.7032 117.253 83.2517C117.639 84.3485 118.391 85.0798 119.081 85.0798C119.63 85.0798 131.127 80.1235 131.614 79.6767C131.858 79.4735 132 79.047 132 78.6407C132 77.686 120.706 48.1313 120.178 47.6438C119.955 47.461 119.487 47.2985 119.142 47.2985C118.309 47.2985 106.427 51.5438 105.959 52.011C105.452 52.5188 105.492 53.4939 106.081 54.9767C106.366 55.6673 106.508 56.2767 106.447 56.3173C106.366 56.3579 104.558 57.2314 102.405 58.2267L98.5047 60.0751L91.5375 58.7548C87.4953 58.0032 84.0219 57.4548 83.25 57.4548C80.8937 57.4548 78.9641 58.2064 76.5672 60.0345L75.2469 61.0298L73.8453 60.0751C71.8547 58.6939 70.2094 58.186 67.9141 58.2064C66.3703 58.2267 65.6391 58.3485 63.1 59.1204L60.1141 60.0345L56.9047 58.1251C55.1375 57.0689 53.6547 56.1751 53.6344 56.1345C53.5937 56.0939 53.7766 55.4032 54.0609 54.611C54.6094 53.0064 54.5281 52.1532 53.7766 51.7673C52.6797 51.1579 41.4062 47.2985 40.7766 47.2985C40.3297 47.2985 39.9234 47.4407 39.7406 47.6438ZM43.3969 51.4829C43.7422 51.6251 44.0469 51.8282 44.0469 51.9095C44.0469 51.9907 42.9703 55.0782 41.6703 58.7751C40.3703 62.4517 39.3141 65.7829 39.2937 66.1688C39.2937 66.636 39.4359 66.961 39.7609 67.2251C40.35 67.7126 41.4875 67.7329 41.975 67.2454C42.1578 67.0626 43.4172 63.772 44.7578 59.9329C46.525 54.9157 47.2766 52.986 47.5 53.0063C47.6625 53.0063 48.4547 53.2501 49.2672 53.5548L50.7094 54.1032L45.4281 67.5095C42.5234 74.8829 40.0859 80.9767 40.0047 81.0579C39.9031 81.1798 31.9812 77.9501 31.6969 77.686C31.6766 77.6454 33.7687 72.1001 36.3484 65.3564C38.9281 58.6126 41.2234 52.6001 41.4469 52.011C41.8734 50.8532 41.8531 50.8532 43.3969 51.4829ZM118.289 51.3001C119.914 55.4642 128.344 77.6454 128.303 77.6657C127.998 77.9095 120.117 81.2001 120.036 81.0985C119.975 81.0376 117.517 74.9439 114.592 67.5501L109.291 54.1032L110.53 53.636C113.008 52.7017 112.459 51.9907 115.242 59.9329C116.583 63.7517 117.842 67.0626 118.025 67.2454C118.431 67.6517 119.427 67.7329 120.016 67.4079C120.219 67.3063 120.483 66.9407 120.605 66.5954C120.828 65.9048 120.747 65.6001 117.497 56.4392C116.644 54.0423 115.953 51.9907 115.953 51.8485C115.953 51.7267 116.38 51.4829 116.928 51.3204C118.167 50.8939 118.127 50.8938 118.289 51.3001ZM55.8078 61.3142C58.2453 62.7767 59.3828 63.3454 59.85 63.3454C60.2156 63.3454 61.9016 62.9189 63.6078 62.411C67.6094 61.1923 68.8281 61.1517 70.7984 62.147C71.55 62.5329 72.1797 62.9189 72.2203 63.0407C72.2406 63.1423 70.5344 64.5235 68.4016 66.0876C63.9937 69.3376 63.425 69.8454 62.9172 70.9626C62.3687 72.161 62.4094 74.1517 62.9984 75.3298C64.2375 77.7267 67.7719 78.9657 70.7781 78.072C71.3266 77.9095 73.3172 76.8126 75.1859 75.6345C77.0547 74.4564 78.6187 73.5017 78.6594 73.5017C78.7 73.5017 79.025 73.9485 79.3906 74.5173C81.95 78.4985 86.8047 80.0626 92.0453 78.6001L93.4266 78.2142L98.6469 81.972C101.511 84.0235 104.111 85.9735 104.436 86.3189C105.492 87.4564 105.005 89.2439 103.481 89.7517C102.527 90.0564 101.816 89.711 99.9062 88.0454C97.6313 86.0345 96.6766 85.4454 95.9453 85.5673C95.1734 85.7298 94.625 86.3798 94.625 87.1517C94.625 87.7814 94.95 88.147 97.2047 90.1579C98.7281 91.4985 98.8703 92.697 97.6312 93.8548C96.6156 94.8095 95.8437 94.6673 93.6906 93.1439C91.3547 91.4579 91.0703 91.3157 90.3391 91.4782C89.6078 91.6407 89.1406 92.2907 89.1406 93.1235C89.1406 93.672 89.3437 93.9564 90.2578 94.7282C91.5578 95.8454 91.8625 96.7189 91.2937 97.7751C90.4812 99.2782 89.0391 99.4814 87.5766 98.2829C87.0484 97.836 86.1547 97.1048 85.6266 96.6579C84.5094 95.7439 83.7781 95.622 83.0266 96.2314C82.6609 96.5157 82.5391 96.8204 82.5391 97.4704C82.5391 98.222 82.6609 98.4251 83.3922 99.0751C84.3672 99.9282 84.6719 100.456 84.6719 101.309C84.6719 102.142 83.6359 103.3 82.7422 103.483C81.9906 103.625 81.5641 103.442 80.0812 102.325L79.025 101.553L79.3094 100.781C79.6953 99.6845 79.6547 97.9173 79.2078 96.9626C78.5578 95.5204 77.1359 94.4439 75.5312 94.1392C74.9016 94.0376 74.7797 93.8954 74.4547 93.0017C74.2516 92.4532 73.8453 91.722 73.5609 91.3564C72.9516 90.6251 71.2453 89.7517 70.4328 89.7517C69.9656 89.7517 69.8641 89.6298 69.6406 88.8376C69.1531 87.111 67.2437 85.5064 65.6391 85.486C65.0906 85.486 64.9891 85.4048 64.8672 84.836C64.3391 82.4392 62.0437 80.8142 59.5453 81.0782C58.2656 81.2204 57.0875 81.8501 55.9297 83.0282C55.5031 83.4954 55.0562 83.861 54.9547 83.861C54.6297 83.861 44.8594 78.2751 44.8594 78.0923C44.8594 77.9907 46.4641 73.847 48.4344 68.8704C50.3844 63.9142 52.05 59.7298 52.1109 59.5673C52.1719 59.4048 52.2531 59.2829 52.3141 59.2829C52.3547 59.2829 53.9391 60.197 55.8078 61.3142ZM111.769 69.3579C113.841 74.6189 115.547 78.9657 115.547 79.0267C115.547 79.0673 113.495 80.1032 110.997 81.322L106.447 83.5157L100.577 79.2907C97.3672 76.9751 94.5234 74.9845 94.2797 74.8626C93.9547 74.7204 93.3656 74.8017 91.9031 75.2079C89.4656 75.8985 88.1047 76.0407 86.6828 75.7564C84.1844 75.2282 82.275 73.5626 81.3 71.0438C80.7922 69.7642 80.4672 69.4392 79.5938 69.4392C79.0047 69.4392 78.0094 69.9673 74.4344 72.2017C69.5391 75.2689 68.9906 75.472 67.3047 74.822C65.6391 74.1923 65.2734 72.8517 66.4516 71.7345C67.4672 70.7798 79.7562 61.7407 80.6906 61.2735C82.275 60.461 83.4937 60.5423 91.2125 62.0048C95.0922 62.736 98.5047 63.3454 98.8297 63.3454C99.1344 63.3251 101.267 62.4314 103.562 61.3345C106.244 60.0548 107.767 59.4251 107.848 59.5673C107.93 59.6892 109.697 64.097 111.769 69.3579ZM60.7844 84.4907C61.4953 84.8157 61.8406 85.7298 61.5156 86.5017C61.1906 87.3142 57.575 90.7673 57.0672 90.7673C55.95 90.7673 55.0359 89.6907 55.2797 88.6751C55.4625 88.0048 59.3219 84.2673 59.85 84.2673C60.0937 84.2673 60.5 84.3689 60.7844 84.4907ZM66.0859 89.2439C67 90.1376 66.7969 90.6251 64.5219 92.9204C63.3437 94.0985 62.2062 95.0735 61.9016 95.1345C61.15 95.3173 60.0938 94.4032 60.0938 93.5704C60.0938 93.0423 60.4594 92.5751 62.1656 90.8485C63.9734 89.0001 64.3187 88.736 64.9078 88.736C65.375 88.736 65.7609 88.8985 66.0859 89.2439ZM71.0016 93.4485C71.3062 93.7329 71.4688 94.1189 71.4688 94.586C71.4688 95.1954 71.225 95.5407 69.6203 97.186C67.4672 99.3595 66.9187 99.6845 66.025 99.2173C65.7 99.0548 65.3141 98.6485 65.1922 98.3032C64.8266 97.4704 65.1719 96.922 67.3656 94.7689C68.9094 93.2657 69.275 93.0017 69.8641 93.0017C70.2703 93.0017 70.7172 93.1642 71.0016 93.4485ZM75.9172 97.9985C76.6891 98.9735 76.5062 99.4001 74.3734 101.574C72.3625 103.605 71.875 103.909 70.9609 103.686C70.4531 103.564 69.8438 102.65 69.8438 102.02C69.8438 101.838 70.7781 100.741 71.9156 99.5829C73.8047 97.6532 74.0484 97.4704 74.7391 97.4704C75.3281 97.4704 75.5922 97.5923 75.9172 97.9985Z" fill="#F1F1F1" stroke="#3E2BC5" stroke-width="1.4" mask="url(#path-11-inside-1_348_396)"/>
</g>
</svg>
