<svg width="160" height="110" viewBox="0 0 160 110" fill="none" xmlns="http://www.w3.org/2000/svg">
<mask id="mask0_345_243" style="mask-type:alpha" maskUnits="userSpaceOnUse" x="0" y="0" width="160" height="110">
<rect width="160" height="110" fill="#D9D9D9"/>
</mask>
<g mask="url(#mask0_345_243)">
<path d="M90.0383 2.89937C89.868 3.06031 89.7952 3.17236 89.7564 3.30551C89.7128 3.45523 89.7017 3.66755 89.7338 4.05253L89.7341 4.05667C89.7502 4.28221 89.7623 4.46949 89.7612 4.61492C89.7601 4.74385 89.7509 4.91544 89.6674 5.05709C89.618 5.14083 89.546 5.20964 89.4531 5.25327C89.3668 5.29375 89.2816 5.30356 89.2152 5.30447C89.0947 5.30612 88.9549 5.277 88.8361 5.25224L88.8354 5.2521C85.6509 4.60679 78.675 4.32397 74.8926 4.69122C72.2783 4.96245 69.9913 5.33063 68.2764 5.73714C67.4181 5.9406 66.7111 6.15181 66.1811 6.36204C65.6334 6.5793 65.3341 6.7734 65.2218 6.91286C64.7925 7.45945 64.8102 8.0711 65.092 8.52152C65.3753 8.97444 65.9444 9.2911 66.6818 9.18049L66.6817 9.18024L66.695 9.17876C67.0651 9.13765 68.5445 8.83818 69.9929 8.53095C75.0858 7.43342 81.4657 7.21392 86.4957 7.96067C86.4958 7.96069 86.4959 7.96071 86.4961 7.96073L88.2813 8.22198L88.8682 8.30787L88.5093 8.78007L88.0955 9.32458L88.0955 9.3246L88.092 9.32903C87.6994 9.82869 87.6608 10.4648 87.878 10.9807C88.0946 11.4952 88.5478 11.8556 89.1236 11.8556C89.1587 11.8556 89.2772 11.8345 89.501 11.7653C89.7092 11.7009 89.9725 11.6067 90.2746 11.4896C90.878 11.2557 91.6199 10.9367 92.3534 10.5998C93.0869 10.2628 93.8069 9.9101 94.3669 9.6093C94.6474 9.45865 94.8835 9.32331 95.0595 9.2111C95.1477 9.1549 95.2168 9.107 95.2674 9.06797C95.3118 9.03364 95.3304 9.01477 95.3347 9.01043C95.3358 9.00934 95.336 9.00917 95.3354 9.00992L95.6141 9.2217C96.2457 8.37228 95.9408 7.43573 94.3073 5.14883L90.0383 2.89937Z" fill="#F1F1F1" stroke="#3E2BC5" stroke-width="0.7"/>
<path d="M42.697 4.85931L42.6958 4.85957C36.3288 6.20561 31.1574 10.8851 29.17 17.1037L29.1697 17.1046C25.9444 27.1009 32.0105 37.8092 42.2923 40.3102L42.2935 40.3105C43.1794 40.5293 44.6934 40.6598 46.2329 40.6814C47.773 40.7031 49.2858 40.6152 50.1701 40.4176L50.1722 40.4171C54.2137 39.5404 57.9754 37.2515 60.4713 34.1369L60.4725 34.1354C63.4017 30.5221 64.8111 26.1649 64.5333 21.5265L64.5332 21.5263C64.0418 13.2356 58.1902 6.52719 50.0015 4.83815L49.9994 4.83769C48.0017 4.41265 44.6757 4.43379 42.697 4.85931ZM49.6251 7.85624L49.6263 7.8565C50.5278 8.05935 52.0767 8.61356 53.1173 9.10065L53.1199 9.1019C53.8816 9.46618 54.4534 9.78207 55.031 10.2088C55.6056 10.6334 56.1759 11.1604 56.9418 11.9372C59.0691 14.0647 60.1452 15.8328 60.969 18.4154L60.9699 18.4183C61.3103 19.5191 61.4862 21.0372 61.5028 22.5254C61.5193 24.0121 61.3772 25.5108 61.058 26.5716C59.5213 31.7162 55.6434 35.5929 50.4585 37.1732C48.0128 37.9357 44.5635 37.89 42.0801 37.0846C37.8724 35.7265 34.7482 32.9819 32.8555 29.019C31.4556 26.13 31.0047 23.3127 31.497 20.4243C32.901 11.8049 41.2547 6.00359 49.6251 7.85624Z" fill="#07BCFF" stroke="#3E2BC5" stroke-width="0.7"/>
<path d="M45.2589 10.7026C44.8233 11.0293 44.6926 11.3342 44.6926 11.9441C44.6926 12.7064 44.6491 12.7717 43.669 13.1202C41.2949 13.9696 39.901 15.9734 39.901 18.5216C39.901 20.264 40.402 21.4184 41.5345 22.4203C42.6235 23.3786 43.7343 23.8577 46.1519 24.4022C48.3081 24.9032 49.3753 25.4477 49.7238 26.2318C50.2901 27.4515 49.4407 28.388 47.4587 28.8018C45.4549 29.2156 43.4729 28.2791 42.9502 26.6892C42.4711 25.2299 40.8158 24.7725 39.7921 25.8179C38.115 27.4732 40.794 31.5461 44.1046 32.3302C44.6055 32.4391 44.6926 32.5915 44.6926 33.2014C44.6926 34.3122 45.3243 34.9656 46.3915 34.9656C47.5023 34.9656 48.1339 34.3993 48.3081 33.2885C48.417 32.6133 48.5695 32.4173 49.0269 32.3084C50.1159 32.047 51.5969 31.1758 52.3592 30.3264C53.3829 29.1939 53.7096 28.1484 53.5571 26.4496C53.3175 23.4221 51.4009 21.7233 47.1538 20.8085C44.1481 20.1334 43.2116 19.3493 43.7343 17.9118C44.4313 15.9734 48.2428 15.8427 49.2447 17.7375C49.8545 18.8919 50.4861 19.3928 51.3355 19.3928C52.381 19.3928 53.1869 18.6087 53.1869 17.5851C53.1869 16.1476 51.3355 13.9478 49.4189 13.1637C48.5477 12.8153 48.417 12.6628 48.3081 11.9441C48.0685 10.4412 46.435 9.76604 45.2589 10.7026Z" fill="#07BCFF"/>
<path d="M109.902 4.47357C109.641 4.64781 109.227 5.32299 108.965 5.95461C108.508 7.08717 108.421 7.15251 107.005 7.7188L105.524 8.28508L104.566 7.84948C102.845 7.08717 102.584 7.17429 100.21 9.52654C97.7923 11.8788 97.6834 12.1837 98.4892 13.9915L98.9031 14.9498L98.315 16.4308C97.7269 17.8465 97.6398 17.9554 96.6161 18.3475C94.852 19.0226 94.7866 19.1969 94.7866 22.6817C94.7866 26.1665 94.8302 26.2754 96.725 26.9506C97.3349 27.1684 97.8358 27.4298 97.8358 27.5387C97.8358 27.6258 98.0754 28.2792 98.3803 28.9544L98.9466 30.1958L98.4892 31.2413C97.7051 33.0708 97.814 33.3539 100.036 35.6408C101.277 36.8823 102.257 37.7099 102.649 37.7971C103.041 37.8842 103.629 37.7753 104.37 37.4486C105.35 37.0348 105.568 37.013 106.286 37.2308C108.16 37.8624 108.552 38.1891 109.009 39.387C109.641 41.0641 110.054 41.2165 113.517 41.1294C116.719 41.0641 116.893 40.977 117.525 39.2128C117.743 38.5811 118.091 38.0366 118.287 37.9713C118.483 37.906 119.137 37.6446 119.725 37.3832L120.814 36.9041L121.903 37.3832C123.667 38.1891 123.798 38.1455 126.172 35.8151C127.326 34.6607 128.35 33.4846 128.415 33.2015C128.502 32.8748 128.35 32.1996 128.045 31.4591L127.522 30.2394L128.132 28.7801C128.698 27.4298 128.807 27.3209 129.787 26.9506C131.617 26.2536 131.704 26.1012 131.769 22.9213C131.813 21.0046 131.747 19.981 131.551 19.6107C131.377 19.284 130.724 18.8048 129.918 18.4128C129.156 18.0643 128.546 17.6723 128.546 17.5416C128.546 17.4327 128.306 16.8011 128.001 16.1695C127.478 15.0587 127.478 14.9716 127.805 14.3182C128.851 12.3144 128.655 11.6828 126.085 9.19984C124.015 7.19607 123.689 7.08717 121.925 7.84948L120.923 8.30686L119.398 7.7188C117.961 7.15251 117.873 7.06539 117.547 6.12885C117.373 5.60613 117.002 4.93095 116.741 4.64781C116.305 4.16865 116.131 4.14687 113.3 4.14687C111.056 4.14687 110.229 4.23399 109.902 4.47357ZM114.585 8.85136C115.064 10.071 115.391 10.3977 116.196 10.572C116.588 10.6591 117.612 11.0511 118.505 11.465C120.291 12.2926 120.988 12.3579 122.164 11.8788C122.948 11.5521 122.97 11.5521 123.623 12.2055C124.255 12.8153 124.277 12.8807 123.994 13.5559C123.449 14.8844 123.449 15.5814 124.037 16.6051C124.342 17.106 124.8 18.2168 125.061 19.0226C125.562 20.569 125.845 20.874 127.304 21.3749C128.11 21.658 128.132 21.7016 128.067 22.6164C128.001 23.5311 127.936 23.6182 127.108 23.9449C125.845 24.4459 125.562 24.729 125.148 25.9923C124.952 26.6239 124.495 27.6911 124.168 28.3663C123.427 29.8256 123.406 30.3047 123.95 31.4808L124.342 32.352L123.711 33.0272L123.057 33.7242L121.794 33.2668L120.509 32.7876L119.071 33.5064C118.287 33.9202 117.155 34.3776 116.588 34.5518C115.391 34.9003 114.933 35.3141 114.541 36.512C114.258 37.3179 114.193 37.3615 113.234 37.4268C112.232 37.4921 112.232 37.4921 111.971 36.6209C111.623 35.423 111.143 34.9657 109.771 34.5301C109.14 34.3123 108.051 33.8549 107.375 33.5282C105.916 32.7876 105.655 32.7659 104.457 33.3104L103.542 33.7242L102.845 33.0054C102.17 32.3085 102.17 32.2867 102.497 31.4808C102.976 30.3483 102.932 29.5206 102.323 28.4752C102.039 27.9743 101.582 26.8853 101.321 26.0576C100.841 24.5983 100.798 24.5548 99.6654 24.0538C98.4892 23.5311 98.4892 23.5311 98.4892 22.5728C98.4892 21.658 98.5328 21.5927 99.2298 21.3531C100.341 20.9829 101.059 20.3512 101.212 19.5454C101.299 19.1751 101.691 18.1297 102.105 17.2367C102.954 15.4072 102.998 14.9716 102.497 13.7083L102.127 12.8153L102.78 12.1619C103.433 11.5303 103.433 11.5303 104.261 11.857C105.394 12.3362 106.33 12.2926 107.441 11.6828C107.964 11.3996 108.944 10.9858 109.597 10.7898C111.078 10.3106 111.448 10.0057 111.906 8.78602C112.276 7.8277 112.276 7.8277 113.256 7.89304C114.171 7.95838 114.236 8.00194 114.585 8.85136Z" fill="#07BCFF"/>
<path d="M111.013 13.1638C109.314 13.5777 107.942 14.3182 106.57 15.5814C101.604 20.1988 102.889 28.3881 109.053 31.3938C110.534 32.1125 110.664 32.1343 113.213 32.1343C115.783 32.1343 115.848 32.1343 117.46 31.3284C119.485 30.3265 121.119 28.6712 122.077 26.6457C122.731 25.2518 122.774 25.034 122.774 22.66C122.774 20.2424 122.752 20.1117 121.99 18.5C119.986 14.2964 115.434 12.0966 111.013 13.1638ZM115.913 17.3238C118.854 18.8049 119.986 22.2897 118.505 25.2736C117.438 27.3862 115.63 28.497 113.191 28.5188C111.47 28.5406 109.989 27.8436 108.769 26.4715C104.501 21.6145 110.12 14.3835 115.913 17.3238Z" fill="#07BCFF"/>
<mask id="path-7-inside-1_345_243" fill="white">
<path d="M77.7981 13.1418C76.9487 13.425 75.1845 15.0585 75.1845 15.603C75.1845 15.8643 75.0538 15.9079 74.4876 15.7772C72.462 15.3416 70.6761 15.8208 69.4999 17.1494C68.6287 18.1513 68.3891 18.8047 68.3891 20.2857C68.3891 21.7885 68.803 22.6379 70.2187 24.0972L71.2859 25.208L70.5018 25.7961C68.4545 27.3642 68.2367 30.2392 70.0009 32.7003C70.1969 33.0053 69.9573 33.3755 68.5416 34.9872C67.6268 36.0545 66.0369 37.9929 65.0568 39.3215C60.3523 45.5723 58.893 49.3621 59.1108 54.6111L59.2197 57.094L58.109 57.6603C57.4991 57.9652 55.1469 59.2938 52.86 60.6224C50.2464 62.1252 48.7 62.9093 48.6564 62.735C48.4822 62.2123 47.2843 61.0362 46.6526 60.7748C45.4547 60.2739 43.8866 60.6006 41.861 61.7549C38.9207 63.432 38.3762 64.0854 38.3762 66.002C38.3762 67.0693 38.6594 67.6355 43.5599 76.2822C47.3278 82.9687 48.9178 85.5823 49.4405 85.9961C49.985 86.41 50.5077 86.5842 51.4007 86.6495C52.5768 86.7149 52.7511 86.6713 55.038 85.3427C57.8694 83.7092 58.4139 83.0776 58.4139 81.3134C58.4139 80.5729 58.2614 79.8324 57.9783 79.2879C57.5427 78.4385 57.5427 78.4385 57.9783 78.1335C58.3703 77.8722 59.3069 78.0682 66.4072 79.9848C74.3133 82.1193 74.444 82.1411 76.4042 82.0539C78.0595 81.9886 78.6476 81.8579 79.7801 81.3134C81.9146 80.3115 102.41 67.6355 103.324 66.7643C105.241 64.8913 105.285 61.1451 103.411 59.2067C102.54 58.3137 101.538 57.791 100.253 57.5949C99.5129 57.486 99.3604 57.3771 99.4911 57.094C99.5782 56.898 99.6871 55.7001 99.7524 54.4368C99.9267 50.6035 99.0337 47.3801 96.7686 43.5904C95.4618 41.4341 92.5432 37.5355 90.3217 34.9872C88.906 33.3755 88.6664 33.0053 88.8624 32.7003C89.7118 31.5242 90.0603 30.5441 90.0603 29.3898C90.0385 27.9087 89.4287 26.6237 88.3615 25.7961L87.5774 25.208L88.6446 24.0972C90.0603 22.6379 90.4741 21.7885 90.4741 20.2857C90.4741 18.8047 90.2345 18.1513 89.3633 17.1494C88.1872 15.8208 86.4013 15.3416 84.3975 15.7772C83.8094 15.9079 83.6787 15.8643 83.6787 15.603C83.6787 15.407 83.2649 14.8189 82.764 14.318C81.3918 12.9676 79.6494 12.5538 77.7981 13.1418ZM80.0197 16.9316C80.1939 17.1494 80.4771 17.6503 80.6295 18.0424C81.2176 19.5452 83.0907 20.3293 84.6806 19.7194C85.9221 19.2403 86.5973 19.3492 86.6844 20.0243C86.7497 20.4382 86.3141 20.9827 84.6371 22.6815L82.4808 24.8377H79.4316H76.3824L74.2262 22.6815C72.5491 20.9827 72.1135 20.4382 72.1789 20.0243C72.266 19.3492 72.9412 19.2403 74.1826 19.7194C75.7726 20.3293 77.6457 19.5452 78.2337 18.0424C78.5822 17.1711 79.0832 16.5613 79.4316 16.5613C79.5841 16.5613 79.8455 16.7356 80.0197 16.9316ZM86.1617 29.0195C86.3359 29.3026 86.3359 29.5204 86.1617 29.7818C85.9439 30.1303 85.334 30.1738 79.5405 30.2392C72.9847 30.2827 72.5709 30.2392 72.5709 29.4333C72.5709 28.5621 72.8541 28.5403 79.5188 28.5839C85.334 28.6492 85.9439 28.6928 86.1617 29.0195ZM86.6626 36.5554C93.7629 44.6794 96.3112 49.4928 96.028 54.2408C95.9191 56.0921 95.2875 58.5968 94.9173 58.5968C94.7866 58.5968 91.672 60.361 87.9912 62.4955L81.2829 66.3941V65.2615C81.2829 64.4992 81.1087 63.7805 80.782 63.1271L80.2811 62.1252L80.782 61.5589C81.0651 61.2322 81.2829 60.7531 81.2829 60.4917C81.2829 60.0996 81.5225 59.9254 82.3937 59.5987C84.049 59.0324 85.5083 57.486 85.835 56.005C86.227 54.219 85.6607 52.3242 84.3975 51.1698C83.4609 50.2768 82.1541 49.7106 79.9326 49.2096C77.9288 48.7305 76.9269 48.1424 76.9269 47.4019C76.9269 46.8138 77.8853 45.9426 78.7347 45.7466C80.0633 45.4634 80.978 45.8337 81.8492 47.0534C82.6551 48.186 82.9382 48.3602 83.9183 48.3602C84.6371 48.3602 85.3558 47.7504 85.5518 46.9445C85.8785 45.6595 84.1361 43.329 82.3066 42.5667C81.6314 42.2836 81.2829 42.0222 81.2829 41.7608C81.2829 41.1946 80.6949 40.1491 80.3028 39.9967C79.0178 39.5175 77.5803 40.3451 77.5803 41.5866C77.5803 42.1093 77.4714 42.24 76.9487 42.3707C75.9686 42.5885 74.6182 43.6557 73.9866 44.7447C72.8323 46.7049 73.0719 49.0354 74.5529 50.6471C75.533 51.7143 76.8834 52.3677 79.1049 52.8251C81.4136 53.3043 82.1541 53.8052 82.1541 54.916C82.1541 55.4823 82.0235 55.6347 81.2394 55.9832C79.301 56.8544 77.3625 56.3317 76.6002 54.7418C76.0339 53.5874 75.5112 53.1736 74.5747 53.1518C73.6381 53.1518 72.7887 53.9795 72.7887 54.8724C72.7887 56.8109 74.4876 58.88 76.7745 59.6858C77.6239 60.0125 77.8417 60.3392 77.2101 60.3392C76.426 60.3392 71.9393 59.0106 68.6505 57.8345C66.7992 57.1593 64.7737 56.5495 64.1638 56.4842C63.0748 56.3753 63.0313 56.3317 62.9006 55.5694C62.0511 50.4511 64.5994 45.2456 72.2007 36.5554L74.4222 34.0071H79.4316H84.4411L86.6626 36.5554ZM67.6051 61.45C69.6742 62.1688 72.6363 63.0835 74.2044 63.4973C77.1665 64.2596 77.5803 64.521 77.5803 65.5882C77.5803 66.2634 76.9052 66.8732 76.1646 66.8732C75.9033 66.8732 73.8777 66.3941 71.6344 65.7842C67.3001 64.6299 66.8645 64.6081 66.1676 65.61C65.6884 66.307 65.732 67.1999 66.32 67.8316C66.6903 68.2672 67.5179 68.5721 70.0227 69.2473C76.5349 71.0115 79.1485 71.2728 81.5225 70.3798C82.1977 70.1185 85.6172 68.2454 89.1455 66.1763C96.8121 61.7114 97.5526 61.3411 99.099 61.3411C100.079 61.3193 100.34 61.4065 100.689 61.8421C101.212 62.4737 101.212 63.4102 100.733 63.9983C100.21 64.5863 78.8 77.7415 77.711 78.1118C77.2536 78.286 76.4696 78.4167 75.9686 78.4167C75.4677 78.4167 71.4166 77.4366 66.9299 76.2387C62.465 75.0408 58.5228 74.0607 58.1525 74.0607C57.7823 74.0607 57.0635 74.3002 56.5408 74.6052L55.626 75.1497L53.5134 71.3817C52.3372 69.3344 51.2047 67.3306 50.9869 66.9604L50.5948 66.307L55.3211 63.5627C57.9129 62.0816 60.4394 60.6877 60.9186 60.4917C62.465 59.8601 63.5322 60.0125 67.6051 61.45ZM49.8979 72.7103C52.4244 77.1752 54.5152 80.9214 54.5588 81.0303C54.6024 81.2699 51.7492 82.9469 51.5967 82.7727C51.5532 82.7074 49.5712 79.2225 47.1971 75.0408C44.8231 70.8372 42.7105 67.1128 42.4709 66.7208L42.0571 66.0238L43.5381 65.1526C44.344 64.6735 45.0845 64.3685 45.1716 64.4339C45.2369 64.521 47.3714 68.2454 49.8979 72.7103Z"/>
</mask>
<path d="M77.7981 13.1418C76.9487 13.425 75.1845 15.0585 75.1845 15.603C75.1845 15.8643 75.0538 15.9079 74.4876 15.7772C72.462 15.3416 70.6761 15.8208 69.4999 17.1494C68.6287 18.1513 68.3891 18.8047 68.3891 20.2857C68.3891 21.7885 68.803 22.6379 70.2187 24.0972L71.2859 25.208L70.5018 25.7961C68.4545 27.3642 68.2367 30.2392 70.0009 32.7003C70.1969 33.0053 69.9573 33.3755 68.5416 34.9872C67.6268 36.0545 66.0369 37.9929 65.0568 39.3215C60.3523 45.5723 58.893 49.3621 59.1108 54.6111L59.2197 57.094L58.109 57.6603C57.4991 57.9652 55.1469 59.2938 52.86 60.6224C50.2464 62.1252 48.7 62.9093 48.6564 62.735C48.4822 62.2123 47.2843 61.0362 46.6526 60.7748C45.4547 60.2739 43.8866 60.6006 41.861 61.7549C38.9207 63.432 38.3762 64.0854 38.3762 66.002C38.3762 67.0693 38.6594 67.6355 43.5599 76.2822C47.3278 82.9687 48.9178 85.5823 49.4405 85.9961C49.985 86.41 50.5077 86.5842 51.4007 86.6495C52.5768 86.7149 52.7511 86.6713 55.038 85.3427C57.8694 83.7092 58.4139 83.0776 58.4139 81.3134C58.4139 80.5729 58.2614 79.8324 57.9783 79.2879C57.5427 78.4385 57.5427 78.4385 57.9783 78.1335C58.3703 77.8722 59.3069 78.0682 66.4072 79.9848C74.3133 82.1193 74.444 82.1411 76.4042 82.0539C78.0595 81.9886 78.6476 81.8579 79.7801 81.3134C81.9146 80.3115 102.41 67.6355 103.324 66.7643C105.241 64.8913 105.285 61.1451 103.411 59.2067C102.54 58.3137 101.538 57.791 100.253 57.5949C99.5129 57.486 99.3604 57.3771 99.4911 57.094C99.5782 56.898 99.6871 55.7001 99.7524 54.4368C99.9267 50.6035 99.0337 47.3801 96.7686 43.5904C95.4618 41.4341 92.5432 37.5355 90.3217 34.9872C88.906 33.3755 88.6664 33.0053 88.8624 32.7003C89.7118 31.5242 90.0603 30.5441 90.0603 29.3898C90.0385 27.9087 89.4287 26.6237 88.3615 25.7961L87.5774 25.208L88.6446 24.0972C90.0603 22.6379 90.4741 21.7885 90.4741 20.2857C90.4741 18.8047 90.2345 18.1513 89.3633 17.1494C88.1872 15.8208 86.4013 15.3416 84.3975 15.7772C83.8094 15.9079 83.6787 15.8643 83.6787 15.603C83.6787 15.407 83.2649 14.8189 82.764 14.318C81.3918 12.9676 79.6494 12.5538 77.7981 13.1418ZM80.0197 16.9316C80.1939 17.1494 80.4771 17.6503 80.6295 18.0424C81.2176 19.5452 83.0907 20.3293 84.6806 19.7194C85.9221 19.2403 86.5973 19.3492 86.6844 20.0243C86.7497 20.4382 86.3141 20.9827 84.6371 22.6815L82.4808 24.8377H79.4316H76.3824L74.2262 22.6815C72.5491 20.9827 72.1135 20.4382 72.1789 20.0243C72.266 19.3492 72.9412 19.2403 74.1826 19.7194C75.7726 20.3293 77.6457 19.5452 78.2337 18.0424C78.5822 17.1711 79.0832 16.5613 79.4316 16.5613C79.5841 16.5613 79.8455 16.7356 80.0197 16.9316ZM86.1617 29.0195C86.3359 29.3026 86.3359 29.5204 86.1617 29.7818C85.9439 30.1303 85.334 30.1738 79.5405 30.2392C72.9847 30.2827 72.5709 30.2392 72.5709 29.4333C72.5709 28.5621 72.8541 28.5403 79.5188 28.5839C85.334 28.6492 85.9439 28.6928 86.1617 29.0195ZM86.6626 36.5554C93.7629 44.6794 96.3112 49.4928 96.028 54.2408C95.9191 56.0921 95.2875 58.5968 94.9173 58.5968C94.7866 58.5968 91.672 60.361 87.9912 62.4955L81.2829 66.3941V65.2615C81.2829 64.4992 81.1087 63.7805 80.782 63.1271L80.2811 62.1252L80.782 61.5589C81.0651 61.2322 81.2829 60.7531 81.2829 60.4917C81.2829 60.0996 81.5225 59.9254 82.3937 59.5987C84.049 59.0324 85.5083 57.486 85.835 56.005C86.227 54.219 85.6607 52.3242 84.3975 51.1698C83.4609 50.2768 82.1541 49.7106 79.9326 49.2096C77.9288 48.7305 76.9269 48.1424 76.9269 47.4019C76.9269 46.8138 77.8853 45.9426 78.7347 45.7466C80.0633 45.4634 80.978 45.8337 81.8492 47.0534C82.6551 48.186 82.9382 48.3602 83.9183 48.3602C84.6371 48.3602 85.3558 47.7504 85.5518 46.9445C85.8785 45.6595 84.1361 43.329 82.3066 42.5667C81.6314 42.2836 81.2829 42.0222 81.2829 41.7608C81.2829 41.1946 80.6949 40.1491 80.3028 39.9967C79.0178 39.5175 77.5803 40.3451 77.5803 41.5866C77.5803 42.1093 77.4714 42.24 76.9487 42.3707C75.9686 42.5885 74.6182 43.6557 73.9866 44.7447C72.8323 46.7049 73.0719 49.0354 74.5529 50.6471C75.533 51.7143 76.8834 52.3677 79.1049 52.8251C81.4136 53.3043 82.1541 53.8052 82.1541 54.916C82.1541 55.4823 82.0235 55.6347 81.2394 55.9832C79.301 56.8544 77.3625 56.3317 76.6002 54.7418C76.0339 53.5874 75.5112 53.1736 74.5747 53.1518C73.6381 53.1518 72.7887 53.9795 72.7887 54.8724C72.7887 56.8109 74.4876 58.88 76.7745 59.6858C77.6239 60.0125 77.8417 60.3392 77.2101 60.3392C76.426 60.3392 71.9393 59.0106 68.6505 57.8345C66.7992 57.1593 64.7737 56.5495 64.1638 56.4842C63.0748 56.3753 63.0313 56.3317 62.9006 55.5694C62.0511 50.4511 64.5994 45.2456 72.2007 36.5554L74.4222 34.0071H79.4316H84.4411L86.6626 36.5554ZM67.6051 61.45C69.6742 62.1688 72.6363 63.0835 74.2044 63.4973C77.1665 64.2596 77.5803 64.521 77.5803 65.5882C77.5803 66.2634 76.9052 66.8732 76.1646 66.8732C75.9033 66.8732 73.8777 66.3941 71.6344 65.7842C67.3001 64.6299 66.8645 64.6081 66.1676 65.61C65.6884 66.307 65.732 67.1999 66.32 67.8316C66.6903 68.2672 67.5179 68.5721 70.0227 69.2473C76.5349 71.0115 79.1485 71.2728 81.5225 70.3798C82.1977 70.1185 85.6172 68.2454 89.1455 66.1763C96.8121 61.7114 97.5526 61.3411 99.099 61.3411C100.079 61.3193 100.34 61.4065 100.689 61.8421C101.212 62.4737 101.212 63.4102 100.733 63.9983C100.21 64.5863 78.8 77.7415 77.711 78.1118C77.2536 78.286 76.4696 78.4167 75.9686 78.4167C75.4677 78.4167 71.4166 77.4366 66.9299 76.2387C62.465 75.0408 58.5228 74.0607 58.1525 74.0607C57.7823 74.0607 57.0635 74.3002 56.5408 74.6052L55.626 75.1497L53.5134 71.3817C52.3372 69.3344 51.2047 67.3306 50.9869 66.9604L50.5948 66.307L55.3211 63.5627C57.9129 62.0816 60.4394 60.6877 60.9186 60.4917C62.465 59.8601 63.5322 60.0125 67.6051 61.45ZM49.8979 72.7103C52.4244 77.1752 54.5152 80.9214 54.5588 81.0303C54.6024 81.2699 51.7492 82.9469 51.5967 82.7727C51.5532 82.7074 49.5712 79.2225 47.1971 75.0408C44.8231 70.8372 42.7105 67.1128 42.4709 66.7208L42.0571 66.0238L43.5381 65.1526C44.344 64.6735 45.0845 64.3685 45.1716 64.4339C45.2369 64.521 47.3714 68.2454 49.8979 72.7103Z" fill="#F1F1F1" stroke="#3E2BC5" stroke-width="1.4" mask="url(#path-7-inside-1_345_243)"/>
<path d="M43.5382 65.9584C43.0808 66.4593 43.059 67.287 43.5164 67.9186C43.952 68.5502 45.1281 68.572 45.6726 67.9622C46.1736 67.4177 46.1518 66.2198 45.6509 65.8495C45.0846 65.4357 43.952 65.501 43.5382 65.9584Z" fill="#F1F1F1"/>
<path d="M128.043 50.491L128.043 50.491C127.671 47.7572 126.992 44.4256 126.375 42.4617C126.021 41.3352 125.875 40.7476 125.887 40.3499C125.897 40.0135 126.019 39.8054 126.377 39.4365C126.712 39.1019 126.96 38.9674 127.193 38.936C127.43 38.904 127.722 38.9694 128.167 39.197C128.385 39.3104 128.517 39.4227 128.654 39.6671C128.807 39.9393 128.961 40.3663 129.191 41.1222L129.191 41.1225C130.596 45.7256 131.288 50.5701 131.31 55.8758L131.31 55.8779C131.332 58.0404 131.265 60.319 131.162 60.9822L131.16 60.9928L131.16 60.9928L131.008 62.2125L130.952 62.662L131.401 62.6029L132.228 62.494L132.23 62.4938C133.426 62.3307 134.273 63.3985 133.907 64.4083C133.905 64.4119 133.901 64.418 133.896 64.4271C133.886 64.4431 133.872 64.4641 133.853 64.4903C133.816 64.5428 133.764 64.6089 133.697 64.6879C133.565 64.8457 133.384 65.0436 133.167 65.2691C132.732 65.7194 132.162 66.2688 131.558 66.8082L131.557 66.8083C130.526 67.7304 129.973 68.2024 129.579 68.45C129.39 68.5687 129.25 68.6273 129.121 68.6592C128.99 68.6917 128.852 68.7013 128.654 68.7013C128.379 68.7013 128.201 68.6842 128.05 68.6318C127.907 68.5823 127.763 68.4917 127.582 68.2979C127.197 67.8863 126.725 67.0982 125.844 65.5463L128.043 50.491ZM128.043 50.491L128.043 50.4944M128.043 50.491L128.043 50.4944M128.043 50.4944C128.177 51.5517 128.258 53.7596 128.277 55.8684C128.296 57.968 128.254 60.0334 128.128 60.7888L127.976 61.7036L127.878 62.292M128.043 50.4944L127.878 62.292M127.878 62.292L127.412 61.9194M127.878 62.292L127.412 61.9194M127.412 61.9194L126.869 61.4846M127.412 61.9194L126.869 61.4846M126.869 61.4846C126.286 61.0262 125.593 61.0337 124.971 61.5082C124.765 61.6726 124.644 61.8281 124.579 61.9933C124.515 62.1587 124.493 62.3682 124.545 62.6635C124.653 63.2762 125.057 64.1576 125.844 65.5462L126.869 61.4846Z" fill="#F1F1F1" stroke="#3E2BC5" stroke-width="0.7"/>
<path d="M28.1396 45.7032C27.2684 45.8338 26.4843 45.42 26.1794 44.6577L28.1396 45.7032ZM28.1396 45.7032C28.7494 45.616 28.8148 45.6596 28.7059 46.0516L28.1396 45.7032ZM26.5028 44.5239L26.5028 44.5239L26.5043 44.5277C26.742 45.122 27.3578 45.4665 28.0877 45.357L28.0901 45.3567C28.2431 45.3348 28.3797 45.3184 28.4927 45.3158C28.5914 45.3136 28.7442 45.318 28.8768 45.4003C29.0526 45.5094 29.0983 45.6858 29.0991 45.8175C29.0997 45.929 29.0703 46.0474 29.0433 46.1444C28.6305 47.6587 28.3369 50.698 28.2226 53.9049C28.1084 57.1057 28.1747 60.4192 28.4644 62.4684L28.4645 62.4695C29.8933 72.8175 33.7659 81.6636 40.2562 89.4087C48.1074 98.774 59.4876 105.2 71.7546 107.148L71.7562 107.148C75.1843 107.708 82.0122 107.817 85.7072 107.385C88.3783 107.072 91.3944 106.465 93.8655 105.802C95.1012 105.47 96.1943 105.126 97.0365 104.8C97.4579 104.637 97.811 104.48 98.0855 104.334C98.3652 104.185 98.5372 104.061 98.622 103.969C99.3431 103.157 98.9898 101.852 97.9757 101.513C97.9708 101.512 97.9585 101.511 97.9366 101.511C97.8948 101.511 97.836 101.516 97.7585 101.525C97.6037 101.545 97.398 101.583 97.1492 101.641C96.6529 101.755 96.0097 101.937 95.308 102.163L95.3077 102.164C89.3906 104.07 86.0654 104.576 79.5405 104.576L79.5391 104.576C74.0931 104.554 72.3437 104.356 67.8906 103.237C58.1683 100.823 48.8697 94.9446 42.3546 87.1352L42.3542 87.1348C37.812 81.6709 34.1938 74.5226 32.504 67.5879L32.5038 67.5871C31.122 61.8622 30.7483 54.7815 31.5833 49.288C31.6925 48.5672 31.8019 47.8992 31.8926 47.4018C31.9379 47.1537 31.979 46.9446 32.0137 46.7915C32.0308 46.7157 32.0475 46.6483 32.0635 46.5948C32.0713 46.5686 32.0808 46.5393 32.0921 46.5116L32.0928 46.5098C32.0988 46.4947 32.1257 46.4275 32.1828 46.3704C32.3082 46.245 32.4668 46.2374 32.5749 46.263C32.669 46.2853 32.7442 46.3342 32.7927 46.3706C32.8946 46.447 32.9932 46.5569 33.0768 46.6644L33.077 46.6642L33.0846 46.6749C33.4358 47.163 34.0242 47.3296 34.5822 47.2071C35.1407 47.0846 35.6176 46.6829 35.7473 46.0862L35.748 46.083C35.757 46.0435 35.7573 45.9194 35.7074 45.681C35.6609 45.4586 35.5807 45.1802 35.4724 44.8611C35.256 44.2241 34.9367 43.4515 34.5823 42.69C34.2278 41.9286 33.8422 41.1868 33.4954 40.6105C33.3217 40.3218 33.1611 40.0805 33.0221 39.9008C32.8746 39.7103 32.7809 39.6288 32.7447 39.6086C32.5172 39.4899 32.3494 39.423 32.2003 39.3945C32.0589 39.3675 31.92 39.3725 31.7478 39.4232C31.3714 39.534 30.8715 39.8477 29.9541 40.4998C28.1225 41.805 27.1452 42.5704 26.6785 43.1531C26.4542 43.4332 26.3716 43.6435 26.3539 43.8284C26.3356 44.0186 26.381 44.2297 26.5028 44.5239Z" fill="#F1F1F1" stroke="#3E2BC5" stroke-width="0.7"/>
<path d="M109.991 67.2384L109.991 67.2385C102.569 68.693 96.909 74.2719 95.4565 81.513L95.4559 81.5159C94.9016 84.1596 95.0957 88.0832 95.8818 90.5055L95.8825 90.5074C97.8281 96.6223 102.462 101.044 108.707 102.712L108.707 102.712L108.71 102.712C109.899 103.039 111.537 103.206 113.194 103.209C114.85 103.212 116.494 103.05 117.697 102.733C123.13 101.279 127.25 97.8624 129.667 92.794C131.844 88.1609 131.887 82.2791 129.773 77.6029C127.596 72.8 123.064 68.9707 117.891 67.5379C117.148 67.3422 115.557 67.1903 113.931 67.1277C112.303 67.065 110.719 67.0949 109.991 67.2384ZM111.976 71.0365L111.974 71.0383C111.843 71.2261 111.745 71.5273 111.703 71.9122C111.661 72.2904 111.674 72.7174 111.737 73.1285C111.8 73.5408 111.91 73.9213 112.049 74.2106C112.195 74.5136 112.342 74.6525 112.443 74.6915C113.097 74.9338 113.835 74.7897 114.245 74.3628L114.25 74.3573L114.256 74.352C114.472 74.1459 114.559 74.0191 114.612 73.8246C114.674 73.597 114.692 73.2638 114.692 72.6232C114.692 72.0973 114.665 71.7269 114.612 71.4613C114.559 71.1983 114.486 71.0656 114.415 70.9882C114.338 70.9052 114.269 70.8279 114.218 70.759C114.193 70.7242 114.166 70.6836 114.143 70.6393C114.123 70.5978 114.095 70.5309 114.091 70.4482C114.086 70.3531 114.115 70.2492 114.19 70.1641C114.256 70.0893 114.335 70.0559 114.384 70.0401C114.477 70.0105 114.579 70.0081 114.65 70.0081C114.89 70.0081 115.257 70.0729 115.664 70.1663C116.081 70.2622 116.572 70.3959 117.074 70.5486C118.072 70.8521 119.145 71.2396 119.794 71.5693C120.657 71.9904 121.49 72.4896 122.047 72.8887C122.318 73.0834 122.55 73.2724 122.681 73.4279C122.715 73.4685 122.751 73.5175 122.78 73.5728C122.805 73.6215 122.845 73.7162 122.831 73.8334C122.814 73.9804 122.722 74.0876 122.614 74.1423C122.535 74.1823 122.455 74.1913 122.4 74.1927C122.397 74.1942 122.368 74.2022 122.303 74.2348C122.221 74.2766 122.115 74.3415 121.99 74.4276C121.742 74.5991 121.445 74.8386 121.161 75.1012C120.662 75.5666 120.435 75.8069 120.317 76.0193C120.213 76.2063 120.184 76.3906 120.184 76.805C120.184 77.1671 120.212 77.3653 120.269 77.5059C120.321 77.6331 120.41 77.7449 120.612 77.8987L120.612 77.8987L120.616 77.9019C121.025 78.2233 121.354 78.3178 121.677 78.267C122.022 78.2125 122.433 77.9814 122.972 77.4841L122.973 77.4839C123.228 77.2488 123.48 76.966 123.677 76.7002C123.883 76.4218 123.997 76.2039 124.023 76.0932L124.023 76.0931L124.026 76.0832L124.2 75.4298L124.402 74.6705L124.831 75.3289L125.768 76.7664L125.769 76.7678C126.857 78.4557 127.614 80.236 128.038 82.1074L128.038 82.1087C128.115 82.4548 128.17 82.7409 128.197 82.9688C128.222 83.1823 128.231 83.3984 128.173 83.5722C128.141 83.6685 128.08 83.775 127.97 83.851C127.859 83.9277 127.738 83.9455 127.637 83.9399C127.459 83.9301 127.274 83.8428 127.116 83.7555C127.016 83.7029 126.837 83.6505 126.587 83.6143C126.342 83.5789 126.057 83.5626 125.765 83.5664C125.474 83.5703 125.184 83.5943 124.93 83.6369C124.671 83.6803 124.472 83.7395 124.35 83.8025L124.35 83.8025L124.346 83.8045C123.685 84.1351 123.397 84.8413 123.651 85.6023L123.651 85.6023L123.652 85.6076C123.706 85.7793 123.8 85.9675 123.904 86.1233C123.955 86.2005 124.006 86.2644 124.05 86.3115C124.073 86.3349 124.091 86.3522 124.106 86.3642C124.12 86.3754 124.128 86.3796 124.128 86.38L124.128 86.38L124.133 86.3824C124.214 86.4243 124.433 86.4767 124.782 86.5124C125.111 86.5461 125.506 86.5608 125.897 86.5555C126.289 86.5502 126.667 86.5249 126.962 86.4816C127.111 86.4598 127.23 86.4347 127.317 86.4083C127.389 86.3862 127.414 86.3704 127.415 86.3711C127.457 86.3313 127.521 86.2808 127.606 86.2519C127.705 86.2184 127.831 86.2162 127.948 86.2849C128.05 86.3451 128.102 86.4345 128.128 86.4923C128.155 86.5533 128.17 86.6159 128.178 86.669C128.21 86.87 128.19 87.1621 128.146 87.4789C128.056 88.1331 127.838 89.0526 127.527 89.9625C127.289 90.6887 126.809 91.7055 126.324 92.5945C126.079 93.0415 125.83 93.4628 125.604 93.8053C125.385 94.1364 125.166 94.4275 124.982 94.5833L124.982 94.5835L124.972 94.5913C124.895 94.6519 124.81 94.7146 124.728 94.7553C124.664 94.7868 124.467 94.8726 124.273 94.7435C124.186 94.6852 124.14 94.6065 124.115 94.5496C124.091 94.4931 124.08 94.4371 124.073 94.393C124.06 94.3058 124.058 94.202 124.058 94.0983C124.058 94.0987 124.058 94.0989 124.058 94.0989C124.057 94.0989 124.057 94.0889 124.051 94.0669C124.045 94.0427 124.034 94.0104 124.016 93.9697C123.981 93.888 123.925 93.7865 123.849 93.6703C123.696 93.4383 123.473 93.1694 123.207 92.9131L123.206 92.9133L123.198 92.9049C122.807 92.5029 122.568 92.2994 122.359 92.1886C122.169 92.0873 121.983 92.0525 121.663 92.0525C121.154 92.0525 120.794 92.2002 120.562 92.4303C120.33 92.6599 120.184 93.0136 120.184 93.5103C120.184 93.8416 120.219 94.0272 120.32 94.2173C120.431 94.4269 120.635 94.666 121.04 95.0705C121.31 95.3408 121.581 95.5647 121.811 95.7183C121.926 95.7953 122.026 95.8507 122.106 95.8858C122.192 95.9236 122.23 95.9263 122.23 95.9263C122.344 95.9263 122.457 95.9272 122.545 95.9383C122.588 95.9437 122.652 95.9544 122.716 95.9825C122.782 96.0119 122.887 96.078 122.936 96.2125C122.983 96.3397 122.952 96.4517 122.93 96.5085C122.907 96.5676 122.874 96.6179 122.849 96.6537C122.797 96.7258 122.723 96.8113 122.644 96.8999L122.644 96.9L122.641 96.9033C122.341 97.2354 121.818 97.5955 121.21 97.9425C120.594 98.2948 119.859 98.6513 119.107 98.9699C118.355 99.2885 117.581 99.5718 116.885 99.7761C116.197 99.978 115.557 100.111 115.086 100.111C114.979 100.111 114.87 100.107 114.776 100.089C114.692 100.073 114.53 100.029 114.431 99.8728C114.328 99.7106 114.363 99.5417 114.39 99.4558C114.417 99.3682 114.463 99.2774 114.51 99.1922C114.54 99.117 114.587 98.9107 114.627 98.5984C114.666 98.288 114.692 97.916 114.692 97.5614C114.692 96.717 114.565 96.2228 114.352 95.9401C114.158 95.6841 113.842 95.5373 113.256 95.5373C112.682 95.5373 112.315 95.7003 112.083 95.9745C111.841 96.2602 111.689 96.7295 111.689 97.4525C111.689 97.7652 111.71 98.1106 111.747 98.4124C111.785 98.7264 111.835 98.9546 111.879 99.057L111.884 99.0683L111.888 99.0799C111.931 99.2048 111.969 99.3214 111.991 99.4217C112.01 99.5101 112.033 99.656 111.973 99.7997C111.899 99.9786 111.746 100.053 111.632 100.082C111.53 100.108 111.415 100.111 111.318 100.111C110.882 100.111 110.308 99.9983 109.688 99.8222C109.06 99.6442 108.36 99.3942 107.663 99.1042C106.279 98.5285 104.864 97.7784 104.04 97.092L103.389 96.5714L102.655 95.9845L103.594 95.9484L104.16 95.9266L104.16 95.9263H104.174C104.272 95.9263 104.426 95.8849 104.66 95.7256C104.893 95.5675 105.177 95.3117 105.528 94.9291L105.528 94.929L105.53 94.9265C106.01 94.4128 106.222 94.161 106.316 93.9621C106.39 93.8064 106.396 93.6751 106.334 93.3333L106.334 93.3333L106.333 93.3233C106.266 92.8871 106.097 92.5784 105.861 92.3773C105.624 92.1759 105.286 92.0525 104.827 92.0525C104.538 92.0525 104.361 92.0901 104.178 92.1897C103.977 92.299 103.747 92.4938 103.379 92.8621C103.138 93.1133 102.897 93.3963 102.704 93.6491C102.506 93.9086 102.384 94.104 102.347 94.1961L102.346 94.1986C102.309 94.3098 102.261 94.4538 102.193 94.5547C102.155 94.6118 102.078 94.7066 101.943 94.7471C101.798 94.7909 101.672 94.7464 101.593 94.7017C101.52 94.6596 101.459 94.6016 101.412 94.5514C101.362 94.498 101.31 94.4337 101.255 94.3623C101.147 94.2201 101.01 94.0235 100.837 93.7755L100.836 93.7739C99.8535 92.3445 98.8776 90.1487 98.4755 88.4512C98.3666 87.994 98.2847 87.6363 98.2317 87.3631C98.1808 87.1003 98.1491 86.881 98.1589 86.7183C98.1637 86.6392 98.1803 86.5219 98.2532 86.4171C98.344 86.2865 98.4815 86.2305 98.6114 86.2285C98.7174 86.2268 98.8114 86.2603 98.8727 86.286C98.9341 86.3116 98.9974 86.3448 99.0579 86.3787C99.0869 86.3899 99.1497 86.4088 99.2541 86.4303C99.3661 86.4534 99.5072 86.4758 99.6693 86.4954C99.9934 86.5346 100.388 86.5609 100.776 86.5609C101.406 86.5609 101.733 86.5424 101.958 86.4808C102.15 86.4281 102.277 86.341 102.483 86.1247L102.483 86.1246L102.492 86.1154C102.814 85.8027 102.943 85.4701 102.931 85.149C102.919 84.8222 102.759 84.4545 102.4 84.0857C102.14 83.8256 101.984 83.7138 101.802 83.6505C101.606 83.5823 101.344 83.5583 100.841 83.5583C100.551 83.5583 100.218 83.5937 99.9183 83.648C99.6178 83.7024 99.3788 83.7706 99.2544 83.827C99.1646 83.8745 99.0772 83.9195 98.9976 83.9551C98.9196 83.9899 98.8252 84.0269 98.7285 84.0414C98.6301 84.0562 98.472 84.0554 98.3357 83.9396C98.2082 83.8312 98.174 83.6834 98.1632 83.5877C98.1423 83.4013 98.184 83.1443 98.2484 82.8429C98.3162 82.5252 98.4229 82.1015 98.5641 81.5529L98.5643 81.5523C99.0307 79.7532 100.05 77.5306 100.999 76.2881C100.999 76.2879 100.999 76.2878 100.999 76.2876L101.543 75.57L101.906 75.0901L102.143 75.6434L102.405 76.2533L102.405 76.255C102.581 76.6704 103.022 77.188 103.538 77.6093C103.791 77.8164 104.05 77.99 104.285 78.1101C104.528 78.2343 104.713 78.2845 104.827 78.2845C105.093 78.2845 105.497 78.0943 105.857 77.7719C106.03 77.6175 106.175 77.4478 106.274 77.285C106.377 77.1179 106.416 76.9832 106.416 76.8921C106.416 76.5102 106.219 76.0295 105.842 75.5479C105.471 75.0738 104.951 74.6336 104.366 74.3302L103.739 74.0274L103.231 73.7822L103.676 73.4359L104.46 72.8261L104.46 72.8261L104.463 72.8236C105.082 72.3537 106.057 71.8236 107.067 71.3725C108.076 70.9214 109.152 70.535 109.982 70.3642C110.474 70.2559 110.853 70.1732 111.136 70.1197C111.404 70.0689 111.629 70.0348 111.789 70.0472C111.86 70.0528 112.012 70.0726 112.124 70.1962C112.261 70.3459 112.238 70.5232 112.214 70.6097C112.191 70.6955 112.146 70.7748 112.111 70.8331C112.072 70.8964 112.024 70.9663 111.976 71.0365ZM122.382 73.4929C122.385 73.4929 122.384 73.4927 122.381 73.4929C122.381 73.4929 122.381 73.4929 122.382 73.4929Z" fill="#07BCFF" stroke="#3E2BC5" stroke-width="0.7"/>
<path d="M112.653 77.4314L112.653 77.4315L112.648 77.4338C112.395 77.5367 112.244 77.6256 112.135 77.7401C112.03 77.8504 111.939 78.0134 111.868 78.3124C111.719 78.9381 111.689 80.0105 111.689 82.032C111.689 83.6605 111.701 84.5951 111.753 85.1691C111.805 85.7378 111.893 85.8751 111.986 85.9739L112 85.9882L112.011 86.0038C112.011 86.0038 112.013 86.0054 112.016 86.0089C112.019 86.0126 112.024 86.0176 112.03 86.024C112.042 86.0369 112.06 86.0534 112.082 86.0734C112.128 86.1137 112.188 86.1629 112.264 86.2208C112.415 86.3363 112.616 86.4774 112.854 86.6359C113.329 86.9523 113.937 87.3296 114.565 87.6972C115.827 88.4262 116.675 88.8122 117.288 88.9333C117.587 88.9924 117.813 88.9844 117.994 88.9337C118.174 88.8837 118.335 88.7852 118.497 88.6235C118.689 88.432 118.825 88.033 118.833 87.5721C118.84 87.1084 118.715 86.7228 118.541 86.5484C118.474 86.4821 118.226 86.3011 117.842 86.0533C117.472 85.815 117.01 85.5357 116.548 85.278L116.548 85.278L116.542 85.2745L114.865 84.2944L114.692 84.1931V83.9922V81.0301C114.692 79.6121 114.686 78.8916 114.627 78.467C114.599 78.2629 114.562 78.1545 114.522 78.0809C114.483 78.0085 114.43 77.9461 114.326 77.8463C113.788 77.3687 113.104 77.2383 112.653 77.4314Z" fill="#07BCFF" stroke="#3E2BC5" stroke-width="0.7"/>
</g>
</svg>
