<svg width="160" height="110" viewBox="0 0 160 110" fill="none" xmlns="http://www.w3.org/2000/svg">
<mask id="mask0_348_306" style="mask-type:alpha" maskUnits="userSpaceOnUse" x="0" y="0" width="160" height="110">
<rect width="160" height="110" fill="#D9D9D9"/>
</mask>
<g mask="url(#mask0_348_306)">
<mask id="path-2-inside-1_348_306" fill="white">
<path d="M30.925 3.41167C29.8633 3.91 28.78 5.015 28.3467 6.07667C27.87 7.18167 27.9133 9.39167 28.4117 10.475C28.8017 11.3633 30.0367 12.5983 30.9467 13.01L31.4667 13.2483V17.2783V21.2867L35.3233 25.1433L39.18 29H49.125H59.0917L59.655 30.95L60.2183 32.8783L59.0483 34.07L57.8783 35.24L55.7983 34.6117C54.65 34.265 53.4367 33.9833 53.09 33.9833C52.3533 33.9833 51.7033 34.6117 50.62 36.41L49.8617 37.6667H46.655C43.4917 37.6667 43.4483 37.6667 43.21 37.1467C42.7983 36.2367 41.5633 35.0017 40.675 34.6117C39.5917 34.1133 37.3817 34.07 36.2767 34.5467C34.3483 35.3483 33.2 37.1467 33.2 39.4C33.2 41.6533 34.3483 43.4517 36.2767 44.2533C37.3817 44.73 39.5917 44.6867 40.675 44.1883C41.5633 43.7983 42.7983 42.5633 43.21 41.6533C43.4483 41.155 43.535 41.1333 45.7667 41.1333H48.1067L48.2367 41.7833C48.3233 42.2167 48.93 42.975 50.1 44.1233L51.855 45.7917L51.4867 47.3517L51.0967 48.9117L48.67 49.475C45.81 50.1467 45.5283 50.385 45.3767 52.075L45.29 53.2667H41.7583C38.27 53.2667 38.2483 53.2667 38.01 52.7467C37.5983 51.8367 36.3633 50.6017 35.475 50.2117C34.3917 49.7133 32.1817 49.67 31.0767 50.1467C29.1483 50.9483 28 52.7467 28 55C28 56.7333 28.4767 57.86 29.6683 58.9217C30.8167 59.9617 31.8133 60.265 33.6333 60.1567C35.4317 60.07 36.6233 59.355 37.6417 57.7733L38.2917 56.755H41.78L45.29 56.7333L45.3767 57.925C45.5283 59.615 45.81 59.8533 48.67 60.525L51.0967 61.0883L51.4867 62.6483L51.855 64.2083L50.1 65.8767C48.93 67.025 48.3233 67.7833 48.2367 68.2167L48.1067 68.8667H45.7667C43.535 68.8667 43.4483 68.845 43.21 68.3467C42.7983 67.4367 41.5633 66.2017 40.675 65.8117C39.505 65.27 37.2733 65.27 36.125 65.8117C34.24 66.6783 33.2 68.4117 33.2 70.6433C33.2 72.3333 33.6983 73.4817 34.8683 74.5217C36.0167 75.5617 37.0133 75.865 38.8333 75.7567C40.6317 75.67 41.8233 74.955 42.8417 73.3733L43.4917 72.355H46.6767L49.8617 72.3333L50.62 73.59C51.7033 75.3883 52.3533 76.0167 53.09 76.0167C53.4367 76.0167 54.65 75.735 55.7983 75.3883L57.8783 74.76L59.0483 75.93L60.2183 77.1217L59.655 79.05L59.0917 81H49.125H39.18L35.3233 84.8567L31.4667 88.7133V92.7217V96.7517L30.9467 96.99C30.0367 97.4017 28.8017 98.6367 28.4117 99.525C27.9133 100.608 27.87 102.818 28.3467 103.923C29.1483 105.852 30.9467 107 33.2 107C35.4533 107 37.2517 105.852 38.0533 103.923C38.53 102.818 38.4867 100.608 37.9883 99.525C37.5983 98.6367 36.3633 97.4017 35.4533 96.99C34.9333 96.7517 34.9333 96.7083 34.9333 93.6967V90.6417L38.0317 87.5433L41.1083 84.4667H51.3783H61.6267L62.8833 85.225C63.5767 85.6367 64.595 86.1783 65.1367 86.4383L66.1333 86.8717V90.3817V93.8917L63.035 96.99L59.9583 100.067H58.6367C57.4667 100.067 57.2933 100.002 57.0767 99.5467C56.665 98.6367 55.43 97.4017 54.5417 97.0117C53.3717 96.47 51.14 96.47 49.9917 97.0117C48.1283 97.8783 47.0667 99.6117 47.0667 101.8C47.0667 103.988 48.1283 105.722 49.9917 106.588C51.14 107.13 53.3717 107.13 54.5417 106.588C55.43 106.198 56.665 104.963 57.0767 104.053C57.315 103.555 57.4017 103.533 59.6117 103.533H61.8867L65.7433 99.6767L69.6 95.82V90.0783V84.3367L70.2067 83.7517L70.835 83.145L72.3733 83.535L73.9117 83.9033L74.475 86.33C75.1467 89.19 75.385 89.4717 77.075 89.6233L78.2667 89.71V93.2417C78.2667 96.73 78.2667 96.7517 77.7467 96.99C76.8367 97.4017 75.6017 98.6367 75.2117 99.525C74.7133 100.608 74.67 102.818 75.1467 103.923C75.9483 105.852 77.7467 107 80 107C81.7333 107 82.86 106.523 83.9217 105.332C84.9617 104.183 85.265 103.187 85.1567 101.367C85.07 99.5683 84.355 98.3767 82.7733 97.3583L81.755 96.7083V93.22L81.7333 89.71L82.925 89.6233C84.615 89.4717 84.8533 89.19 85.525 86.33L86.0883 83.9033L87.6267 83.535L89.165 83.145L89.7933 83.7517L90.4 84.3367V90.0783V95.82L94.2567 99.6767L98.1133 103.533L100.367 103.555H102.642L103.292 104.573C104.31 106.155 105.502 106.87 107.3 106.957C109.12 107.065 110.117 106.762 111.265 105.722C112.457 104.66 112.933 103.533 112.933 101.8C112.933 100.067 112.457 98.94 111.265 97.8783C110.117 96.8383 109.12 96.535 107.3 96.6433C105.502 96.73 104.31 97.445 103.292 99.0267L102.642 100.045H101.342L100.042 100.067L96.9433 96.9683L93.8667 93.8917V90.3817V86.8717L94.8633 86.4383C95.405 86.1783 96.4233 85.6367 97.1167 85.225L98.3733 84.4667H108.622H118.892L121.99 87.565L125.067 90.6417V93.6967C125.067 96.7083 125.067 96.7517 124.547 96.99C123.637 97.4017 122.402 98.6367 122.012 99.525C121.47 100.695 121.47 102.927 122.012 104.075C122.878 105.96 124.612 107 126.843 107C129.053 106.978 130.873 105.83 131.653 103.923C132.13 102.818 132.087 100.608 131.588 99.525C131.198 98.6367 129.963 97.4017 129.053 96.99L128.533 96.7517V92.7217V88.7133L124.677 84.8567L120.82 81H110.875H100.908L100.345 79.05L99.7817 77.1217L100.952 75.93L102.122 74.76L104.202 75.3883C105.35 75.735 106.563 76.0167 106.91 76.0167C107.647 76.0167 108.297 75.3883 109.38 73.59L110.138 72.3333L113.323 72.355H116.508L117.158 73.3733C118.177 74.955 119.368 75.67 121.167 75.7567C122.987 75.865 123.983 75.5617 125.132 74.5217C126.323 73.46 126.8 72.3333 126.8 70.6C126.8 68.8667 126.323 67.74 125.132 66.6783C123.983 65.6383 122.987 65.335 121.167 65.4433C119.368 65.53 118.177 66.245 117.158 67.8267L116.508 68.845H114.212L111.915 68.8667L111.763 68.2167C111.677 67.7833 111.07 67.025 109.9 65.8767L108.145 64.2083L108.513 62.6483L108.903 61.0883L111.33 60.525C114.19 59.8533 114.472 59.615 114.623 57.925L114.71 56.7333L118.22 56.755H121.708L122.358 57.7733C123.377 59.355 124.568 60.07 126.367 60.1567C128.187 60.265 129.183 59.9617 130.332 58.9217C131.523 57.86 132 56.7333 132 55C132 52.7467 130.852 50.9483 128.923 50.1467C127.818 49.67 125.608 49.7133 124.525 50.2117C123.637 50.6017 122.402 51.8367 121.99 52.7467C121.752 53.2667 121.73 53.2667 118.242 53.2667H114.71L114.623 52.075C114.472 50.385 114.19 50.1467 111.33 49.475L108.903 48.9117L108.513 47.3517L108.145 45.7917L109.9 44.1233C111.07 42.975 111.677 42.2167 111.763 41.7833L111.893 41.1333L114.212 41.155H116.508L117.158 42.1733C118.177 43.755 119.368 44.47 121.167 44.5567C122.987 44.665 123.983 44.3617 125.132 43.3217C126.323 42.26 126.8 41.1333 126.8 39.4C126.8 37.1467 125.652 35.3483 123.723 34.5467C122.618 34.07 120.408 34.1133 119.325 34.6117C118.437 35.0017 117.202 36.2367 116.79 37.1467C116.552 37.6667 116.508 37.6667 113.345 37.6667H110.138L109.38 36.41C108.297 34.6117 107.647 33.9833 106.91 33.9833C106.563 33.9833 105.35 34.265 104.202 34.6117L102.122 35.24L100.952 34.07L99.7817 32.8783L100.345 30.95L100.908 29H110.875H120.82L124.677 25.1433L128.533 21.2867L128.555 17.3V13.2917L129.573 12.6417C131.155 11.6233 131.87 10.4317 131.957 8.63333C132.065 6.81333 131.762 5.81667 130.722 4.66833C129.682 3.49833 128.533 3 126.843 3C124.612 3 122.878 4.04 122.012 5.925C121.47 7.07333 121.47 9.305 122.012 10.475C122.402 11.3633 123.637 12.5983 124.547 13.01C125.067 13.2483 125.067 13.2917 125.067 16.3033V19.3583L121.968 22.4567L118.892 25.5333H108.622H98.3733L97.1167 24.775C96.4233 24.3633 95.405 23.8217 94.8633 23.5617L93.8667 23.1283V19.6183V16.1083L96.965 13.01L100.042 9.93333L101.342 9.955H102.642L103.292 10.9733C104.31 12.555 105.502 13.27 107.3 13.3567C109.12 13.465 110.117 13.1617 111.265 12.1217C112.457 11.06 112.933 9.93333 112.933 8.2C112.933 6.46667 112.457 5.34 111.265 4.27833C110.117 3.23833 109.12 2.935 107.3 3.04333C105.502 3.13 104.31 3.845 103.292 5.42667L102.642 6.445H100.367L98.1133 6.46667L94.2567 10.3233L90.4 14.18V19.9217V25.6633L89.7933 26.2483L89.165 26.855L87.6267 26.465L86.0883 26.0967L85.525 23.67C84.8533 20.81 84.615 20.5283 82.925 20.3767L81.7333 20.29L81.755 16.78V13.2917L82.7733 12.6417C84.355 11.6233 85.07 10.4317 85.1567 8.63333C85.265 6.81333 84.9617 5.81667 83.9217 4.66833C82.86 3.47667 81.7333 3 80 3C77.7467 3 75.9483 4.14833 75.1467 6.07667C74.67 7.18167 74.7133 9.39167 75.2117 10.475C75.6017 11.3633 76.8367 12.5983 77.7467 13.01C78.2667 13.2483 78.2667 13.27 78.2667 16.7583V20.29L77.075 20.3767C75.385 20.5283 75.1467 20.81 74.475 23.67L73.9117 26.0967L72.3733 26.465L70.835 26.855L70.2067 26.2483L69.6 25.6633V19.9217V14.18L65.7433 10.3233L61.8867 6.46667H59.6117C57.4017 6.46667 57.315 6.445 57.0767 5.94667C56.665 5.03667 55.43 3.80167 54.5417 3.41167C53.4583 2.91333 51.2483 2.87 50.1433 3.34667C48.215 4.14833 47.0667 5.94667 47.0667 8.2C47.0667 10.4533 48.215 12.2517 50.1433 13.0533C51.2483 13.53 53.4583 13.4867 54.5417 12.9883C55.43 12.5983 56.665 11.3633 57.0767 10.4533C57.2933 9.99833 57.4667 9.93333 58.6367 9.93333H59.9583L63.0567 13.0317L66.1333 16.1083V19.6183V23.1283L65.1367 23.5617C64.595 23.8217 63.5767 24.3633 62.8833 24.775L61.6267 25.5333H51.3783H41.1083L38.01 22.435L34.9333 19.3583L34.955 16.325V13.2917L35.9733 12.6417C37.555 11.6233 38.27 10.4317 38.3567 8.63333C38.4 7.81 38.335 6.81333 38.1833 6.35833C37.8367 5.275 36.5583 3.88833 35.475 3.41167C34.305 2.87 32.0733 2.87 30.925 3.41167ZM34.2833 7.11667C35.215 8.04833 34.5217 9.71667 33.2 9.71667C32.3767 9.71667 31.6833 9.02333 31.6833 8.2C31.6833 7.37667 32.3767 6.68333 33.2 6.68333C33.5683 6.68333 34.045 6.87833 34.2833 7.11667ZM53.35 7.11667C53.5883 7.355 53.7833 7.83167 53.7833 8.2C53.7833 8.56833 53.5883 9.045 53.35 9.28333C52.4183 10.215 50.75 9.52167 50.75 8.2C50.75 7.37667 51.4433 6.68333 52.2667 6.68333C52.635 6.68333 53.1117 6.87833 53.35 7.11667ZM81.0833 7.11667C81.3217 7.355 81.5167 7.83167 81.5167 8.2C81.5167 8.56833 81.3217 9.045 81.0833 9.28333C80.845 9.52167 80.3683 9.71667 80 9.71667C79.6317 9.71667 79.155 9.52167 78.9167 9.28333C78.6783 9.045 78.4833 8.56833 78.4833 8.2C78.4833 7.83167 78.6783 7.355 78.9167 7.11667C79.155 6.87833 79.6317 6.68333 80 6.68333C80.3683 6.68333 80.845 6.87833 81.0833 7.11667ZM108.817 7.11667C109.055 7.355 109.25 7.83167 109.25 8.2C109.25 8.56833 109.055 9.045 108.817 9.28333C108.578 9.52167 108.102 9.71667 107.733 9.71667C107.365 9.71667 106.888 9.52167 106.65 9.28333C106.412 9.045 106.217 8.56833 106.217 8.2C106.217 7.83167 106.412 7.355 106.65 7.11667C106.888 6.87833 107.365 6.68333 107.733 6.68333C108.102 6.68333 108.578 6.87833 108.817 7.11667ZM127.883 7.11667C128.122 7.355 128.317 7.83167 128.317 8.2C128.317 8.56833 128.122 9.045 127.883 9.28333C127.645 9.52167 127.168 9.71667 126.8 9.71667C126.432 9.71667 125.955 9.52167 125.717 9.28333C125.478 9.045 125.283 8.56833 125.283 8.2C125.283 7.83167 125.478 7.355 125.717 7.11667C125.955 6.87833 126.432 6.68333 126.8 6.68333C127.168 6.68333 127.645 6.87833 127.883 7.11667ZM81.755 24.2117C81.8417 24.2767 82.1017 25.295 82.3833 26.465C82.6433 27.7 83.0333 28.7833 83.25 29C83.4667 29.2167 84.0517 29.455 84.5717 29.5417C85.0917 29.6283 86.4783 29.975 87.6483 30.3217C88.9483 30.7117 89.9667 30.9067 90.3133 30.82C90.595 30.7333 91.5483 29.91 92.3933 28.9783L93.9317 27.2883L94.6033 27.635C94.9717 27.8083 95.665 28.22 96.1633 28.5233L97.0517 29.065L96.445 31.0367C95.4917 34.0917 95.4483 33.9617 98.2433 36.7567C101.038 39.5517 100.908 39.5083 103.963 38.555L105.957 37.9483L106.845 39.4867L107.733 41.025L106.022 42.585C105.09 43.4517 104.245 44.405 104.18 44.7083C104.093 45.0333 104.288 46.0733 104.678 47.3517C105.025 48.5217 105.372 49.8867 105.458 50.385C105.697 51.815 105.935 51.9883 108.513 52.6167L110.875 53.2017V55V56.7983L108.513 57.3833C105.935 58.0117 105.697 58.185 105.458 59.615C105.372 60.1133 105.025 61.4783 104.678 62.6483C104.288 63.9267 104.093 64.9667 104.18 65.2917C104.245 65.595 105.09 66.5483 106.022 67.415L107.733 68.975L106.845 70.5133L105.957 72.0517L103.963 71.445C100.887 70.47 101.038 70.4267 98.2433 73.2433C95.4267 76.0383 95.47 75.8867 96.445 78.9633L97.0517 80.9567L95.5133 81.845L93.975 82.7333L92.415 81.0217C91.5483 80.09 90.595 79.245 90.2917 79.18C89.9667 79.0933 88.9267 79.2883 87.6483 79.6783C86.4783 80.025 85.1133 80.3717 84.615 80.4583C83.185 80.6967 83.0117 80.935 82.3833 83.5133L81.7983 85.875H80H78.2017L77.6167 83.5133C76.9883 80.935 76.815 80.6967 75.385 80.4583C74.8867 80.3717 73.5217 80.025 72.3517 79.6783C71.0733 79.2883 70.0333 79.0933 69.7083 79.18C69.405 79.245 68.4517 80.09 67.585 81.0217L66.025 82.7333L64.4867 81.845L62.9483 80.9567L63.555 78.9633C64.5083 75.9083 64.5517 76.0383 61.7567 73.2433C58.9617 70.4483 59.0917 70.4917 56.0367 71.445L54.0433 72.0517L53.155 70.5133L52.2667 68.975L53.9783 67.415C54.91 66.5483 55.755 65.595 55.82 65.2917C55.9067 64.9667 55.7117 63.9267 55.3217 62.6483C54.975 61.4783 54.6283 60.1133 54.5417 59.615C54.3033 58.185 54.065 58.0117 51.4867 57.3833L49.125 56.7983V55V53.2017L51.4867 52.6167C54.065 51.9883 54.3033 51.815 54.5417 50.385C54.6283 49.8867 54.975 48.5217 55.3217 47.3517C55.7117 46.0733 55.9067 45.0333 55.82 44.7083C55.755 44.405 54.91 43.4517 53.9783 42.585L52.2667 41.025L53.155 39.4867L54.0433 37.9483L56.0367 38.555C59.0917 39.5083 58.9617 39.5517 61.7567 36.7567C64.5733 33.94 64.53 34.07 63.555 31.015L62.9483 29.0433L64.4867 28.155L66.025 27.2667L67.585 28.9783C68.4517 29.91 69.405 30.755 69.7083 30.82C70.0333 30.9067 71.0733 30.7117 72.3517 30.3217C73.5217 29.975 74.8867 29.6283 75.385 29.5417C76.815 29.3033 76.9883 29.065 77.6167 26.4867L78.2017 24.125L79.0467 24.0167C79.9783 23.8867 81.5383 23.995 81.755 24.2117ZM39.4833 38.3167C40.415 39.2483 39.7217 40.9167 38.4 40.9167C37.5767 40.9167 36.8833 40.2233 36.8833 39.4C36.8833 38.5767 37.5767 37.8833 38.4 37.8833C38.7683 37.8833 39.245 38.0783 39.4833 38.3167ZM122.683 38.3167C122.922 38.555 123.117 39.0317 123.117 39.4C123.117 39.7683 122.922 40.245 122.683 40.4833C122.445 40.7217 121.968 40.9167 121.6 40.9167C121.232 40.9167 120.755 40.7217 120.517 40.4833C120.278 40.245 120.083 39.7683 120.083 39.4C120.083 39.0317 120.278 38.555 120.517 38.3167C120.755 38.0783 121.232 37.8833 121.6 37.8833C121.968 37.8833 122.445 38.0783 122.683 38.3167ZM34.2833 53.9167C35.215 54.8483 34.5217 56.5167 33.2 56.5167C32.3767 56.5167 31.6833 55.8233 31.6833 55C31.6833 54.1767 32.3767 53.4833 33.2 53.4833C33.5683 53.4833 34.045 53.6783 34.2833 53.9167ZM127.883 53.9167C128.122 54.155 128.317 54.6317 128.317 55C128.317 55.3683 128.122 55.845 127.883 56.0833C127.645 56.3217 127.168 56.5167 126.8 56.5167C126.432 56.5167 125.955 56.3217 125.717 56.0833C125.478 55.845 125.283 55.3683 125.283 55C125.283 54.6317 125.478 54.155 125.717 53.9167C125.955 53.6783 126.432 53.4833 126.8 53.4833C127.168 53.4833 127.645 53.6783 127.883 53.9167ZM39.4833 69.5167C40.415 70.4483 39.7217 72.1167 38.4 72.1167C37.5767 72.1167 36.8833 71.4233 36.8833 70.6C36.8833 69.7767 37.5767 69.0833 38.4 69.0833C38.7683 69.0833 39.245 69.2783 39.4833 69.5167ZM122.683 69.5167C122.922 69.755 123.117 70.2317 123.117 70.6C123.117 70.9683 122.922 71.445 122.683 71.6833C122.445 71.9217 121.968 72.1167 121.6 72.1167C121.232 72.1167 120.755 71.9217 120.517 71.6833C120.278 71.445 120.083 70.9683 120.083 70.6C120.083 70.2317 120.278 69.755 120.517 69.5167C120.755 69.2783 121.232 69.0833 121.6 69.0833C121.968 69.0833 122.445 69.2783 122.683 69.5167ZM34.2833 100.717C34.5217 100.955 34.7167 101.432 34.7167 101.8C34.7167 102.168 34.5217 102.645 34.2833 102.883C33.3517 103.815 31.6833 103.122 31.6833 101.8C31.6833 101.432 31.8783 100.955 32.1167 100.717C32.355 100.478 32.8317 100.283 33.2 100.283C33.5683 100.283 34.045 100.478 34.2833 100.717ZM53.35 100.717C54.2817 101.648 53.5883 103.317 52.2667 103.317C51.4433 103.317 50.75 102.623 50.75 101.8C50.75 100.977 51.4433 100.283 52.2667 100.283C52.635 100.283 53.1117 100.478 53.35 100.717ZM81.0833 100.717C82.015 101.648 81.3217 103.317 80 103.317C79.1767 103.317 78.4833 102.623 78.4833 101.8C78.4833 100.977 79.1767 100.283 80 100.283C80.3683 100.283 80.845 100.478 81.0833 100.717ZM108.817 100.717C109.748 101.648 109.055 103.317 107.733 103.317C106.91 103.317 106.217 102.623 106.217 101.8C106.217 100.977 106.91 100.283 107.733 100.283C108.102 100.283 108.578 100.478 108.817 100.717ZM127.883 100.717C128.815 101.648 128.122 103.317 126.8 103.317C125.977 103.317 125.283 102.623 125.283 101.8C125.283 100.977 125.977 100.283 126.8 100.283C127.168 100.283 127.645 100.478 127.883 100.717Z"/>
</mask>
<path d="M30.925 3.41167C29.8633 3.91 28.78 5.015 28.3467 6.07667C27.87 7.18167 27.9133 9.39167 28.4117 10.475C28.8017 11.3633 30.0367 12.5983 30.9467 13.01L31.4667 13.2483V17.2783V21.2867L35.3233 25.1433L39.18 29H49.125H59.0917L59.655 30.95L60.2183 32.8783L59.0483 34.07L57.8783 35.24L55.7983 34.6117C54.65 34.265 53.4367 33.9833 53.09 33.9833C52.3533 33.9833 51.7033 34.6117 50.62 36.41L49.8617 37.6667H46.655C43.4917 37.6667 43.4483 37.6667 43.21 37.1467C42.7983 36.2367 41.5633 35.0017 40.675 34.6117C39.5917 34.1133 37.3817 34.07 36.2767 34.5467C34.3483 35.3483 33.2 37.1467 33.2 39.4C33.2 41.6533 34.3483 43.4517 36.2767 44.2533C37.3817 44.73 39.5917 44.6867 40.675 44.1883C41.5633 43.7983 42.7983 42.5633 43.21 41.6533C43.4483 41.155 43.535 41.1333 45.7667 41.1333H48.1067L48.2367 41.7833C48.3233 42.2167 48.93 42.975 50.1 44.1233L51.855 45.7917L51.4867 47.3517L51.0967 48.9117L48.67 49.475C45.81 50.1467 45.5283 50.385 45.3767 52.075L45.29 53.2667H41.7583C38.27 53.2667 38.2483 53.2667 38.01 52.7467C37.5983 51.8367 36.3633 50.6017 35.475 50.2117C34.3917 49.7133 32.1817 49.67 31.0767 50.1467C29.1483 50.9483 28 52.7467 28 55C28 56.7333 28.4767 57.86 29.6683 58.9217C30.8167 59.9617 31.8133 60.265 33.6333 60.1567C35.4317 60.07 36.6233 59.355 37.6417 57.7733L38.2917 56.755H41.78L45.29 56.7333L45.3767 57.925C45.5283 59.615 45.81 59.8533 48.67 60.525L51.0967 61.0883L51.4867 62.6483L51.855 64.2083L50.1 65.8767C48.93 67.025 48.3233 67.7833 48.2367 68.2167L48.1067 68.8667H45.7667C43.535 68.8667 43.4483 68.845 43.21 68.3467C42.7983 67.4367 41.5633 66.2017 40.675 65.8117C39.505 65.27 37.2733 65.27 36.125 65.8117C34.24 66.6783 33.2 68.4117 33.2 70.6433C33.2 72.3333 33.6983 73.4817 34.8683 74.5217C36.0167 75.5617 37.0133 75.865 38.8333 75.7567C40.6317 75.67 41.8233 74.955 42.8417 73.3733L43.4917 72.355H46.6767L49.8617 72.3333L50.62 73.59C51.7033 75.3883 52.3533 76.0167 53.09 76.0167C53.4367 76.0167 54.65 75.735 55.7983 75.3883L57.8783 74.76L59.0483 75.93L60.2183 77.1217L59.655 79.05L59.0917 81H49.125H39.18L35.3233 84.8567L31.4667 88.7133V92.7217V96.7517L30.9467 96.99C30.0367 97.4017 28.8017 98.6367 28.4117 99.525C27.9133 100.608 27.87 102.818 28.3467 103.923C29.1483 105.852 30.9467 107 33.2 107C35.4533 107 37.2517 105.852 38.0533 103.923C38.53 102.818 38.4867 100.608 37.9883 99.525C37.5983 98.6367 36.3633 97.4017 35.4533 96.99C34.9333 96.7517 34.9333 96.7083 34.9333 93.6967V90.6417L38.0317 87.5433L41.1083 84.4667H51.3783H61.6267L62.8833 85.225C63.5767 85.6367 64.595 86.1783 65.1367 86.4383L66.1333 86.8717V90.3817V93.8917L63.035 96.99L59.9583 100.067H58.6367C57.4667 100.067 57.2933 100.002 57.0767 99.5467C56.665 98.6367 55.43 97.4017 54.5417 97.0117C53.3717 96.47 51.14 96.47 49.9917 97.0117C48.1283 97.8783 47.0667 99.6117 47.0667 101.8C47.0667 103.988 48.1283 105.722 49.9917 106.588C51.14 107.13 53.3717 107.13 54.5417 106.588C55.43 106.198 56.665 104.963 57.0767 104.053C57.315 103.555 57.4017 103.533 59.6117 103.533H61.8867L65.7433 99.6767L69.6 95.82V90.0783V84.3367L70.2067 83.7517L70.835 83.145L72.3733 83.535L73.9117 83.9033L74.475 86.33C75.1467 89.19 75.385 89.4717 77.075 89.6233L78.2667 89.71V93.2417C78.2667 96.73 78.2667 96.7517 77.7467 96.99C76.8367 97.4017 75.6017 98.6367 75.2117 99.525C74.7133 100.608 74.67 102.818 75.1467 103.923C75.9483 105.852 77.7467 107 80 107C81.7333 107 82.86 106.523 83.9217 105.332C84.9617 104.183 85.265 103.187 85.1567 101.367C85.07 99.5683 84.355 98.3767 82.7733 97.3583L81.755 96.7083V93.22L81.7333 89.71L82.925 89.6233C84.615 89.4717 84.8533 89.19 85.525 86.33L86.0883 83.9033L87.6267 83.535L89.165 83.145L89.7933 83.7517L90.4 84.3367V90.0783V95.82L94.2567 99.6767L98.1133 103.533L100.367 103.555H102.642L103.292 104.573C104.31 106.155 105.502 106.87 107.3 106.957C109.12 107.065 110.117 106.762 111.265 105.722C112.457 104.66 112.933 103.533 112.933 101.8C112.933 100.067 112.457 98.94 111.265 97.8783C110.117 96.8383 109.12 96.535 107.3 96.6433C105.502 96.73 104.31 97.445 103.292 99.0267L102.642 100.045H101.342L100.042 100.067L96.9433 96.9683L93.8667 93.8917V90.3817V86.8717L94.8633 86.4383C95.405 86.1783 96.4233 85.6367 97.1167 85.225L98.3733 84.4667H108.622H118.892L121.99 87.565L125.067 90.6417V93.6967C125.067 96.7083 125.067 96.7517 124.547 96.99C123.637 97.4017 122.402 98.6367 122.012 99.525C121.47 100.695 121.47 102.927 122.012 104.075C122.878 105.96 124.612 107 126.843 107C129.053 106.978 130.873 105.83 131.653 103.923C132.13 102.818 132.087 100.608 131.588 99.525C131.198 98.6367 129.963 97.4017 129.053 96.99L128.533 96.7517V92.7217V88.7133L124.677 84.8567L120.82 81H110.875H100.908L100.345 79.05L99.7817 77.1217L100.952 75.93L102.122 74.76L104.202 75.3883C105.35 75.735 106.563 76.0167 106.91 76.0167C107.647 76.0167 108.297 75.3883 109.38 73.59L110.138 72.3333L113.323 72.355H116.508L117.158 73.3733C118.177 74.955 119.368 75.67 121.167 75.7567C122.987 75.865 123.983 75.5617 125.132 74.5217C126.323 73.46 126.8 72.3333 126.8 70.6C126.8 68.8667 126.323 67.74 125.132 66.6783C123.983 65.6383 122.987 65.335 121.167 65.4433C119.368 65.53 118.177 66.245 117.158 67.8267L116.508 68.845H114.212L111.915 68.8667L111.763 68.2167C111.677 67.7833 111.07 67.025 109.9 65.8767L108.145 64.2083L108.513 62.6483L108.903 61.0883L111.33 60.525C114.19 59.8533 114.472 59.615 114.623 57.925L114.71 56.7333L118.22 56.755H121.708L122.358 57.7733C123.377 59.355 124.568 60.07 126.367 60.1567C128.187 60.265 129.183 59.9617 130.332 58.9217C131.523 57.86 132 56.7333 132 55C132 52.7467 130.852 50.9483 128.923 50.1467C127.818 49.67 125.608 49.7133 124.525 50.2117C123.637 50.6017 122.402 51.8367 121.99 52.7467C121.752 53.2667 121.73 53.2667 118.242 53.2667H114.71L114.623 52.075C114.472 50.385 114.19 50.1467 111.33 49.475L108.903 48.9117L108.513 47.3517L108.145 45.7917L109.9 44.1233C111.07 42.975 111.677 42.2167 111.763 41.7833L111.893 41.1333L114.212 41.155H116.508L117.158 42.1733C118.177 43.755 119.368 44.47 121.167 44.5567C122.987 44.665 123.983 44.3617 125.132 43.3217C126.323 42.26 126.8 41.1333 126.8 39.4C126.8 37.1467 125.652 35.3483 123.723 34.5467C122.618 34.07 120.408 34.1133 119.325 34.6117C118.437 35.0017 117.202 36.2367 116.79 37.1467C116.552 37.6667 116.508 37.6667 113.345 37.6667H110.138L109.38 36.41C108.297 34.6117 107.647 33.9833 106.91 33.9833C106.563 33.9833 105.35 34.265 104.202 34.6117L102.122 35.24L100.952 34.07L99.7817 32.8783L100.345 30.95L100.908 29H110.875H120.82L124.677 25.1433L128.533 21.2867L128.555 17.3V13.2917L129.573 12.6417C131.155 11.6233 131.87 10.4317 131.957 8.63333C132.065 6.81333 131.762 5.81667 130.722 4.66833C129.682 3.49833 128.533 3 126.843 3C124.612 3 122.878 4.04 122.012 5.925C121.47 7.07333 121.47 9.305 122.012 10.475C122.402 11.3633 123.637 12.5983 124.547 13.01C125.067 13.2483 125.067 13.2917 125.067 16.3033V19.3583L121.968 22.4567L118.892 25.5333H108.622H98.3733L97.1167 24.775C96.4233 24.3633 95.405 23.8217 94.8633 23.5617L93.8667 23.1283V19.6183V16.1083L96.965 13.01L100.042 9.93333L101.342 9.955H102.642L103.292 10.9733C104.31 12.555 105.502 13.27 107.3 13.3567C109.12 13.465 110.117 13.1617 111.265 12.1217C112.457 11.06 112.933 9.93333 112.933 8.2C112.933 6.46667 112.457 5.34 111.265 4.27833C110.117 3.23833 109.12 2.935 107.3 3.04333C105.502 3.13 104.31 3.845 103.292 5.42667L102.642 6.445H100.367L98.1133 6.46667L94.2567 10.3233L90.4 14.18V19.9217V25.6633L89.7933 26.2483L89.165 26.855L87.6267 26.465L86.0883 26.0967L85.525 23.67C84.8533 20.81 84.615 20.5283 82.925 20.3767L81.7333 20.29L81.755 16.78V13.2917L82.7733 12.6417C84.355 11.6233 85.07 10.4317 85.1567 8.63333C85.265 6.81333 84.9617 5.81667 83.9217 4.66833C82.86 3.47667 81.7333 3 80 3C77.7467 3 75.9483 4.14833 75.1467 6.07667C74.67 7.18167 74.7133 9.39167 75.2117 10.475C75.6017 11.3633 76.8367 12.5983 77.7467 13.01C78.2667 13.2483 78.2667 13.27 78.2667 16.7583V20.29L77.075 20.3767C75.385 20.5283 75.1467 20.81 74.475 23.67L73.9117 26.0967L72.3733 26.465L70.835 26.855L70.2067 26.2483L69.6 25.6633V19.9217V14.18L65.7433 10.3233L61.8867 6.46667H59.6117C57.4017 6.46667 57.315 6.445 57.0767 5.94667C56.665 5.03667 55.43 3.80167 54.5417 3.41167C53.4583 2.91333 51.2483 2.87 50.1433 3.34667C48.215 4.14833 47.0667 5.94667 47.0667 8.2C47.0667 10.4533 48.215 12.2517 50.1433 13.0533C51.2483 13.53 53.4583 13.4867 54.5417 12.9883C55.43 12.5983 56.665 11.3633 57.0767 10.4533C57.2933 9.99833 57.4667 9.93333 58.6367 9.93333H59.9583L63.0567 13.0317L66.1333 16.1083V19.6183V23.1283L65.1367 23.5617C64.595 23.8217 63.5767 24.3633 62.8833 24.775L61.6267 25.5333H51.3783H41.1083L38.01 22.435L34.9333 19.3583L34.955 16.325V13.2917L35.9733 12.6417C37.555 11.6233 38.27 10.4317 38.3567 8.63333C38.4 7.81 38.335 6.81333 38.1833 6.35833C37.8367 5.275 36.5583 3.88833 35.475 3.41167C34.305 2.87 32.0733 2.87 30.925 3.41167ZM34.2833 7.11667C35.215 8.04833 34.5217 9.71667 33.2 9.71667C32.3767 9.71667 31.6833 9.02333 31.6833 8.2C31.6833 7.37667 32.3767 6.68333 33.2 6.68333C33.5683 6.68333 34.045 6.87833 34.2833 7.11667ZM53.35 7.11667C53.5883 7.355 53.7833 7.83167 53.7833 8.2C53.7833 8.56833 53.5883 9.045 53.35 9.28333C52.4183 10.215 50.75 9.52167 50.75 8.2C50.75 7.37667 51.4433 6.68333 52.2667 6.68333C52.635 6.68333 53.1117 6.87833 53.35 7.11667ZM81.0833 7.11667C81.3217 7.355 81.5167 7.83167 81.5167 8.2C81.5167 8.56833 81.3217 9.045 81.0833 9.28333C80.845 9.52167 80.3683 9.71667 80 9.71667C79.6317 9.71667 79.155 9.52167 78.9167 9.28333C78.6783 9.045 78.4833 8.56833 78.4833 8.2C78.4833 7.83167 78.6783 7.355 78.9167 7.11667C79.155 6.87833 79.6317 6.68333 80 6.68333C80.3683 6.68333 80.845 6.87833 81.0833 7.11667ZM108.817 7.11667C109.055 7.355 109.25 7.83167 109.25 8.2C109.25 8.56833 109.055 9.045 108.817 9.28333C108.578 9.52167 108.102 9.71667 107.733 9.71667C107.365 9.71667 106.888 9.52167 106.65 9.28333C106.412 9.045 106.217 8.56833 106.217 8.2C106.217 7.83167 106.412 7.355 106.65 7.11667C106.888 6.87833 107.365 6.68333 107.733 6.68333C108.102 6.68333 108.578 6.87833 108.817 7.11667ZM127.883 7.11667C128.122 7.355 128.317 7.83167 128.317 8.2C128.317 8.56833 128.122 9.045 127.883 9.28333C127.645 9.52167 127.168 9.71667 126.8 9.71667C126.432 9.71667 125.955 9.52167 125.717 9.28333C125.478 9.045 125.283 8.56833 125.283 8.2C125.283 7.83167 125.478 7.355 125.717 7.11667C125.955 6.87833 126.432 6.68333 126.8 6.68333C127.168 6.68333 127.645 6.87833 127.883 7.11667ZM81.755 24.2117C81.8417 24.2767 82.1017 25.295 82.3833 26.465C82.6433 27.7 83.0333 28.7833 83.25 29C83.4667 29.2167 84.0517 29.455 84.5717 29.5417C85.0917 29.6283 86.4783 29.975 87.6483 30.3217C88.9483 30.7117 89.9667 30.9067 90.3133 30.82C90.595 30.7333 91.5483 29.91 92.3933 28.9783L93.9317 27.2883L94.6033 27.635C94.9717 27.8083 95.665 28.22 96.1633 28.5233L97.0517 29.065L96.445 31.0367C95.4917 34.0917 95.4483 33.9617 98.2433 36.7567C101.038 39.5517 100.908 39.5083 103.963 38.555L105.957 37.9483L106.845 39.4867L107.733 41.025L106.022 42.585C105.09 43.4517 104.245 44.405 104.18 44.7083C104.093 45.0333 104.288 46.0733 104.678 47.3517C105.025 48.5217 105.372 49.8867 105.458 50.385C105.697 51.815 105.935 51.9883 108.513 52.6167L110.875 53.2017V55V56.7983L108.513 57.3833C105.935 58.0117 105.697 58.185 105.458 59.615C105.372 60.1133 105.025 61.4783 104.678 62.6483C104.288 63.9267 104.093 64.9667 104.18 65.2917C104.245 65.595 105.09 66.5483 106.022 67.415L107.733 68.975L106.845 70.5133L105.957 72.0517L103.963 71.445C100.887 70.47 101.038 70.4267 98.2433 73.2433C95.4267 76.0383 95.47 75.8867 96.445 78.9633L97.0517 80.9567L95.5133 81.845L93.975 82.7333L92.415 81.0217C91.5483 80.09 90.595 79.245 90.2917 79.18C89.9667 79.0933 88.9267 79.2883 87.6483 79.6783C86.4783 80.025 85.1133 80.3717 84.615 80.4583C83.185 80.6967 83.0117 80.935 82.3833 83.5133L81.7983 85.875H80H78.2017L77.6167 83.5133C76.9883 80.935 76.815 80.6967 75.385 80.4583C74.8867 80.3717 73.5217 80.025 72.3517 79.6783C71.0733 79.2883 70.0333 79.0933 69.7083 79.18C69.405 79.245 68.4517 80.09 67.585 81.0217L66.025 82.7333L64.4867 81.845L62.9483 80.9567L63.555 78.9633C64.5083 75.9083 64.5517 76.0383 61.7567 73.2433C58.9617 70.4483 59.0917 70.4917 56.0367 71.445L54.0433 72.0517L53.155 70.5133L52.2667 68.975L53.9783 67.415C54.91 66.5483 55.755 65.595 55.82 65.2917C55.9067 64.9667 55.7117 63.9267 55.3217 62.6483C54.975 61.4783 54.6283 60.1133 54.5417 59.615C54.3033 58.185 54.065 58.0117 51.4867 57.3833L49.125 56.7983V55V53.2017L51.4867 52.6167C54.065 51.9883 54.3033 51.815 54.5417 50.385C54.6283 49.8867 54.975 48.5217 55.3217 47.3517C55.7117 46.0733 55.9067 45.0333 55.82 44.7083C55.755 44.405 54.91 43.4517 53.9783 42.585L52.2667 41.025L53.155 39.4867L54.0433 37.9483L56.0367 38.555C59.0917 39.5083 58.9617 39.5517 61.7567 36.7567C64.5733 33.94 64.53 34.07 63.555 31.015L62.9483 29.0433L64.4867 28.155L66.025 27.2667L67.585 28.9783C68.4517 29.91 69.405 30.755 69.7083 30.82C70.0333 30.9067 71.0733 30.7117 72.3517 30.3217C73.5217 29.975 74.8867 29.6283 75.385 29.5417C76.815 29.3033 76.9883 29.065 77.6167 26.4867L78.2017 24.125L79.0467 24.0167C79.9783 23.8867 81.5383 23.995 81.755 24.2117ZM39.4833 38.3167C40.415 39.2483 39.7217 40.9167 38.4 40.9167C37.5767 40.9167 36.8833 40.2233 36.8833 39.4C36.8833 38.5767 37.5767 37.8833 38.4 37.8833C38.7683 37.8833 39.245 38.0783 39.4833 38.3167ZM122.683 38.3167C122.922 38.555 123.117 39.0317 123.117 39.4C123.117 39.7683 122.922 40.245 122.683 40.4833C122.445 40.7217 121.968 40.9167 121.6 40.9167C121.232 40.9167 120.755 40.7217 120.517 40.4833C120.278 40.245 120.083 39.7683 120.083 39.4C120.083 39.0317 120.278 38.555 120.517 38.3167C120.755 38.0783 121.232 37.8833 121.6 37.8833C121.968 37.8833 122.445 38.0783 122.683 38.3167ZM34.2833 53.9167C35.215 54.8483 34.5217 56.5167 33.2 56.5167C32.3767 56.5167 31.6833 55.8233 31.6833 55C31.6833 54.1767 32.3767 53.4833 33.2 53.4833C33.5683 53.4833 34.045 53.6783 34.2833 53.9167ZM127.883 53.9167C128.122 54.155 128.317 54.6317 128.317 55C128.317 55.3683 128.122 55.845 127.883 56.0833C127.645 56.3217 127.168 56.5167 126.8 56.5167C126.432 56.5167 125.955 56.3217 125.717 56.0833C125.478 55.845 125.283 55.3683 125.283 55C125.283 54.6317 125.478 54.155 125.717 53.9167C125.955 53.6783 126.432 53.4833 126.8 53.4833C127.168 53.4833 127.645 53.6783 127.883 53.9167ZM39.4833 69.5167C40.415 70.4483 39.7217 72.1167 38.4 72.1167C37.5767 72.1167 36.8833 71.4233 36.8833 70.6C36.8833 69.7767 37.5767 69.0833 38.4 69.0833C38.7683 69.0833 39.245 69.2783 39.4833 69.5167ZM122.683 69.5167C122.922 69.755 123.117 70.2317 123.117 70.6C123.117 70.9683 122.922 71.445 122.683 71.6833C122.445 71.9217 121.968 72.1167 121.6 72.1167C121.232 72.1167 120.755 71.9217 120.517 71.6833C120.278 71.445 120.083 70.9683 120.083 70.6C120.083 70.2317 120.278 69.755 120.517 69.5167C120.755 69.2783 121.232 69.0833 121.6 69.0833C121.968 69.0833 122.445 69.2783 122.683 69.5167ZM34.2833 100.717C34.5217 100.955 34.7167 101.432 34.7167 101.8C34.7167 102.168 34.5217 102.645 34.2833 102.883C33.3517 103.815 31.6833 103.122 31.6833 101.8C31.6833 101.432 31.8783 100.955 32.1167 100.717C32.355 100.478 32.8317 100.283 33.2 100.283C33.5683 100.283 34.045 100.478 34.2833 100.717ZM53.35 100.717C54.2817 101.648 53.5883 103.317 52.2667 103.317C51.4433 103.317 50.75 102.623 50.75 101.8C50.75 100.977 51.4433 100.283 52.2667 100.283C52.635 100.283 53.1117 100.478 53.35 100.717ZM81.0833 100.717C82.015 101.648 81.3217 103.317 80 103.317C79.1767 103.317 78.4833 102.623 78.4833 101.8C78.4833 100.977 79.1767 100.283 80 100.283C80.3683 100.283 80.845 100.478 81.0833 100.717ZM108.817 100.717C109.748 101.648 109.055 103.317 107.733 103.317C106.91 103.317 106.217 102.623 106.217 101.8C106.217 100.977 106.91 100.283 107.733 100.283C108.102 100.283 108.578 100.478 108.817 100.717ZM127.883 100.717C128.815 101.648 128.122 103.317 126.8 103.317C125.977 103.317 125.283 102.623 125.283 101.8C125.283 100.977 125.977 100.283 126.8 100.283C127.168 100.283 127.645 100.478 127.883 100.717Z" fill="#F1F1F1" stroke="#3E2BC5" stroke-width="0.8" mask="url(#path-2-inside-1_348_306)"/>
<path d="M66.2181 39.7448L66.2152 39.7474C66.1191 39.8335 66.0325 39.9091 65.9537 39.9778C65.6633 40.2309 65.48 40.3908 65.3295 40.6378C65.1454 40.9401 65.0056 41.395 64.9135 42.3479C64.7469 44.0722 64.7478 47.247 64.7495 53.6591C64.7497 54.356 64.7499 55.0911 64.7499 55.8668C64.7499 56.6424 64.7497 57.3776 64.7495 58.0744C64.7478 64.4866 64.7469 67.6613 64.9135 69.3856C65.0056 70.3385 65.1454 70.7935 65.3295 71.0957C65.48 71.3427 65.6633 71.5026 65.9537 71.7557C66.0325 71.8244 66.1191 71.9 66.2152 71.9861L66.2152 71.9861L66.2169 71.9876C66.9928 72.6921 68.24 73.3717 69.7986 73.9411C71.3514 74.5085 73.1896 74.9578 75.1276 75.2148L75.1276 75.2148L75.1311 75.2153C76.3173 75.3847 78.2782 75.4555 80.2539 75.4366C82.2289 75.4177 84.1862 75.3095 85.3636 75.1291L85.3642 75.129C89.3496 74.5258 92.1911 73.4346 93.8258 71.9447L93.8258 71.9447L93.8284 71.9424C93.9172 71.8631 93.9977 71.793 94.0711 71.729C94.36 71.4772 94.5398 71.3205 94.687 71.074C94.866 70.7743 95.0021 70.3189 95.0917 69.3649C95.2531 67.645 95.2522 64.4827 95.2504 58.1232C95.2502 57.4118 95.2499 56.6605 95.2499 55.8668C95.2499 55.073 95.2502 54.3217 95.2504 53.6103C95.2522 47.2508 95.2531 44.0886 95.0917 42.3686C95.0021 41.4146 94.866 40.9592 94.687 40.6595C94.5398 40.413 94.36 40.2563 94.0711 40.0045C93.9977 39.9405 93.9172 39.8704 93.8284 39.7911L93.8262 39.7891C92.2336 38.3413 89.4555 37.2504 85.4689 36.6039C84.2964 36.4138 82.1053 36.3159 79.9051 36.3159C77.704 36.3159 75.5417 36.4139 74.4252 36.6035C70.6294 37.2505 67.7015 38.385 66.2181 39.7448ZM85.3253 46.1365L85.3249 46.1366C84.0496 46.3584 82.0219 46.4722 80.0171 46.4776C78.0131 46.483 75.9946 46.3803 74.7389 46.1581L74.7386 46.158C72.9501 45.8398 71.244 45.3289 69.9775 44.7774C69.346 44.5025 68.8096 44.2113 68.4249 43.9201C68.2327 43.7746 68.0669 43.6206 67.9463 43.4586C67.8271 43.2985 67.7333 43.1049 67.7333 42.8884C67.7333 42.6563 67.8578 42.424 67.984 42.2498C68.1196 42.0624 68.3041 41.8777 68.5104 41.7353C70.0786 40.6117 72.7705 39.8346 75.7941 39.459C78.833 39.0815 82.2632 39.1029 85.3438 39.6181C87.1124 39.9039 88.7985 40.3987 90.0504 40.9484C90.6749 41.2225 91.2057 41.5165 91.5868 41.8144C91.7772 41.9633 91.9411 42.1215 92.0599 42.2884C92.178 42.4543 92.2666 42.6504 92.2666 42.8668C92.2666 43.083 92.173 43.2767 92.0543 43.4371C91.9341 43.5994 91.7688 43.7542 91.5772 43.9005C91.1937 44.1935 90.6595 44.4868 90.0319 44.7633C88.7733 45.3178 87.0828 45.829 85.3253 46.1365ZM70.2116 48.0823L70.2124 48.0826C73.2377 49.1265 74.7977 49.3418 79.9999 49.3418C85.692 49.3418 87.9381 48.9767 91.6289 47.4193L91.6288 47.4192L91.635 47.4168C91.6837 47.3973 91.7492 47.3738 91.821 47.3628C91.8959 47.3513 91.9984 47.3501 92.1048 47.3986C92.3201 47.4967 92.385 47.7154 92.4129 47.8431C92.4459 47.994 92.462 48.1966 92.4712 48.4512C92.4806 48.711 92.4833 49.047 92.4833 49.4751C92.4833 49.9929 92.4613 50.5183 92.4222 50.9451C92.4027 51.158 92.3786 51.3515 92.3496 51.5096C92.3245 51.6463 92.2878 51.8066 92.2219 51.9214C92.0519 52.2346 91.7087 52.5244 91.3002 52.7851C90.8772 53.0552 90.3376 53.323 89.7226 53.5745C88.4921 54.0777 86.9291 54.5285 85.3245 54.8033C84.0491 55.0251 82.0217 55.1388 80.0171 55.1443C78.0131 55.1497 75.9946 55.047 74.7389 54.8247L74.7375 54.8245C73.1033 54.5283 71.5253 54.0781 70.2867 53.5777C69.668 53.3277 69.1258 53.062 68.7012 52.7919C68.2912 52.5312 67.9472 52.2397 67.777 51.9197C67.7117 51.805 67.6753 51.6456 67.6503 51.5096C67.6213 51.3515 67.5971 51.158 67.5776 50.9451C67.5386 50.5183 67.5166 49.9929 67.5166 49.4751C67.5166 49.0471 67.5193 48.7108 67.529 48.4508C67.5386 48.1961 67.5554 47.992 67.5905 47.8394C67.6213 47.7053 67.6922 47.4896 67.9113 47.3955C68.1065 47.3116 68.3 47.3842 68.3779 47.4135L68.3795 47.414L68.3892 47.4177L68.3988 47.4219C68.577 47.5011 69.3851 47.7995 70.2116 48.0823ZM70.2116 56.7489L70.2124 56.7492C73.2377 57.7932 74.7977 58.0084 79.9999 58.0084C85.692 58.0084 87.9381 57.6433 91.6289 56.086L91.6288 56.0859L91.635 56.0835C91.6837 56.0639 91.7492 56.0404 91.821 56.0294C91.8959 56.0179 91.9984 56.0168 92.1048 56.0652C92.3201 56.1634 92.385 56.3821 92.4129 56.5098C92.4459 56.6607 92.462 56.8633 92.4712 57.1179C92.4806 57.3777 92.4833 57.7137 92.4833 58.1418C92.4833 58.6596 92.4613 59.185 92.4222 59.6118C92.4027 59.8247 92.3786 60.0182 92.3496 60.1763C92.3245 60.313 92.2878 60.4733 92.2219 60.5881C92.0519 60.9013 91.7087 61.191 91.3002 61.4518C90.8772 61.7219 90.3376 61.9896 89.7226 62.2411C88.4921 62.7444 86.9291 63.1952 85.3245 63.47C84.0491 63.6917 82.0217 63.8055 80.0171 63.8109C78.0131 63.8164 75.9946 63.7136 74.7389 63.4914L74.7375 63.4911C73.1033 63.195 71.5253 62.7448 70.2867 62.2444C69.668 61.9944 69.1258 61.7286 68.7012 61.4586C68.2912 61.1979 67.9472 60.9063 67.777 60.5863C67.7117 60.4717 67.6753 60.3123 67.6503 60.1763C67.6213 60.0182 67.5971 59.8247 67.5776 59.6118C67.5386 59.185 67.5166 58.6596 67.5166 58.1418C67.5166 57.7138 67.5193 57.3775 67.529 57.1174C67.5386 56.8628 67.5554 56.6587 67.5905 56.5061C67.6213 56.372 67.6922 56.1562 67.9113 56.0621C68.1065 55.9783 68.3 56.0509 68.3779 56.0801L68.3795 56.0807L68.3892 56.0844L68.3988 56.0886C68.577 56.1678 69.3851 56.4662 70.2116 56.7489ZM70.2116 65.4156L70.2124 65.4159C73.2377 66.4598 74.7977 66.6751 79.9999 66.6751C85.692 66.6751 87.9381 66.31 91.6289 64.7526L91.6288 64.7526L91.635 64.7501C91.6837 64.7306 91.7492 64.7071 91.821 64.6961C91.8959 64.6846 91.9984 64.6834 92.1048 64.7319C92.3201 64.83 92.385 65.0488 92.4129 65.1765C92.4459 65.3274 92.462 65.5299 92.4712 65.7846C92.4806 66.0444 92.4833 66.3803 92.4833 66.8084C92.4833 67.3263 92.4613 67.8517 92.4222 68.2784C92.4027 68.4914 92.3786 68.6849 92.3496 68.8429C92.3246 68.979 92.2881 69.1385 92.2228 69.2532C92.0479 69.581 91.6632 69.8844 91.2149 70.155C90.7459 70.438 90.1448 70.7212 89.4684 70.9856C88.1156 71.5146 86.4282 71.9819 84.8204 72.2243C83.6419 72.4131 81.6797 72.4939 79.7483 72.4803C77.8163 72.4667 75.8745 72.3585 74.7391 72.1581L74.7375 72.1578C73.1033 71.8617 71.5253 71.4115 70.2867 70.9111C69.668 70.6611 69.1258 70.3953 68.7012 70.1252C68.2912 69.8645 67.9472 69.573 67.777 69.253C67.7117 69.1383 67.6753 68.979 67.6503 68.8429C67.6213 68.6849 67.5971 68.4914 67.5776 68.2784C67.5386 67.8517 67.5166 67.3263 67.5166 66.8084C67.5166 66.3804 67.5193 66.0442 67.529 65.7841C67.5386 65.5295 67.5554 65.3254 67.5905 65.1727C67.6213 65.0386 67.6922 64.8229 67.9113 64.7288C68.1065 64.645 68.3 64.7175 68.3779 64.7468L68.3795 64.7474L68.3892 64.751L68.3988 64.7553C68.577 64.8345 69.3851 65.1329 70.2116 65.4156Z" fill="#07BCFF" stroke="#3E2BC5" stroke-width="0.7"/>
</g>
</svg>
