<svg width="160" height="110" viewBox="0 0 160 110" fill="none" xmlns="http://www.w3.org/2000/svg">
<mask id="mask0_346_275" style="mask-type:alpha" maskUnits="userSpaceOnUse" x="0" y="0" width="160" height="110">
<rect width="160" height="110" fill="#D9D9D9"/>
</mask>
<g mask="url(#mask0_346_275)">
<path d="M119.39 3.38602C119.628 3.60269 122.553 6.91769 125.912 10.7744C131.697 17.4043 132 17.7943 132 18.6177C132 19.2027 131.848 19.636 131.567 19.9177C131.177 20.3077 130.852 20.351 128.1 20.351H125.067V23.3843C125.067 26.136 125.023 26.461 124.633 26.851C124.157 27.3277 122.943 27.436 122.25 27.0677C121.6 26.721 121.383 25.4643 121.383 22.0843C121.383 18.9427 121.6 17.491 122.098 17.166C122.25 17.0793 123.203 16.9493 124.265 16.8843L126.172 16.776L122.228 12.2694C120.062 9.79935 118.22 7.78435 118.133 7.78435C118.047 7.78435 116.205 9.79935 114.038 12.2694L110.095 16.776L112.088 16.8843C114.732 17.036 114.667 16.9277 114.667 21.261C114.667 24.4027 114.623 24.7277 114.233 25.1177C113.757 25.5943 112.543 25.7027 111.85 25.3343C111.265 25.031 110.983 23.9477 110.983 22.0627V20.351H108.188C106.65 20.351 105.22 20.286 105.025 20.221C104.462 20.0043 104.072 18.8777 104.288 18.141C104.44 17.621 115.663 4.46936 116.877 3.38602C117.137 3.16936 117.657 3.01769 118.133 3.01769C118.61 3.01769 119.13 3.16936 119.39 3.38602Z" fill="#07BCFF"/>
<path d="M81.0526 3.69866C81.1337 3.77981 81.1813 3.84186 81.2173 3.9163C81.255 3.99403 81.2897 4.10513 81.3165 4.2939C81.3718 4.68364 81.3834 5.31594 81.3834 6.48451C81.3834 7.24162 81.3697 7.8234 81.3274 8.27303C81.2846 8.72741 81.2149 9.01388 81.1224 9.19881C81.0393 9.36511 80.937 9.45215 80.7873 9.50855C80.6163 9.57299 80.3722 9.60117 80.0001 9.60117C79.628 9.60117 79.3838 9.57299 79.2128 9.50855C79.0631 9.45215 78.9608 9.36511 78.8777 9.19881C78.7852 9.01388 78.7155 8.72741 78.6727 8.27303C78.6304 7.8234 78.6167 7.24162 78.6167 6.48451C78.6167 5.7274 78.6304 5.14561 78.6727 4.69598C78.7155 4.24161 78.7852 3.95513 78.8777 3.7702C78.9608 3.60391 79.0631 3.51686 79.2128 3.46047C79.3838 3.39603 79.628 3.36784 80.0001 3.36784C80.5289 3.36784 80.8586 3.50467 81.0526 3.69866Z" fill="#07BCFF" stroke="#3E2BC5" stroke-width="0.7"/>
<path d="M43.1234 3.38584C44.1417 4.29584 55.5384 17.5342 55.7334 18.0542C56.0584 18.9208 55.5384 20.0042 54.65 20.3292C54.26 20.4592 52.83 20.5675 51.5084 20.5675H49.06L48.9734 23.4925C48.9084 26.1575 48.865 26.4608 48.41 26.8942C47.8034 27.5225 46.4384 27.5658 45.7884 26.9808C45.355 26.5908 45.3334 26.3525 45.3334 22.1925C45.3334 18.7692 45.3984 17.7508 45.6367 17.4042C45.8967 17.0575 46.2867 16.9708 47.9117 16.8842L49.905 16.7758L45.9617 12.2692C43.795 9.79917 41.9534 7.78417 41.8667 7.78417C41.78 7.78417 39.9384 9.79917 37.7717 12.2692L33.8284 16.7758L35.8217 16.8842C37.425 16.9708 37.8367 17.0792 38.075 17.4042C38.53 18.0108 38.6817 19.3975 38.595 22.1708C38.5084 24.3808 38.4434 24.7275 38.0317 25.1392C37.3817 25.8108 35.865 25.7892 35.3234 25.1175C34.9984 24.7275 34.9334 24.2508 34.9334 22.6042V20.5675H32.355C28.715 20.5675 28 20.2425 28 18.5308C28 17.8158 28.5634 17.1008 34.0884 10.7742C37.4467 6.91751 40.3717 3.60251 40.61 3.38584C40.87 3.16918 41.39 3.01751 41.8667 3.01751C42.3434 3.01751 42.8634 3.16918 43.1234 3.38584Z" fill="#07BCFF"/>
<path d="M89.2232 9.85303L89.2229 9.85326C88.5127 10.5525 88.11 10.9214 87.8059 11.1208C87.6609 11.216 87.5477 11.2659 87.4425 11.2943C87.3358 11.3231 87.2208 11.3343 87.0635 11.3343C86.5339 11.3343 86.2246 11.2597 86.0189 11.1289C85.8229 11.0044 85.67 10.796 85.5317 10.4023C85.459 10.1784 85.4294 10.0021 85.4373 9.83951C85.4452 9.67908 85.4909 9.50976 85.6011 9.3032C85.832 8.87025 86.3175 8.32112 87.222 7.42742C88.1126 6.55865 88.708 6.13692 89.1703 6.01912C89.3853 5.96433 89.5704 5.97626 89.7536 6.04556C89.9439 6.11756 90.1505 6.25863 90.3901 6.49261C90.6848 6.79853 90.8014 6.95124 90.8535 7.08664C90.8997 7.20672 90.9085 7.34999 90.8564 7.68417C90.7696 8.1834 90.4904 8.60763 89.2232 9.85303Z" fill="#07BCFF" stroke="#3E2BC5" stroke-width="0.7"/>
<path d="M71.2114 6.09743L71.2114 6.0975L71.2183 6.09989C71.2175 6.09962 71.2176 6.09965 71.2185 6.10008C71.2219 6.10167 71.2371 6.10871 71.2665 6.12676C71.3011 6.14798 71.3452 6.17812 71.399 6.21798C71.5065 6.29766 71.6402 6.40703 71.7931 6.54015C72.0984 6.80583 72.4668 7.15403 72.8327 7.51994C73.1984 7.88569 73.558 8.26537 73.8461 8.59324C74.1442 8.93248 74.3384 9.18604 74.4023 9.30985L74.4023 9.30985L74.403 9.31123C74.5245 9.5441 74.5693 9.68278 74.578 9.81448C74.5871 9.94975 74.5606 10.1145 74.4681 10.4029C74.3299 10.7962 74.1771 11.0044 73.9812 11.1289C73.7755 11.2597 73.4662 11.3343 72.9366 11.3343C72.7793 11.3343 72.6643 11.3231 72.5576 11.2943C72.4525 11.2659 72.3392 11.216 72.1942 11.1208C71.8901 10.9214 71.4874 10.5526 70.7772 9.85326L70.777 9.85303C69.5097 8.60762 69.2305 8.1834 69.1437 7.68417C69.0916 7.34964 69.1003 7.20534 69.1448 7.08706C69.1943 6.95559 69.305 6.80889 69.5876 6.5151C69.8729 6.24066 70.1289 6.08793 70.3754 6.02425C70.6183 5.96151 70.8857 5.97643 71.2114 6.09743Z" fill="#07BCFF" stroke="#3E2BC5" stroke-width="0.7"/>
<mask id="path-7-inside-1_346_275" fill="white">
<path d="M84.6583 15.6059C85.6116 15.8442 87.3666 16.5159 88.5583 17.0792C92.415 18.9642 95.2533 21.8026 97.1383 25.6592C98.4166 28.2809 98.98 30.6426 99.1966 34.1092L99.3483 36.7092L100.475 37.8359C102.902 40.1976 103.313 44.0326 101.45 46.8276C100.15 48.7776 98.135 49.8176 95.6433 49.8176H94.1916L93.5633 50.9226C92.87 52.1792 90.2266 55.0609 89.2733 55.6242C88.71 55.9492 88.6666 56.0792 88.6666 57.2276C88.6666 58.2026 88.7316 58.4842 88.9916 58.4842C89.165 58.4842 91.0716 59.3509 93.2166 60.4342C96.575 62.1026 97.1383 62.4709 97.2683 62.9692C97.355 63.3159 97.3983 63.7275 97.3766 63.9009C97.355 64.0959 97.6366 64.4209 98.005 64.6376C98.3733 64.8542 99.305 65.5042 100.063 66.0892L101.45 67.1292L102.75 66.3275C103.465 65.8942 104.05 65.4176 104.05 65.2876C104.05 65.1576 103.855 64.8759 103.617 64.6592C102.815 63.9442 101.84 62.1676 101.32 60.5426C100.692 58.5276 100.605 55.3209 101.147 53.4792C101.948 50.7276 103.812 48.1492 106.173 46.5242C106.715 46.1342 107.95 45.5709 108.903 45.2242C112.348 44.0326 116.768 44.5526 119.607 46.4809C122.012 48.0842 123.528 50.0342 124.46 52.7209C125.305 55.1692 125.327 58.1809 124.503 60.6076C123.94 62.3192 123.008 63.9659 122.25 64.6592C122.012 64.8759 121.817 65.1576 121.817 65.2876C121.817 65.4176 122.358 65.8726 123.052 66.2626C123.723 66.6742 125.002 67.6925 125.89 68.5375C128.512 71.0292 130.05 73.4775 131.263 77.1175C131.87 78.9159 131.87 79.0675 131.892 83.8342C131.892 88.4492 131.87 88.7742 131.393 89.9659C130.245 92.8259 127.732 95.1659 124.828 96.1625C123.55 96.5959 123.03 96.6175 116.465 96.6175H109.467V99.1742C109.467 102.338 109.142 103.551 107.928 104.938C106.585 106.454 105.632 106.866 103.183 106.974C101.125 107.061 101.082 107.039 92.5016 104.743L83.8566 102.424L82.3833 103.854C81.04 105.154 80.8233 105.284 80 105.284C79.1766 105.284 78.96 105.154 77.6166 103.854L76.1216 102.424L67.4983 104.743C58.8966 107.061 58.875 107.061 56.8167 106.974C54.3683 106.866 53.415 106.454 52.0716 104.938C50.9233 103.638 50.555 102.338 50.3817 99.1742L50.2516 96.6392L42.9717 96.5742L35.6917 96.5092L34.0667 95.7075C32.03 94.7109 30.8817 93.7359 29.755 92.0459C28.3033 89.8575 28 88.5359 28 84.1592C28 79.3709 28.4767 77.0309 30.0583 73.8675C31.4667 71.0509 34.4567 67.7575 36.9483 66.2626C37.6417 65.8726 38.1833 65.4176 38.1833 65.2876C38.1833 65.1576 37.9883 64.8759 37.75 64.6592C37.5117 64.4426 37.0133 63.7925 36.645 63.2076C34.8467 60.4126 34.3917 56.0576 35.54 52.7209C36.4717 50.0342 37.9883 48.0842 40.3933 46.4809C43.2317 44.5526 47.6517 44.0326 51.0966 45.2242C54.0216 46.2426 56.3833 48.2576 57.77 50.8792C58.875 53.0026 59.2 54.3676 59.2 56.8159C59.2 58.5276 59.0916 59.2642 58.6366 60.6076C58.0733 62.3192 57.1416 63.9659 56.3833 64.6592C56.145 64.8759 55.95 65.1576 55.95 65.2876C55.95 65.4176 56.535 65.8942 57.25 66.3275L58.55 67.1292L59.9366 66.0892C60.695 65.5042 61.6266 64.8542 61.995 64.6376C62.5366 64.3126 62.6666 64.0959 62.6666 63.5326C62.6666 63.1209 62.84 62.6442 63.0566 62.4276C63.2733 62.2326 65.1583 61.2359 67.26 60.2176L71.095 58.3759V57.1842C71.1166 55.9926 71.1166 55.9709 69.9683 55.0176C68.625 53.8909 67.13 52.1359 66.3716 50.8142L65.83 49.8609L64.075 49.7742C61.3233 49.6659 59.2433 48.3226 58.0733 45.9609C57.4883 44.7476 57.2933 42.1909 57.6833 40.8476C58.03 39.6559 59.2433 37.9009 60.175 37.2726L60.9333 36.7526V34.1309C60.9333 30.7942 61.4533 28.5626 62.8833 25.6592C64.79 21.7809 67.6283 18.9426 71.4416 17.0792C74.4533 15.6276 76.5766 15.1509 80.1083 15.1726C82.1233 15.1726 83.4233 15.3026 84.6583 15.6059ZM74.8216 19.6576C72.5683 20.5026 71.1816 21.3692 69.405 23.0592C66.3716 25.9192 64.855 29.2992 64.66 33.5459L64.5516 36.0159L65.9383 35.8642C68.6033 35.5609 70.25 34.4342 71.1383 32.2892C71.3766 31.7476 71.7233 31.1626 71.9183 31.0109C72.5033 30.5776 73.565 30.7076 75.2766 31.4009C78.31 32.6142 81.6033 32.6142 84.68 31.4226C87.3883 30.3609 88.1033 30.5126 88.8616 32.2892C89.7716 34.4776 91.44 35.5826 94.17 35.8642L95.6433 36.0159L95.5133 33.9792C95.1666 29.3642 93.845 26.3092 90.9416 23.3626C89.4033 21.8242 87.8216 20.7192 86.045 20.0042C83.5316 18.9859 82.665 18.8342 79.5666 18.8992C76.9233 18.9642 76.4683 19.0509 74.8216 19.6576ZM79.5666 35.8859C77.4216 35.8209 76.295 35.6909 75.2983 35.3659C74.02 34.9326 73.9333 34.9326 73.825 35.3009C73.4566 36.4492 69.6216 39.2009 68.4083 39.2009C67.9533 39.2009 67.9533 44.2492 68.4083 46.0259C69.4483 50.0126 72.8716 53.3926 76.9666 54.4759C77.6166 54.6492 78.9816 54.8009 80 54.8009C83.3583 54.8009 86.11 53.6742 88.45 51.3342C90.92 48.8642 91.83 46.5459 92.0683 42.1909C92.1983 39.5909 92.1766 39.4176 91.7866 39.2876C89.8366 38.6592 88.8833 38.1176 87.67 36.9692C86.9116 36.2759 86.24 35.5392 86.175 35.3226C86.0666 34.9542 85.9583 34.9759 84.2683 35.4526C82.6866 35.9292 82.1883 35.9726 79.5666 35.8859ZM95.73 40.7609C95.665 41.3892 95.5783 42.8842 95.535 44.0976L95.47 46.2859L96.185 46.1126C99.1533 45.4626 99.8466 41.6276 97.29 40.0676C96.12 39.3526 95.86 39.4826 95.73 40.7609ZM62.71 40.0676C60.11 41.6492 60.8466 45.4626 63.88 46.1342L64.66 46.3076L64.53 45.6576C64.465 45.2892 64.4 43.7942 64.4 42.3209C64.4 39.6776 64.4 39.6342 63.9016 39.6342C63.6416 39.6342 63.1 39.8292 62.71 40.0676ZM109.207 49.1242C107.495 49.9476 105.978 51.5076 105.177 53.2409C104.657 54.3242 104.592 54.7359 104.592 56.7509C104.592 58.7659 104.657 59.1559 105.177 60.2826C105.935 61.8859 107.798 63.7492 109.402 64.5075C110.528 65.0275 110.918 65.0926 112.933 65.0926C114.948 65.0926 115.338 65.0275 116.465 64.5075C118.068 63.7492 119.932 61.8859 120.69 60.2826C121.21 59.1559 121.275 58.7659 121.275 56.7509C121.275 54.7359 121.21 54.3242 120.69 53.2409C119.672 51.0742 117.722 49.3409 115.468 48.6042C114.905 48.4092 113.822 48.3226 112.587 48.3659C110.875 48.4092 110.42 48.5176 109.207 49.1242ZM43.34 49.1242C41.6283 49.9476 40.1117 51.5076 39.31 53.2409C38.79 54.3242 38.725 54.7359 38.725 56.7509C38.725 58.7659 38.79 59.1559 39.31 60.2826C40.0683 61.8859 41.9317 63.7492 43.535 64.5075C44.6617 65.0275 45.0517 65.0926 47.0667 65.0926C49.06 65.0926 49.4933 65.0275 50.5333 64.5292C52.31 63.7059 53.87 62.1676 54.6933 60.4776C55.365 59.1342 55.4083 58.8959 55.4083 56.7509C55.4083 54.7359 55.3433 54.3242 54.8233 53.2409C53.805 51.0742 51.855 49.3409 49.6017 48.6042C49.0383 48.4092 47.955 48.3226 46.72 48.3659C45.0083 48.4092 44.5533 48.5176 43.34 49.1242ZM83.575 58.1592C82.86 58.3326 81.2566 58.4842 80 58.4842C78.7433 58.4842 77.14 58.3326 76.425 58.1592C75.71 57.9859 75.06 57.8559 74.9516 57.8342C74.865 57.8342 74.8 58.5492 74.8 59.4159V60.9759L77.0316 63.2076C80.0216 66.1975 80 66.1976 82.99 63.1859L85.2 60.9759V59.3942C85.2 58.5492 85.135 57.8342 85.0266 57.8342C84.94 57.8559 84.29 57.9859 83.575 58.1592ZM86.7166 64.8759L84.4416 67.1509L85.6983 68.3859L86.9333 69.6425L89.685 66.8909L92.415 64.1609L90.92 63.3809C90.0966 62.9692 89.3166 62.6226 89.2083 62.6009C89.0783 62.6009 87.9733 63.6192 86.7166 64.8759ZM69.1233 63.3809L67.585 64.1609L70.315 66.8909L73.0666 69.6425L74.3016 68.3859L75.5583 67.1509L73.2833 64.8759C72.0266 63.6192 70.9433 62.6009 70.835 62.6009C70.7483 62.6009 69.9683 62.9476 69.1233 63.3809ZM91.375 70.6175C88.0383 73.9325 87.8433 74.0842 87.02 74.0842C86.5433 74.0842 85.9366 73.9325 85.655 73.7375C85.1783 73.3909 85.135 73.4125 84.42 74.1059L83.705 74.8425L84.5716 81.0175C85.0483 84.4192 85.5033 87.3442 85.6116 87.4959C85.6983 87.6692 86.0233 87.8859 86.3266 87.9725C86.8466 88.1025 86.89 88.0375 87.5833 85.9142C89.2083 80.9092 90.7466 79.2625 93.845 79.2625C95.9466 79.2409 97.7233 80.3459 98.6116 82.1875C99.0233 83.0109 99.0666 83.5092 99.0666 87.1275V91.1575L99.8683 91.5692C100.93 92.0892 101.19 92.8692 100.648 93.9525C100.388 94.4942 100.063 94.8192 99.6516 94.9059C99.24 95.0142 97.2683 94.6025 92.8266 93.4542C89.4033 92.5875 86.5 91.8509 86.37 91.8509C86.2183 91.8509 86.2616 92.7392 86.5433 94.6025C86.7816 96.1409 86.9333 97.8309 86.89 98.3725L86.825 99.3692L94.2566 101.363C98.655 102.554 102.122 103.356 102.75 103.378C104.093 103.378 104.895 102.988 105.437 102.034C105.87 101.319 105.892 100.864 105.957 94.7325C106.108 82.7725 105.567 79.2625 102.88 74.6259C101.797 72.7625 98.6333 69.5342 96.575 68.1475C95.7516 67.6059 95.015 67.1509 94.95 67.1509C94.9066 67.1509 93.2816 68.7109 91.375 70.6175ZM63.295 68.2559C61.4966 69.4692 59.135 71.7442 57.9866 73.3259C56.73 75.1025 55.4083 77.9192 54.8666 80.0425C54.2166 82.5775 53.9566 87.2575 54.0433 94.7109C54.1083 100.474 54.1516 101.363 54.4983 101.969C54.9966 102.879 55.9716 103.378 57.25 103.378C58.29 103.356 72.4166 99.6942 72.4166 99.4342C72.4166 99.3692 71.6583 99.1092 70.7483 98.8925C69.8383 98.6542 68.755 98.2642 68.365 97.9825C67.9533 97.7009 67.4983 97.4842 67.325 97.4842C66.5233 97.4842 64.53 96.4875 63.555 95.6209C62.515 94.6892 62.4283 94.6459 61.6916 94.8625C60.76 95.1009 59.7416 94.8192 59.4166 94.2342C59.135 93.7142 59.135 92.5875 59.4166 92.0675C59.525 91.8509 59.915 91.5692 60.2616 91.4609L60.9116 91.2225L60.9766 86.9109L61.0416 82.5775L61.6916 81.6459C62.06 81.1259 62.775 80.4109 63.2733 80.0425C64.075 79.5009 64.4433 79.3925 65.83 79.3275C67.91 79.2192 69.0366 79.6309 70.2283 80.9092C70.705 81.4292 71.3766 82.4259 71.745 83.1409C72.3733 84.3975 72.4383 84.4625 73.5216 84.6792C74.15 84.8092 74.6916 84.8742 74.7566 84.8092C74.8216 84.7442 75.19 82.4909 75.58 79.7609L76.295 74.8425L75.58 74.1059C74.865 73.4125 74.8216 73.3909 74.345 73.7375C74.0633 73.9325 73.4566 74.0842 72.98 74.0842C72.1566 74.0842 71.9616 73.9325 68.6466 70.6175C66.7183 68.7109 65.0283 67.1942 64.8766 67.2592C64.725 67.3025 64.01 67.7575 63.295 68.2559ZM116.443 68.4509C114.493 69.0575 111.417 69.0359 109.293 68.4075L107.712 67.9525L106.477 68.5375C105.783 68.8625 105.003 69.3175 104.722 69.5125L104.202 69.9025L105.502 71.8525C106.997 74.0842 107.972 76.3159 108.773 79.2625C109.272 81.1909 109.337 81.7542 109.423 87.2575L109.51 93.1942L116.14 93.1075C121.817 93.0209 122.943 92.9559 123.81 92.6309C125.305 92.0675 126.952 90.4859 127.688 88.9259C128.295 87.6692 128.317 87.5175 128.317 84.1375C128.317 81.3859 128.23 80.3025 127.905 79.0025C127.082 75.8392 125.132 72.6975 122.748 70.7259C121.318 69.5559 118.718 68.0392 118.133 68.0175C117.96 68.0175 117.18 68.2125 116.443 68.4509ZM50.5767 68.4509C48.6267 69.0575 45.55 69.0359 43.405 68.4075L41.8017 67.9309L40.2633 68.7325C36.255 70.7909 33.2217 74.5825 32.1167 78.9375C31.9 79.7825 31.6617 81.5375 31.575 82.8592C31.315 87.0842 32.0083 89.4025 34.0667 91.2659C35.9083 92.9342 36.2767 92.9992 43.73 93.1075L50.2516 93.1942L50.3817 88.1242C50.5333 82.5775 50.8367 80.2592 51.8333 77.2909C52.6133 74.9509 53.3066 73.5642 54.6933 71.5059C55.3433 70.5742 55.69 69.8375 55.5816 69.7292C55.235 69.3825 52.5916 68.0175 52.2666 68.0175C52.0933 68.0175 51.3133 68.2125 50.5767 68.4509ZM78.31 69.8159L77.4 70.7475L78.7216 71.8959L80.0433 73.0659L81.2566 71.8525L82.47 70.6175L81.625 69.7509C80.4333 68.5159 79.5666 68.5375 78.31 69.8159ZM78.2016 87.5609L76.7716 97.5925L78.375 99.2175L80 100.843L81.625 99.2175L83.2283 97.5925L81.7983 87.5609C80.5633 78.9809 80.3033 77.5509 80 77.5509C79.6966 77.5509 79.4366 78.9809 78.2016 87.5609ZM92.805 83.3792C92.1766 84.0075 91.83 84.7875 91.1583 86.9325C90.8116 88.0159 90.6383 88.9259 90.7466 89.0125C90.855 89.1209 91.9383 89.4459 93.1516 89.7275L95.3833 90.2909V87.0625C95.3833 84.1159 95.34 83.7909 94.95 83.4009C94.4083 82.8592 93.3466 82.8375 92.805 83.3792ZM65.05 83.4009C64.66 83.7909 64.6166 84.1159 64.6166 87.3009C64.6166 91.0059 64.8116 91.8292 65.8733 92.7825C66.285 93.1509 66.285 93.1292 66.4366 91.9592C66.61 90.4425 67.4333 88.2325 68.3 86.9759L68.9716 86.0225L68.3 84.7225C67.9533 84.0075 67.4766 83.3359 67.2816 83.2059C66.6316 82.8375 65.5266 82.9242 65.05 83.4009ZM71.7016 88.7525C70.7266 89.7925 70.1633 91.3525 70.1416 93.0859C70.1416 93.9309 70.2066 94.6892 70.2933 94.7759C70.38 94.8625 71.0733 95.1225 71.8533 95.3175L73.2616 95.7075L73.37 95.1442C73.435 94.8192 73.63 93.4325 73.825 92.0675C73.9983 90.7025 74.215 89.3592 74.2583 89.1209C74.3666 88.6659 74.1283 88.5575 72.395 88.1892C72.33 88.1892 72.0266 88.4275 71.7016 88.7525Z"/>
</mask>
<path d="M84.6583 15.6059C85.6116 15.8442 87.3666 16.5159 88.5583 17.0792C92.415 18.9642 95.2533 21.8026 97.1383 25.6592C98.4166 28.2809 98.98 30.6426 99.1966 34.1092L99.3483 36.7092L100.475 37.8359C102.902 40.1976 103.313 44.0326 101.45 46.8276C100.15 48.7776 98.135 49.8176 95.6433 49.8176H94.1916L93.5633 50.9226C92.87 52.1792 90.2266 55.0609 89.2733 55.6242C88.71 55.9492 88.6666 56.0792 88.6666 57.2276C88.6666 58.2026 88.7316 58.4842 88.9916 58.4842C89.165 58.4842 91.0716 59.3509 93.2166 60.4342C96.575 62.1026 97.1383 62.4709 97.2683 62.9692C97.355 63.3159 97.3983 63.7275 97.3766 63.9009C97.355 64.0959 97.6366 64.4209 98.005 64.6376C98.3733 64.8542 99.305 65.5042 100.063 66.0892L101.45 67.1292L102.75 66.3275C103.465 65.8942 104.05 65.4176 104.05 65.2876C104.05 65.1576 103.855 64.8759 103.617 64.6592C102.815 63.9442 101.84 62.1676 101.32 60.5426C100.692 58.5276 100.605 55.3209 101.147 53.4792C101.948 50.7276 103.812 48.1492 106.173 46.5242C106.715 46.1342 107.95 45.5709 108.903 45.2242C112.348 44.0326 116.768 44.5526 119.607 46.4809C122.012 48.0842 123.528 50.0342 124.46 52.7209C125.305 55.1692 125.327 58.1809 124.503 60.6076C123.94 62.3192 123.008 63.9659 122.25 64.6592C122.012 64.8759 121.817 65.1576 121.817 65.2876C121.817 65.4176 122.358 65.8726 123.052 66.2626C123.723 66.6742 125.002 67.6925 125.89 68.5375C128.512 71.0292 130.05 73.4775 131.263 77.1175C131.87 78.9159 131.87 79.0675 131.892 83.8342C131.892 88.4492 131.87 88.7742 131.393 89.9659C130.245 92.8259 127.732 95.1659 124.828 96.1625C123.55 96.5959 123.03 96.6175 116.465 96.6175H109.467V99.1742C109.467 102.338 109.142 103.551 107.928 104.938C106.585 106.454 105.632 106.866 103.183 106.974C101.125 107.061 101.082 107.039 92.5016 104.743L83.8566 102.424L82.3833 103.854C81.04 105.154 80.8233 105.284 80 105.284C79.1766 105.284 78.96 105.154 77.6166 103.854L76.1216 102.424L67.4983 104.743C58.8966 107.061 58.875 107.061 56.8167 106.974C54.3683 106.866 53.415 106.454 52.0716 104.938C50.9233 103.638 50.555 102.338 50.3817 99.1742L50.2516 96.6392L42.9717 96.5742L35.6917 96.5092L34.0667 95.7075C32.03 94.7109 30.8817 93.7359 29.755 92.0459C28.3033 89.8575 28 88.5359 28 84.1592C28 79.3709 28.4767 77.0309 30.0583 73.8675C31.4667 71.0509 34.4567 67.7575 36.9483 66.2626C37.6417 65.8726 38.1833 65.4176 38.1833 65.2876C38.1833 65.1576 37.9883 64.8759 37.75 64.6592C37.5117 64.4426 37.0133 63.7925 36.645 63.2076C34.8467 60.4126 34.3917 56.0576 35.54 52.7209C36.4717 50.0342 37.9883 48.0842 40.3933 46.4809C43.2317 44.5526 47.6517 44.0326 51.0966 45.2242C54.0216 46.2426 56.3833 48.2576 57.77 50.8792C58.875 53.0026 59.2 54.3676 59.2 56.8159C59.2 58.5276 59.0916 59.2642 58.6366 60.6076C58.0733 62.3192 57.1416 63.9659 56.3833 64.6592C56.145 64.8759 55.95 65.1576 55.95 65.2876C55.95 65.4176 56.535 65.8942 57.25 66.3275L58.55 67.1292L59.9366 66.0892C60.695 65.5042 61.6266 64.8542 61.995 64.6376C62.5366 64.3126 62.6666 64.0959 62.6666 63.5326C62.6666 63.1209 62.84 62.6442 63.0566 62.4276C63.2733 62.2326 65.1583 61.2359 67.26 60.2176L71.095 58.3759V57.1842C71.1166 55.9926 71.1166 55.9709 69.9683 55.0176C68.625 53.8909 67.13 52.1359 66.3716 50.8142L65.83 49.8609L64.075 49.7742C61.3233 49.6659 59.2433 48.3226 58.0733 45.9609C57.4883 44.7476 57.2933 42.1909 57.6833 40.8476C58.03 39.6559 59.2433 37.9009 60.175 37.2726L60.9333 36.7526V34.1309C60.9333 30.7942 61.4533 28.5626 62.8833 25.6592C64.79 21.7809 67.6283 18.9426 71.4416 17.0792C74.4533 15.6276 76.5766 15.1509 80.1083 15.1726C82.1233 15.1726 83.4233 15.3026 84.6583 15.6059ZM74.8216 19.6576C72.5683 20.5026 71.1816 21.3692 69.405 23.0592C66.3716 25.9192 64.855 29.2992 64.66 33.5459L64.5516 36.0159L65.9383 35.8642C68.6033 35.5609 70.25 34.4342 71.1383 32.2892C71.3766 31.7476 71.7233 31.1626 71.9183 31.0109C72.5033 30.5776 73.565 30.7076 75.2766 31.4009C78.31 32.6142 81.6033 32.6142 84.68 31.4226C87.3883 30.3609 88.1033 30.5126 88.8616 32.2892C89.7716 34.4776 91.44 35.5826 94.17 35.8642L95.6433 36.0159L95.5133 33.9792C95.1666 29.3642 93.845 26.3092 90.9416 23.3626C89.4033 21.8242 87.8216 20.7192 86.045 20.0042C83.5316 18.9859 82.665 18.8342 79.5666 18.8992C76.9233 18.9642 76.4683 19.0509 74.8216 19.6576ZM79.5666 35.8859C77.4216 35.8209 76.295 35.6909 75.2983 35.3659C74.02 34.9326 73.9333 34.9326 73.825 35.3009C73.4566 36.4492 69.6216 39.2009 68.4083 39.2009C67.9533 39.2009 67.9533 44.2492 68.4083 46.0259C69.4483 50.0126 72.8716 53.3926 76.9666 54.4759C77.6166 54.6492 78.9816 54.8009 80 54.8009C83.3583 54.8009 86.11 53.6742 88.45 51.3342C90.92 48.8642 91.83 46.5459 92.0683 42.1909C92.1983 39.5909 92.1766 39.4176 91.7866 39.2876C89.8366 38.6592 88.8833 38.1176 87.67 36.9692C86.9116 36.2759 86.24 35.5392 86.175 35.3226C86.0666 34.9542 85.9583 34.9759 84.2683 35.4526C82.6866 35.9292 82.1883 35.9726 79.5666 35.8859ZM95.73 40.7609C95.665 41.3892 95.5783 42.8842 95.535 44.0976L95.47 46.2859L96.185 46.1126C99.1533 45.4626 99.8466 41.6276 97.29 40.0676C96.12 39.3526 95.86 39.4826 95.73 40.7609ZM62.71 40.0676C60.11 41.6492 60.8466 45.4626 63.88 46.1342L64.66 46.3076L64.53 45.6576C64.465 45.2892 64.4 43.7942 64.4 42.3209C64.4 39.6776 64.4 39.6342 63.9016 39.6342C63.6416 39.6342 63.1 39.8292 62.71 40.0676ZM109.207 49.1242C107.495 49.9476 105.978 51.5076 105.177 53.2409C104.657 54.3242 104.592 54.7359 104.592 56.7509C104.592 58.7659 104.657 59.1559 105.177 60.2826C105.935 61.8859 107.798 63.7492 109.402 64.5075C110.528 65.0275 110.918 65.0926 112.933 65.0926C114.948 65.0926 115.338 65.0275 116.465 64.5075C118.068 63.7492 119.932 61.8859 120.69 60.2826C121.21 59.1559 121.275 58.7659 121.275 56.7509C121.275 54.7359 121.21 54.3242 120.69 53.2409C119.672 51.0742 117.722 49.3409 115.468 48.6042C114.905 48.4092 113.822 48.3226 112.587 48.3659C110.875 48.4092 110.42 48.5176 109.207 49.1242ZM43.34 49.1242C41.6283 49.9476 40.1117 51.5076 39.31 53.2409C38.79 54.3242 38.725 54.7359 38.725 56.7509C38.725 58.7659 38.79 59.1559 39.31 60.2826C40.0683 61.8859 41.9317 63.7492 43.535 64.5075C44.6617 65.0275 45.0517 65.0926 47.0667 65.0926C49.06 65.0926 49.4933 65.0275 50.5333 64.5292C52.31 63.7059 53.87 62.1676 54.6933 60.4776C55.365 59.1342 55.4083 58.8959 55.4083 56.7509C55.4083 54.7359 55.3433 54.3242 54.8233 53.2409C53.805 51.0742 51.855 49.3409 49.6017 48.6042C49.0383 48.4092 47.955 48.3226 46.72 48.3659C45.0083 48.4092 44.5533 48.5176 43.34 49.1242ZM83.575 58.1592C82.86 58.3326 81.2566 58.4842 80 58.4842C78.7433 58.4842 77.14 58.3326 76.425 58.1592C75.71 57.9859 75.06 57.8559 74.9516 57.8342C74.865 57.8342 74.8 58.5492 74.8 59.4159V60.9759L77.0316 63.2076C80.0216 66.1975 80 66.1976 82.99 63.1859L85.2 60.9759V59.3942C85.2 58.5492 85.135 57.8342 85.0266 57.8342C84.94 57.8559 84.29 57.9859 83.575 58.1592ZM86.7166 64.8759L84.4416 67.1509L85.6983 68.3859L86.9333 69.6425L89.685 66.8909L92.415 64.1609L90.92 63.3809C90.0966 62.9692 89.3166 62.6226 89.2083 62.6009C89.0783 62.6009 87.9733 63.6192 86.7166 64.8759ZM69.1233 63.3809L67.585 64.1609L70.315 66.8909L73.0666 69.6425L74.3016 68.3859L75.5583 67.1509L73.2833 64.8759C72.0266 63.6192 70.9433 62.6009 70.835 62.6009C70.7483 62.6009 69.9683 62.9476 69.1233 63.3809ZM91.375 70.6175C88.0383 73.9325 87.8433 74.0842 87.02 74.0842C86.5433 74.0842 85.9366 73.9325 85.655 73.7375C85.1783 73.3909 85.135 73.4125 84.42 74.1059L83.705 74.8425L84.5716 81.0175C85.0483 84.4192 85.5033 87.3442 85.6116 87.4959C85.6983 87.6692 86.0233 87.8859 86.3266 87.9725C86.8466 88.1025 86.89 88.0375 87.5833 85.9142C89.2083 80.9092 90.7466 79.2625 93.845 79.2625C95.9466 79.2409 97.7233 80.3459 98.6116 82.1875C99.0233 83.0109 99.0666 83.5092 99.0666 87.1275V91.1575L99.8683 91.5692C100.93 92.0892 101.19 92.8692 100.648 93.9525C100.388 94.4942 100.063 94.8192 99.6516 94.9059C99.24 95.0142 97.2683 94.6025 92.8266 93.4542C89.4033 92.5875 86.5 91.8509 86.37 91.8509C86.2183 91.8509 86.2616 92.7392 86.5433 94.6025C86.7816 96.1409 86.9333 97.8309 86.89 98.3725L86.825 99.3692L94.2566 101.363C98.655 102.554 102.122 103.356 102.75 103.378C104.093 103.378 104.895 102.988 105.437 102.034C105.87 101.319 105.892 100.864 105.957 94.7325C106.108 82.7725 105.567 79.2625 102.88 74.6259C101.797 72.7625 98.6333 69.5342 96.575 68.1475C95.7516 67.6059 95.015 67.1509 94.95 67.1509C94.9066 67.1509 93.2816 68.7109 91.375 70.6175ZM63.295 68.2559C61.4966 69.4692 59.135 71.7442 57.9866 73.3259C56.73 75.1025 55.4083 77.9192 54.8666 80.0425C54.2166 82.5775 53.9566 87.2575 54.0433 94.7109C54.1083 100.474 54.1516 101.363 54.4983 101.969C54.9966 102.879 55.9716 103.378 57.25 103.378C58.29 103.356 72.4166 99.6942 72.4166 99.4342C72.4166 99.3692 71.6583 99.1092 70.7483 98.8925C69.8383 98.6542 68.755 98.2642 68.365 97.9825C67.9533 97.7009 67.4983 97.4842 67.325 97.4842C66.5233 97.4842 64.53 96.4875 63.555 95.6209C62.515 94.6892 62.4283 94.6459 61.6916 94.8625C60.76 95.1009 59.7416 94.8192 59.4166 94.2342C59.135 93.7142 59.135 92.5875 59.4166 92.0675C59.525 91.8509 59.915 91.5692 60.2616 91.4609L60.9116 91.2225L60.9766 86.9109L61.0416 82.5775L61.6916 81.6459C62.06 81.1259 62.775 80.4109 63.2733 80.0425C64.075 79.5009 64.4433 79.3925 65.83 79.3275C67.91 79.2192 69.0366 79.6309 70.2283 80.9092C70.705 81.4292 71.3766 82.4259 71.745 83.1409C72.3733 84.3975 72.4383 84.4625 73.5216 84.6792C74.15 84.8092 74.6916 84.8742 74.7566 84.8092C74.8216 84.7442 75.19 82.4909 75.58 79.7609L76.295 74.8425L75.58 74.1059C74.865 73.4125 74.8216 73.3909 74.345 73.7375C74.0633 73.9325 73.4566 74.0842 72.98 74.0842C72.1566 74.0842 71.9616 73.9325 68.6466 70.6175C66.7183 68.7109 65.0283 67.1942 64.8766 67.2592C64.725 67.3025 64.01 67.7575 63.295 68.2559ZM116.443 68.4509C114.493 69.0575 111.417 69.0359 109.293 68.4075L107.712 67.9525L106.477 68.5375C105.783 68.8625 105.003 69.3175 104.722 69.5125L104.202 69.9025L105.502 71.8525C106.997 74.0842 107.972 76.3159 108.773 79.2625C109.272 81.1909 109.337 81.7542 109.423 87.2575L109.51 93.1942L116.14 93.1075C121.817 93.0209 122.943 92.9559 123.81 92.6309C125.305 92.0675 126.952 90.4859 127.688 88.9259C128.295 87.6692 128.317 87.5175 128.317 84.1375C128.317 81.3859 128.23 80.3025 127.905 79.0025C127.082 75.8392 125.132 72.6975 122.748 70.7259C121.318 69.5559 118.718 68.0392 118.133 68.0175C117.96 68.0175 117.18 68.2125 116.443 68.4509ZM50.5767 68.4509C48.6267 69.0575 45.55 69.0359 43.405 68.4075L41.8017 67.9309L40.2633 68.7325C36.255 70.7909 33.2217 74.5825 32.1167 78.9375C31.9 79.7825 31.6617 81.5375 31.575 82.8592C31.315 87.0842 32.0083 89.4025 34.0667 91.2659C35.9083 92.9342 36.2767 92.9992 43.73 93.1075L50.2516 93.1942L50.3817 88.1242C50.5333 82.5775 50.8367 80.2592 51.8333 77.2909C52.6133 74.9509 53.3066 73.5642 54.6933 71.5059C55.3433 70.5742 55.69 69.8375 55.5816 69.7292C55.235 69.3825 52.5916 68.0175 52.2666 68.0175C52.0933 68.0175 51.3133 68.2125 50.5767 68.4509ZM78.31 69.8159L77.4 70.7475L78.7216 71.8959L80.0433 73.0659L81.2566 71.8525L82.47 70.6175L81.625 69.7509C80.4333 68.5159 79.5666 68.5375 78.31 69.8159ZM78.2016 87.5609L76.7716 97.5925L78.375 99.2175L80 100.843L81.625 99.2175L83.2283 97.5925L81.7983 87.5609C80.5633 78.9809 80.3033 77.5509 80 77.5509C79.6966 77.5509 79.4366 78.9809 78.2016 87.5609ZM92.805 83.3792C92.1766 84.0075 91.83 84.7875 91.1583 86.9325C90.8116 88.0159 90.6383 88.9259 90.7466 89.0125C90.855 89.1209 91.9383 89.4459 93.1516 89.7275L95.3833 90.2909V87.0625C95.3833 84.1159 95.34 83.7909 94.95 83.4009C94.4083 82.8592 93.3466 82.8375 92.805 83.3792ZM65.05 83.4009C64.66 83.7909 64.6166 84.1159 64.6166 87.3009C64.6166 91.0059 64.8116 91.8292 65.8733 92.7825C66.285 93.1509 66.285 93.1292 66.4366 91.9592C66.61 90.4425 67.4333 88.2325 68.3 86.9759L68.9716 86.0225L68.3 84.7225C67.9533 84.0075 67.4766 83.3359 67.2816 83.2059C66.6316 82.8375 65.5266 82.9242 65.05 83.4009ZM71.7016 88.7525C70.7266 89.7925 70.1633 91.3525 70.1416 93.0859C70.1416 93.9309 70.2066 94.6892 70.2933 94.7759C70.38 94.8625 71.0733 95.1225 71.8533 95.3175L73.2616 95.7075L73.37 95.1442C73.435 94.8192 73.63 93.4325 73.825 92.0675C73.9983 90.7025 74.215 89.3592 74.2583 89.1209C74.3666 88.6659 74.1283 88.5575 72.395 88.1892C72.33 88.1892 72.0266 88.4275 71.7016 88.7525Z" fill="#F1F1F1" stroke="#3E2BC5" stroke-width="1.4" mask="url(#path-7-inside-1_346_275)"/>
<path d="M111.896 29.6315L111.896 29.6315L111.901 29.6279C112.152 29.45 112.569 29.3529 113.007 29.3725C113.452 29.3924 113.815 29.5268 113.986 29.6982C114.123 29.8353 114.197 29.9523 114.245 30.1959C114.299 30.4708 114.317 30.8857 114.317 31.6174C114.317 32.3491 114.299 32.7641 114.245 33.0389C114.197 33.2825 114.123 33.3995 113.986 33.5366C113.784 33.7382 113.387 33.8731 112.934 33.8756C112.48 33.878 112.091 33.7466 111.903 33.5583C111.75 33.4058 111.61 33.1266 111.51 32.7408C111.413 32.3633 111.365 31.9202 111.369 31.4796C111.372 31.0384 111.428 30.6146 111.53 30.2742C111.636 29.9203 111.774 29.7148 111.896 29.6315Z" fill="#07BCFF" stroke="#3E2BC5" stroke-width="0.7"/>
<path d="M37.7191 29.6984C37.8561 29.8354 37.9297 29.9524 37.978 30.196C38.0325 30.4709 38.0499 30.8858 38.0499 31.6175C38.0499 32.1307 38.0283 32.5319 37.9784 32.8464C37.9283 33.162 37.8531 33.3668 37.762 33.5034C37.6043 33.74 37.332 33.8675 36.6666 33.8675C36.0011 33.8675 35.7288 33.74 35.5711 33.5034C35.4801 33.3668 35.4048 33.162 35.3547 32.8464C35.3048 32.5319 35.2832 32.1307 35.2832 31.6175C35.2832 31.1044 35.3048 30.7031 35.3547 30.3887C35.4048 30.073 35.4801 29.8683 35.5711 29.7317C35.7288 29.4951 36.0011 29.3675 36.6666 29.3675C37.1954 29.3675 37.5251 29.5044 37.7191 29.6984Z" fill="#07BCFF" stroke="#3E2BC5" stroke-width="0.7"/>
<path d="M122.296 31.3649L122.296 31.3649L122.301 31.3613C122.551 31.1834 122.968 31.0863 123.407 31.1059C123.852 31.1258 124.214 31.2602 124.386 31.4316C124.523 31.5687 124.596 31.6857 124.645 31.9293C124.699 32.2041 124.717 32.6191 124.717 33.3508C124.717 34.0825 124.699 34.4975 124.645 34.7723C124.596 35.0159 124.523 35.1329 124.386 35.27C124.184 35.4716 123.787 35.6065 123.334 35.609C122.879 35.6114 122.491 35.48 122.302 35.2917C122.15 35.1392 122.009 34.86 121.91 34.4742C121.813 34.0967 121.765 33.6536 121.769 33.213C121.772 32.7718 121.828 32.348 121.93 32.0076C122.036 31.6537 122.174 31.4482 122.296 31.3649Z" fill="#07BCFF" stroke="#3E2BC5" stroke-width="0.7"/>
<path d="M48.1192 31.4315C48.2563 31.5686 48.3299 31.6856 48.3782 31.9292C48.4327 32.204 48.45 32.619 48.45 33.3507C48.45 33.8638 48.4285 34.2651 48.3785 34.5796C48.3284 34.8952 48.2532 35.1 48.1622 35.2365C48.0045 35.4731 47.7321 35.6007 47.0667 35.6007C46.4013 35.6007 46.129 35.4731 45.9713 35.2365C45.8802 35.1 45.805 34.8952 45.7549 34.5796C45.705 34.2651 45.6834 33.8638 45.6834 33.3507C45.6834 32.8375 45.705 32.4363 45.7549 32.1218C45.805 31.8062 45.8802 31.6014 45.9713 31.4648C46.129 31.2283 46.4013 31.1007 47.0667 31.1007C47.5956 31.1007 47.9252 31.2375 48.1192 31.4315Z" fill="#07BCFF" stroke="#3E2BC5" stroke-width="0.7"/>
<path d="M117.096 36.5648L117.096 36.5649L117.101 36.5612C117.351 36.3834 117.769 36.2862 118.207 36.3058C118.652 36.3257 119.014 36.4602 119.186 36.6316C119.323 36.7687 119.397 36.8857 119.445 37.1293C119.499 37.4041 119.517 37.8191 119.517 38.5508C119.517 39.2825 119.499 39.6974 119.445 39.9723C119.397 40.2159 119.323 40.3329 119.186 40.47C118.984 40.6715 118.587 40.8065 118.134 40.8089C117.679 40.8114 117.291 40.68 117.103 40.4916C116.95 40.3391 116.81 40.06 116.71 39.6742C116.613 39.2966 116.565 38.8536 116.569 38.413C116.572 37.9717 116.628 37.548 116.73 37.2075C116.836 36.8537 116.974 36.6481 117.096 36.5648Z" fill="#07BCFF" stroke="#3E2BC5" stroke-width="0.7"/>
<path d="M42.9193 36.6317C43.0563 36.7688 43.1299 36.8858 43.1782 37.1294C43.2327 37.4042 43.2501 37.8192 43.2501 38.5509C43.2501 39.064 43.2285 39.4653 43.1786 39.7798C43.1285 40.0954 43.0533 40.3002 42.9622 40.4367C42.8045 40.6733 42.5322 40.8009 41.8668 40.8009C41.2013 40.8009 40.929 40.6733 40.7713 40.4367C40.6803 40.3002 40.605 40.0954 40.5549 39.7798C40.505 39.4653 40.4834 39.064 40.4834 38.5509C40.4834 38.0377 40.505 37.6365 40.5549 37.322C40.605 37.0064 40.6803 36.8016 40.7713 36.665C40.929 36.4285 41.2013 36.3009 41.8668 36.3009C42.3956 36.3009 42.7253 36.4377 42.9193 36.6317Z" fill="#07BCFF" stroke="#3E2BC5" stroke-width="0.7"/>
</g>
</svg>
