<svg width="126" height="190" viewBox="0 0 126 190" fill="none" xmlns="http://www.w3.org/2000/svg">
<path d="M98.8398 173.236L88.0703 150.891C85.7525 146.117 82.7562 142.642 77.5835 144.761L67.3793 148.546C59.2103 152.331 55.1399 148.546 51.0413 142.84L32.6681 101.059C30.3503 96.2845 31.5657 91.7929 36.7385 89.6742L51.013 83.9678C56.1858 81.8208 58.3004 77.7498 55.9825 72.9757L52.4836 61.3127L48.9847 49.6496C46.6668 44.8755 33.7422 43.8819 28.5695 46.0006C18.224 50.2663 9.65924 56.9614 4.09075 66.8769C-2.69319 78.9959 0.698785 95.8608 2.05557 102.951C3.41236 110.042 8.16112 122.472 14.2949 135.212C20.4287 147.981 25.7994 158.01 30.6329 163.688C35.4382 169.366 46.9709 184.903 61.2455 188.378C72.9478 191.203 85.5829 188.83 95.9284 184.564C101.129 182.53 101.129 178.038 98.8398 173.236Z" fill="#07BCFF"/>
<g clip-path="url(#clip0_373_22)">
<path d="M68.3095 1.498C94.9142 10.6607 112.264 38.5135 109.317 66.226C108.908 70.0729 108.274 73.8683 107.092 77.5668C106.472 79.509 105.866 81.4968 103.215 80.6543C100.751 79.8712 101.385 78.0276 101.859 76.1576C107.695 53.0868 101.998 33.3603 84.49 17.1843C79.2371 12.3326 72.9821 9.02646 66.3121 6.51862C64.3747 5.79314 61.9849 5.34141 63.0658 2.49653C64.1242 -0.277644 66.3287 0.857069 68.2611 1.48255C68.5699 1.5812 68.875 1.67866 68.3095 1.498Z" fill="url(#paint0_linear_373_22)"/>
<path d="M93.2188 72.1703C93.0227 72.7842 92.808 73.3922 92.6305 74.0121C92.1081 75.8914 90.8716 76.784 89.0182 76.155C87.3124 75.5773 86.9799 74.1794 87.4613 72.4798C88.897 67.3946 89.7213 62.2084 89.1522 56.9297C87.2404 39.1667 77.8116 27.0929 61.277 20.4867C60.0802 20.0101 58.7523 19.7254 58.3547 18.2616C57.7394 15.9902 59.8067 14.3707 62.4138 15.2076C72.0186 18.2839 79.7679 24.0109 85.6292 32.1569C94.3544 44.2767 96.6662 57.6938 93.2151 72.1691L93.2188 72.1703Z" fill="url(#paint1_linear_373_22)"/>
<path d="M61.5774 33.3649C76.1609 38.9419 84.4651 55.6017 80.1023 69.9785C79.5389 71.8323 78.9212 73.7017 76.491 73.0812C74.1067 72.4713 74.3439 70.7018 74.8276 68.6995C77.9359 55.7467 71.5823 43.019 59.7664 38.4697C57.7393 37.691 55.6007 36.9791 56.6775 34.2887C57.8153 31.4456 60.0233 32.9669 61.5811 33.3661L61.5774 33.3649Z" fill="url(#paint2_linear_373_22)"/>
</g>
<defs>
<linearGradient id="paint0_linear_373_22" x1="94.6989" y1="9.90309" x2="74.9799" y2="71.635" gradientUnits="userSpaceOnUse">
<stop offset="1" stop-color="#A722F4"/>
</linearGradient>
<linearGradient id="paint1_linear_373_22" x1="83.0272" y1="21.7922" x2="67.8243" y2="69.3858" gradientUnits="userSpaceOnUse">
<stop offset="1" stop-color="#A722F4"/>
</linearGradient>
<linearGradient id="paint2_linear_373_22" x1="73.2024" y1="37.0533" x2="63.0615" y2="68.8001" gradientUnits="userSpaceOnUse">
<stop offset="1" stop-color="#A722F4"/>
</linearGradient>
<clipPath id="clip0_373_22">
<rect width="64.9378" height="65.7268" fill="white" transform="translate(63.6992) rotate(17.7151)"/>
</clipPath>
</defs>
</svg>
