<svg width="123" height="50" viewBox="0 0 123 50" fill="none" xmlns="http://www.w3.org/2000/svg">
<g clip-path="url(#clip0_365_827)">
<path d="M46.8039 11.4215C47.0993 10.5413 47.5726 9.74517 48.0831 8.9743C48.8977 7.7381 49.8929 6.65328 51.023 5.68058C52.394 4.50044 53.9543 3.63987 55.6494 3.00075C56.3091 2.75127 56.9831 2.56065 57.6772 2.41208C58.7184 2.19063 59.7624 2.02805 60.8293 2.00002C61.1592 1.99161 61.3456 2.08692 61.5349 2.36443C62.4585 3.71836 63.4193 5.04426 64.3515 6.39258C64.8333 7.09057 65.275 7.81379 65.7741 8.50337C65.8917 8.66876 65.9548 8.69399 66.1269 8.57625C66.8984 8.05206 67.6786 7.53908 68.4587 7.0261C69.1987 6.53835 69.9445 6.0534 70.6816 5.56004C70.868 5.4367 71.0143 5.45633 71.1778 5.59648C71.6051 5.9665 72.0153 6.35614 72.4111 6.757C72.6807 7.03171 72.6692 7.09898 72.3509 7.30642C71.6453 7.76333 70.934 8.21745 70.2284 8.67436C68.6853 9.67229 67.1451 10.6702 65.6049 11.6681C65.3066 11.8616 65.2435 11.8504 65.0169 11.5392C63.7434 9.80404 62.4728 8.06327 61.1965 6.32811C60.5052 5.38625 59.7796 4.46681 59.1342 3.4913C58.9765 3.25303 58.9507 3.25303 58.704 3.42403C57.508 4.24816 56.3263 5.09472 55.1102 5.89082C53.9715 6.63646 52.8529 7.41294 51.7286 8.1782C50.2113 9.20977 48.6912 10.2413 47.1768 11.2757C47.0592 11.357 46.953 11.4383 46.801 11.4187L46.8068 11.4243L46.8039 11.4215Z" fill="#939697"/>
<path d="M50.3318 16.4221C50.3777 16.3576 50.4408 16.3268 50.5182 16.3156C50.6158 16.3156 50.6817 16.2735 50.7018 16.1726C50.7334 16.1586 50.7678 16.1474 50.7993 16.1334C50.8251 16.111 50.8538 16.0885 50.8796 16.0661C50.9026 16.0437 50.9313 16.0325 50.9628 16.0325C51.1378 16.0157 51.2984 15.982 51.3471 15.7802C51.8061 15.4018 52.3338 15.1158 52.8329 14.7963C54.3645 13.8124 55.9076 12.8481 57.4478 11.8754C57.5138 11.8333 57.5769 11.7941 57.6428 11.7548C57.8206 11.6483 57.9411 11.6848 58.0616 11.8642C58.5979 12.6715 59.1544 13.4648 59.6993 14.2665C60.772 15.8447 61.8447 17.4228 62.9146 19.0038C63.1612 19.3682 63.4022 19.7355 63.6459 20.0999C63.8439 20.397 63.8783 20.4082 64.1794 20.226C64.9395 19.7663 65.6938 19.3038 66.4482 18.8384C66.7092 18.6787 66.7092 18.6562 66.5772 18.3647C66.4826 18.1601 66.3851 17.9554 66.2818 17.7536C66.2015 17.5938 66.2675 17.5294 66.4281 17.521C66.5055 17.5182 66.583 17.5182 66.6604 17.5153C67.8966 17.4957 69.1328 17.5154 70.369 17.4341C70.4923 17.4256 70.6157 17.4256 70.739 17.4285C70.9139 17.4341 70.957 17.5294 70.8824 17.6695C70.7562 17.9106 70.6214 18.1489 70.4837 18.3815C70.1223 18.9926 69.7523 19.6009 69.3881 20.212C69.2877 20.2372 69.259 20.3073 69.259 20.3998C69.1701 20.6633 68.9808 20.8763 68.8517 21.1202C68.7399 21.1398 68.6997 21.2099 68.7054 21.3136V21.3108C68.6165 21.3108 68.5247 21.3052 68.4358 21.3024C68.2465 21.081 68.0572 20.8595 67.8679 20.6409C67.7905 20.4587 67.6987 20.4194 67.5811 20.61C67.5467 20.6269 67.5151 20.6409 67.4807 20.6577C67.3517 20.5372 67.1882 20.582 67.039 20.5792C66.3449 20.5764 65.6508 20.5792 64.9567 20.5792C64.7559 20.5792 64.5609 20.5736 64.363 20.5203C64.1249 20.4531 63.8639 20.4559 63.6287 20.5119C63.3218 20.5848 63.0178 20.5764 62.7109 20.5792C62.2319 20.5848 61.7558 20.5848 61.2768 20.5876C61.2395 20.5231 61.185 20.4951 61.1105 20.4895C61.0847 20.4727 61.0703 20.4475 61.0674 20.4166C61.0818 20.3045 61.0359 20.2344 60.9154 20.2204C60.8753 20.1615 60.8351 20.1027 60.795 20.041C60.8007 19.9345 60.7519 19.87 60.643 19.856C60.6028 19.7915 60.5626 19.727 60.5254 19.6626C60.5254 19.5673 60.4795 19.5056 60.3791 19.4916C60.3647 19.4607 60.3504 19.4327 60.3389 19.4019C60.3131 19.371 60.2873 19.3402 60.2643 19.3122L60.2557 19.2982C60.25 19.2113 60.2156 19.1468 60.1181 19.1272C60.0521 19.0487 59.9775 18.9758 59.9661 18.8665C59.9747 18.7572 59.9259 18.6927 59.8112 18.6787C59.771 18.6198 59.7309 18.5581 59.6907 18.4993C59.6964 18.3983 59.6534 18.3311 59.5444 18.3143C58.7901 17.2743 58.0329 16.2343 57.2786 15.1915C56.9631 14.7542 56.9659 14.7514 56.5128 15.0402C56.3464 15.1467 56.2001 15.2868 55.9965 15.3317C55.8818 15.3205 55.8129 15.3737 55.7928 15.4831C55.6437 15.5896 55.5118 15.7241 55.3253 15.7746C55.2995 15.797 55.2737 15.8194 55.245 15.8419C55.2221 15.8643 55.1934 15.8755 55.1618 15.8755C55.0471 15.8643 54.9783 15.9175 54.9582 16.0269C54.898 16.1082 54.8119 16.139 54.7144 16.1558C54.5882 16.1362 54.5136 16.1866 54.4964 16.31L54.4878 16.3156C54.462 16.338 54.4362 16.3604 54.4104 16.3829C54.3817 16.3941 54.353 16.4053 54.3243 16.4165C54.2125 16.4081 54.1436 16.4558 54.1264 16.5679C54.0432 16.6127 53.9601 16.6548 53.8769 16.6996C53.7536 16.6828 53.679 16.7277 53.6646 16.8538L53.6274 16.8762H53.5843C53.5327 16.8762 53.4983 16.8987 53.4753 16.9435L53.4667 16.9547C53.3663 16.9631 53.3032 17.0136 53.2918 17.1145C53.2086 17.1593 53.1254 17.2042 53.0422 17.2462C52.9189 17.2266 52.8443 17.2771 52.8271 17.4004L52.8157 17.4088C52.7898 17.4313 52.764 17.4509 52.7411 17.4733C52.7124 17.4873 52.6837 17.4985 52.655 17.5097C52.5432 17.5013 52.4743 17.5462 52.46 17.6583C52.3768 17.7032 52.2936 17.748 52.2105 17.7929C52.0871 17.7732 52.0126 17.8237 51.9954 17.9442L51.9839 17.9526C51.9581 17.9723 51.9351 17.9947 51.9093 18.0143C51.8806 18.0283 51.8491 18.0395 51.8204 18.0536C51.7085 18.0451 51.6426 18.09 51.6254 18.2021C51.5422 18.247 51.459 18.2918 51.373 18.3367C51.2496 18.3171 51.1779 18.3647 51.1578 18.488L51.1464 18.4965C51.1206 18.5161 51.0976 18.5385 51.0718 18.5581C51.0431 18.5721 51.0116 18.5834 50.9829 18.5974C50.871 18.589 50.8051 18.6338 50.7878 18.7459C50.7047 18.788 50.6244 18.8328 50.5412 18.8749C50.4207 18.8609 50.3375 18.9001 50.3232 19.0291L50.2859 19.0515L50.2429 19.0487C50.2056 19.0711 50.1683 19.0935 50.131 19.116L50.1224 19.1272C50.022 19.1384 49.9589 19.186 49.9503 19.287C49.87 19.3318 49.7868 19.3739 49.7065 19.4187C49.5861 19.4047 49.5029 19.4439 49.4886 19.5729L49.4541 19.5953L49.4111 19.5925C49.3738 19.6149 49.3365 19.6373 49.2993 19.6626L49.2907 19.6738C49.1903 19.685 49.1272 19.7327 49.1157 19.8336C48.2897 20.3774 47.4665 20.9268 46.6347 21.465C46.5515 21.5183 46.4511 21.6528 46.3163 21.5239C46.3278 21.3949 46.3594 21.2604 46.1787 21.2155C46.1442 21.0642 46.1127 20.91 46.0783 20.7586C46.0869 20.7474 46.1012 20.7334 46.0984 20.7278C46.0869 20.7082 46.0725 20.6913 46.0582 20.6745C46.0525 20.596 46.0439 20.5175 46.0381 20.4391C46.0381 20.2905 46.1242 20.1139 45.9005 20.0382C45.8947 19.9765 45.889 19.9149 45.8804 19.8532C46.018 19.6373 45.932 19.3682 46.0582 19.1468L46.0754 19.1356C46.0984 19.1244 46.1184 19.1076 46.1356 19.0851C46.1672 19.0683 46.2016 19.0515 46.2332 19.0375C46.4024 19.015 46.563 18.9842 46.6089 18.788C47.3288 18.2946 48.0516 17.8097 48.8231 17.4004C48.935 17.4088 49.0038 17.364 49.021 17.2519C49.0841 17.2126 49.1501 17.1762 49.2132 17.1369C49.3079 17.1369 49.3767 17.1005 49.3968 17.0024C49.4771 16.9379 49.5574 16.8706 49.6693 16.8594C49.8385 16.837 49.9991 16.8005 50.0421 16.6043C50.0622 16.5847 50.0851 16.5763 50.1138 16.5791C50.2343 16.5959 50.3031 16.5427 50.3232 16.4277L50.3318 16.4221Z" fill="#939697"/>
<path d="M62.0053 10.4233C62.7855 11.4885 63.5542 12.5621 64.2569 13.6778C64.2483 13.7871 64.297 13.8544 64.4089 13.8768L64.4318 13.9132L64.4605 13.9469C64.5379 14.0394 64.6383 14.1235 64.69 14.23C64.842 14.5524 64.9137 14.5496 65.2148 14.3449C66.6547 13.3638 68.0916 12.3771 69.5343 11.396C70.0277 11.0596 70.0305 11.0624 69.672 10.5635C69.5917 10.4513 69.5114 10.342 69.4339 10.2299C69.2619 9.97198 69.2791 9.91592 69.5802 9.91592C70.3403 9.91592 71.0918 9.80099 71.849 9.79819C72.5173 9.79819 73.1683 9.64681 73.8338 9.64121C73.9829 9.64121 74.1378 9.58515 74.3013 9.69167C74.2267 10.0505 73.9886 10.3392 73.8252 10.6532C73.3204 11.6174 72.7811 12.5649 72.2534 13.518C72.2161 13.5853 72.1817 13.6497 72.1387 13.7142C72.0201 13.8974 71.8853 13.902 71.7342 13.7282C71.6855 13.6694 71.6281 13.6189 71.5794 13.56C71.2237 13.134 71.2208 13.1283 70.7361 13.4255C68.6509 14.7065 66.5658 15.9932 64.4835 17.277C64.1163 17.5041 64.1135 17.5125 63.8725 17.1761C63.4853 16.6351 63.0666 16.1109 62.7511 15.5251C62.7654 15.4101 62.7195 15.3372 62.5962 15.3232C62.5589 15.2644 62.5187 15.2055 62.4815 15.1466C62.4872 15.0373 62.4384 14.9728 62.3266 14.9588C62.2807 14.8775 62.2348 14.7962 62.1918 14.7149C62.209 14.5916 62.1602 14.5187 62.0311 14.5047L62.0254 14.4991C62.0025 14.4711 61.9795 14.4458 61.9537 14.4178C61.9308 14.3954 61.9193 14.3702 61.9193 14.3393C61.9308 14.2244 61.8763 14.1571 61.7615 14.1403C61.6927 14.0982 61.6612 14.0338 61.6525 13.9581C61.6525 13.86 61.6067 13.7955 61.5034 13.7787C61.3657 13.5713 61.1621 13.4031 61.0933 13.1508C61.0933 13.0471 61.0502 12.9798 60.9384 12.963C60.8982 12.9013 60.8581 12.8396 60.8179 12.7808C60.8179 12.6854 60.7777 12.6182 60.6745 12.5986C60.1439 11.8613 59.5817 11.1437 59.1343 10.3532C59.3293 10.1738 59.5731 10.157 59.8226 10.1542C60.4709 10.1514 61.1162 10.143 61.7644 10.1402H61.7615C61.7415 10.2663 61.8017 10.3308 61.9279 10.342C61.9537 10.3728 61.9795 10.4009 62.0053 10.4317V10.4233Z" fill="#939697"/>
<path d="M48.5735 22.7072C48.6567 22.6483 48.7313 22.581 48.8403 22.567C48.9493 22.5754 49.0181 22.5277 49.0353 22.4184C49.1013 22.3792 49.1644 22.3427 49.2303 22.3035C49.3221 22.3035 49.391 22.2699 49.411 22.1746C49.4913 22.1073 49.5745 22.0456 49.6835 22.026C49.8183 22.0316 49.9416 22.0204 49.9589 21.8494C49.999 21.7905 50.0535 21.7513 50.1281 21.7429C50.3088 21.7316 50.4694 21.698 50.5153 21.4906C50.5325 21.4738 50.5526 21.4625 50.5784 21.4625C50.7017 21.485 50.7792 21.4401 50.7935 21.314C50.8509 21.2775 50.9111 21.2411 50.9685 21.2047C51.1434 21.1906 51.3012 21.1514 51.3499 20.9524C51.3671 20.9327 51.3901 20.9215 51.4188 20.9215C51.5392 20.9412 51.6138 20.8935 51.6339 20.773L51.654 20.7618C51.6855 20.7561 51.7085 20.7365 51.7199 20.7085C51.7515 20.6917 51.783 20.6777 51.8117 20.6608C51.9809 20.644 52.1329 20.602 52.1874 20.4142C52.7611 19.9853 53.3863 19.6293 53.9915 19.2424C54.7889 18.7323 55.5891 18.2221 56.3893 17.7175C56.7307 17.5017 56.7364 17.5017 56.9572 17.8128C57.6858 18.836 58.4114 19.8619 59.1399 20.8851C60.2901 22.5025 61.4345 24.1228 62.5904 25.7346C62.7051 25.8944 62.7653 26.1438 63.0493 26.1242C62.9919 26.326 62.8428 26.3204 62.7481 26.1943C62.6018 25.9953 62.4097 26.0149 62.2118 26.0149C61.7184 26.0149 61.2222 26.0149 60.7289 26.0149C60.2815 26.0149 60.2815 26.0177 60.2643 26.4606C60.0606 26.3737 60.0119 26.1663 59.9029 26.0093C59.639 25.6253 59.3952 25.2272 59.1428 24.8376C59.1428 24.7338 59.0998 24.6694 58.9937 24.6526C58.9449 24.5713 58.899 24.49 58.8503 24.4059C58.8703 24.2853 58.8158 24.2209 58.6954 24.1984C58.6351 24.1536 58.6007 24.0919 58.5864 24.019C58.5864 23.9181 58.5462 23.8508 58.4372 23.834C58.3196 23.6126 58.116 23.4416 58.0299 23.2005C58.0299 23.0996 57.9869 23.0351 57.8808 23.0183C57.832 22.9342 57.7862 22.8529 57.7374 22.7688C57.7575 22.6511 57.7001 22.5866 57.5825 22.5642C57.5079 22.5025 57.4707 22.4212 57.4506 22.3287C57.4735 22.2054 57.4248 22.1297 57.2928 22.1157C57.2326 22.0736 57.1924 22.0232 57.1838 21.9475C57.201 21.8298 57.1465 21.7653 57.0289 21.7457C56.9544 21.684 56.9171 21.5999 56.8941 21.5102C56.9171 21.3869 56.8712 21.314 56.7393 21.3C56.702 21.2439 56.6647 21.1878 56.6274 21.129C56.6417 21.014 56.5901 20.9496 56.4754 20.9327C56.3693 20.7898 56.2631 20.644 56.1599 20.5011C56.0308 20.459 55.9247 20.4646 55.8874 20.6216C55.8071 20.6833 55.7297 20.7505 55.6207 20.7618C55.5088 20.7533 55.4428 20.801 55.4256 20.9103C55.3625 20.9496 55.2966 20.986 55.2335 21.0253C55.1359 21.0253 55.07 21.0589 55.0499 21.157C54.9696 21.2215 54.8893 21.2887 54.7803 21.3028C54.5049 21.3672 54.2583 21.4738 54.1263 21.7401C54.0804 21.8017 54.0173 21.8326 53.9428 21.8438C53.8367 21.841 53.7707 21.8858 53.7535 21.9895C53.6703 22.0372 53.5843 22.082 53.5011 22.1297C53.3777 22.1101 53.3118 22.1661 53.2917 22.2811C53.2429 22.3399 53.1798 22.3736 53.1053 22.3876C52.9705 22.3848 52.8471 22.396 52.8328 22.5642C52.7898 22.6231 52.7381 22.6623 52.6636 22.6707C52.5431 22.6539 52.4771 22.7072 52.4571 22.8221C52.394 22.895 52.3079 22.9314 52.2161 22.9538C52.0899 22.9314 52.0154 22.9791 52.001 23.1052C51.9436 23.1416 51.8863 23.1781 51.8289 23.2145C51.7113 23.2005 51.6454 23.251 51.6281 23.3631C51.545 23.4079 51.4647 23.4528 51.3815 23.4948C51.2582 23.4752 51.1836 23.5201 51.1664 23.6434C51.109 23.6799 51.0488 23.7163 50.9914 23.7555C50.8767 23.7415 50.8078 23.7892 50.7906 23.9013C50.022 24.3975 49.2533 24.8908 48.4903 25.3954C48.301 25.5187 48.1949 25.558 48.0658 25.3169C47.8249 24.8656 47.5381 24.4367 47.2886 23.9882C47.1021 23.6546 47.1222 23.6154 47.4435 23.4164C47.6241 23.3042 47.7819 23.1501 47.997 23.0996C48.1146 23.1136 48.1806 23.0632 48.1978 22.9482C48.2609 22.9118 48.3211 22.8753 48.3842 22.8361C48.4846 22.8417 48.5534 22.8025 48.5735 22.6987V22.7072Z" fill="#939697"/>
<path d="M60.2414 29.6475C60.293 29.6952 60.3503 29.74 60.3561 29.8185C60.3733 29.9867 60.4106 30.1437 60.6142 30.1913C60.6372 30.2053 60.6486 30.225 60.6458 30.253C60.6286 30.3707 60.6716 30.4464 60.7978 30.466C60.8494 30.5165 60.9068 30.5613 60.9125 30.637C60.9326 30.8052 60.9699 30.9594 61.1678 31.007C61.1936 31.0211 61.2022 31.0435 61.1993 31.0687C61.1821 31.1836 61.2251 31.2593 61.3513 31.279C61.4001 31.3322 61.4603 31.3771 61.4689 31.4528C61.4632 31.5565 61.5062 31.6237 61.6181 31.6406C61.6611 31.705 61.7013 31.7695 61.7443 31.834C61.75 31.89 61.7615 31.9489 61.8275 31.9573C61.8963 31.9657 61.9193 31.9097 61.9307 31.8536C61.9594 31.8396 61.9852 31.8256 62.0139 31.8144C62.1172 31.82 62.1917 31.7835 62.2089 31.6742C62.2376 31.6602 62.2663 31.6462 62.295 31.6322C62.4613 31.6097 62.622 31.5789 62.6707 31.3855C62.7338 31.349 62.7969 31.3098 62.86 31.2733C62.9575 31.2733 63.0264 31.2397 63.0436 31.1388C63.1239 31.0743 63.2042 31.007 63.3132 30.9986C63.4193 30.9986 63.4881 30.9594 63.5054 30.8501C63.5713 30.8108 63.6402 30.7744 63.7061 30.7351C63.7893 30.7351 63.8581 30.7071 63.8811 30.6174C63.9557 30.5361 64.0474 30.4829 64.1593 30.4576C64.2597 30.4576 64.3257 30.4156 64.3429 30.3147C64.3744 30.3035 64.4088 30.2894 64.4404 30.2782C64.4691 30.2558 64.4949 30.2334 64.5236 30.2138C64.5408 30.1857 64.5666 30.1745 64.601 30.1773C64.7788 30.1633 64.9423 30.1297 64.9911 29.925C65.0054 29.9026 65.0255 29.8942 65.0513 29.8998C65.1718 29.9166 65.2521 29.8774 65.2722 29.7512C65.3209 29.7008 65.3668 29.6447 65.4471 29.6419C65.6192 29.6251 65.777 29.5858 65.8286 29.3952C65.8429 29.37 65.8659 29.3588 65.8946 29.3644C66.0093 29.3784 66.0867 29.3392 66.1068 29.2186C66.1642 29.171 66.2101 29.1093 66.2932 29.1037C66.4539 29.0785 66.6059 29.042 66.6632 28.8654C66.6804 28.8374 66.7063 28.8234 66.7378 28.8262C66.8468 28.8346 66.9214 28.7982 66.9415 28.6832C66.9615 28.658 66.9873 28.6468 67.0218 28.6468C67.1135 28.6524 67.1852 28.6272 67.2225 28.5375C67.3 28.3945 67.4491 28.3524 67.5868 28.288C67.6872 28.2908 67.7618 28.2543 67.779 28.1478C67.8076 28.1338 67.8392 28.1198 67.8679 28.1058C68.0314 28.0805 68.1891 28.0469 68.2407 27.8619C68.2608 27.8395 68.2866 27.8311 68.3182 27.8311C68.3555 27.8058 68.3899 27.7778 68.4272 27.7526L68.4329 27.7498C68.5247 27.7498 68.5907 27.7161 68.6136 27.6236C68.691 27.5479 68.7742 27.4863 68.8861 27.4751C69.2733 27.2928 69.6834 27.3854 70.085 27.3826C70.6988 27.3769 71.3154 27.3826 71.9292 27.3826C72.0956 27.3826 72.282 27.3489 72.3308 27.5816L72.3337 27.576C72.0382 27.5732 72.0067 27.803 71.9378 27.9992C71.9063 28.0329 71.8747 28.0665 71.8403 28.1002C71.7256 28.1058 71.6711 28.1702 71.6596 28.274C71.6051 28.3132 71.5506 28.3496 71.4961 28.3889C71.3154 28.3889 71.2237 28.4786 71.2036 28.6496C71.086 28.6496 71.0286 28.7113 71.0172 28.8234C70.3288 29.3812 69.6261 29.9194 68.8086 30.2894C68.6366 30.2978 68.4845 30.3371 68.4157 30.5165C68.387 30.5305 68.3612 30.5417 68.3325 30.5557C68.1547 30.595 67.9511 30.5866 67.8593 30.7884C67.8306 30.7996 67.799 30.8136 67.7704 30.8248C67.5753 30.8136 67.409 30.8641 67.3 31.0379C67.257 31.0883 67.1996 31.108 67.1336 31.1052C66.9099 31.0996 66.7005 31.1304 66.56 31.3322C66.5055 31.349 66.451 31.3659 66.3994 31.3827C65.9691 31.3771 65.6163 31.6406 65.2091 31.7162C65.1919 31.7191 65.1832 31.7667 65.1718 31.7919C65.1087 31.8003 65.0456 31.8088 64.9825 31.8172C64.796 31.6994 64.6641 31.8312 64.5264 31.9209C64.4748 31.9265 64.426 31.9321 64.3744 31.9377C64.2224 31.9321 64.0446 31.8508 63.9643 32.0638C63.8696 32.0694 63.775 32.0779 63.6803 32.0835C63.4365 31.9265 63.2444 32.0835 63.0407 32.1844C62.8658 32.2236 62.6908 32.2236 62.513 32.2068C61.5636 32.1788 60.6142 32.1788 59.6677 32.2068C59.4899 32.218 59.3092 32.2404 59.1428 32.1507C59.1314 32.061 59.0769 32.0162 58.9851 32.0078C58.9449 31.9433 58.9048 31.8788 58.8646 31.8144C58.8646 31.7275 58.8302 31.6602 58.7327 31.6434C58.661 31.5677 58.5921 31.4892 58.5778 31.3799C58.5778 31.2762 58.5348 31.2089 58.4229 31.1921C58.3828 31.1304 58.3455 31.0659 58.3053 31.0042C58.3053 30.9117 58.268 30.8445 58.1677 30.8276C58.1017 30.7492 58.0271 30.6763 58.0214 30.5698C58.0271 30.4604 57.9812 30.3932 57.8636 30.3763C57.7604 30.2278 57.6141 30.1044 57.5596 29.925C57.5338 29.7652 57.4994 29.6083 57.3043 29.5606C57.267 29.5017 57.2269 29.4429 57.1896 29.384C57.1925 29.2831 57.1552 29.213 57.0462 29.1962C57.0319 29.1682 57.0175 29.1401 57.0032 29.1149C57.006 29.028 56.9802 28.9579 56.8884 28.9243C56.7422 28.8514 56.6963 28.7056 56.6303 28.5739C56.636 28.4702 56.5988 28.3973 56.484 28.3805C56.4095 28.2655 56.3349 28.1506 56.2574 28.0357C56.2632 27.932 56.2288 27.8563 56.114 27.8367C56.0825 27.8198 56.0681 27.7974 56.071 27.7638C56.0911 27.5395 55.8731 27.405 55.8301 27.1919C55.9591 27.091 56.1054 27.0153 56.2488 27.0518C56.7938 27.1863 57.3445 27.0938 57.8894 27.1134C58.1189 27.1219 58.3455 27.1359 58.5606 27.2144C58.6639 27.2844 58.6954 27.4022 58.7556 27.5003C58.7556 27.6236 58.77 27.7386 58.9335 27.7554C58.9564 27.7666 58.965 27.7862 58.9593 27.8114C58.9421 27.932 58.9851 28.0105 59.1142 28.0273C59.1687 28.0721 59.2231 28.117 59.226 28.1955C59.2174 28.3048 59.2633 28.3749 59.378 28.3917C59.4239 28.4702 59.4698 28.5487 59.5157 28.6272C59.4985 28.7449 59.5415 28.8234 59.6706 28.843C59.7222 28.8907 59.7796 28.9355 59.7853 29.0112C59.8025 29.1822 59.8427 29.3392 60.0463 29.384C60.0693 29.3952 60.0807 29.4148 60.075 29.4429C60.0578 29.5606 60.1008 29.6391 60.2299 29.6587L60.2414 29.6475Z" fill="#939697"/>
<path d="M63.1125 26.1017C63.5398 25.7064 64.0619 25.4429 64.5408 25.1262C65.6222 24.4086 66.7149 23.7106 67.8077 23.007C67.911 22.9397 68.0228 22.892 68.1318 22.836C68.2465 22.85 68.3183 22.808 68.3355 22.693C68.5391 22.5473 68.7341 22.3903 68.9693 22.295C69.0812 22.309 69.1558 22.2669 69.173 22.152C69.3766 22.0062 69.5717 21.8493 69.8068 21.754C69.9187 21.7652 69.9904 21.7231 70.0076 21.611C70.0306 21.5914 70.0564 21.5802 70.0851 21.5746C70.2571 21.5577 70.4235 21.5241 70.4665 21.3223C70.8423 21.0055 71.2782 20.7785 71.6826 20.5065C71.8576 20.3888 71.8949 20.2963 71.7859 20.1057C71.6425 19.859 71.4245 19.6544 71.3385 19.3236C72.9848 19.1162 74.6311 19.147 76.3693 19.0181C75.9132 19.8927 75.4945 20.6888 75.0786 21.4849C74.8778 21.5465 74.8377 21.7007 74.8434 21.8801C74.829 21.9306 74.8147 21.981 74.7975 22.0315C74.5996 22.0931 74.5594 22.2473 74.5623 22.4239C74.548 22.4744 74.5336 22.5248 74.5164 22.5753C74.3185 22.637 74.2784 22.7911 74.2841 22.9677C74.2697 23.0182 74.2525 23.0686 74.2382 23.1191C73.9743 23.1976 73.9256 22.8836 73.7248 22.8472C73.6646 22.7995 73.6301 22.7379 73.6158 22.665C73.6187 22.5332 73.6072 22.4155 73.4351 22.3987C73.3749 22.3566 73.3347 22.3062 73.3261 22.2333C73.1999 21.9838 73.0881 21.995 72.8672 22.2782C72.8443 22.2978 72.8184 22.309 72.7869 22.3146C72.6894 22.3062 72.6177 22.3454 72.5804 22.4351C72.5144 22.5865 72.3452 22.5977 72.2305 22.6762C72.1243 22.6678 72.0526 22.707 72.0326 22.8164C72.0039 22.8304 71.9781 22.8416 71.9494 22.8556C71.7802 22.878 71.6224 22.9117 71.5737 23.1051C71.5134 23.1415 71.4503 23.1808 71.3901 23.2172C71.284 23.2116 71.2151 23.2509 71.1979 23.3574C69.6548 24.3553 68.1146 25.3532 66.5715 26.3512C66.4855 26.4072 66.3794 26.4352 66.2818 26.4773C66.2904 26.4493 66.2933 26.4156 66.3077 26.3904C66.5056 26.0568 66.497 26.0344 66.1069 26.0288C65.6594 26.0232 65.212 26.0204 64.7646 26.0288C64.211 26.04 63.6546 25.9727 63.1096 26.1101L63.1125 26.1017Z" fill="#939697"/>
<path d="M52.2793 10.09C52.3281 10.0732 52.3797 10.0564 52.4313 10.0396C52.6092 10.1517 52.8071 10.1517 53.0107 10.1517C53.765 10.1489 54.5194 10.1517 55.2766 10.1517C55.486 10.1517 55.6896 10.1517 55.7154 10.4292C55.681 10.4572 55.6466 10.4825 55.6122 10.5105C55.4802 10.5105 55.3569 10.5189 55.3368 10.6871C54.8922 11.0795 54.3616 11.3542 53.8769 11.6906C53.5442 11.9233 53.1828 12.1167 52.8329 12.3269C52.7296 12.3269 52.6637 12.3718 52.6465 12.4755C52.5805 12.5147 52.5145 12.554 52.4485 12.596C52.3596 12.6016 52.2937 12.6353 52.2736 12.7278C52.1961 12.7979 52.1158 12.8651 52.0011 12.8764C51.8979 12.8764 51.829 12.9212 51.8118 13.0249C51.786 13.0445 51.7602 13.0558 51.7286 13.0586C51.6942 13.0838 51.6598 13.1118 51.6254 13.1371L51.6168 13.1399C51.525 13.1455 51.4562 13.1791 51.4361 13.2744C51.3586 13.3417 51.2783 13.4118 51.1665 13.4202C51.0603 13.4202 50.9915 13.4622 50.9743 13.5687C50.9112 13.608 50.8452 13.6472 50.7821 13.6865C50.6846 13.6865 50.6158 13.7229 50.6014 13.8238C50.5211 13.8883 50.4465 13.9584 50.3347 13.964C50.2257 13.9584 50.1569 14.0032 50.1397 14.1154C50.0766 14.1546 50.0135 14.1938 49.9504 14.2331C49.8528 14.2331 49.7811 14.2667 49.7639 14.3704C49.6865 14.4349 49.6119 14.505 49.5 14.5134C49.3882 14.505 49.3194 14.5527 49.3021 14.6648C49.239 14.704 49.1788 14.7433 49.1157 14.7825C49.0153 14.7825 48.9465 14.819 48.9293 14.9199C47.8623 15.6291 46.7953 16.3383 45.6653 17.0867C45.5764 16.7055 45.5764 16.4027 45.6366 16.1196C45.7542 15.5422 45.7599 14.9507 45.8775 14.3704C45.9091 14.2079 45.9722 14.0761 46.1041 13.9976C46.4827 13.7678 46.8298 13.4846 47.2456 13.3165C47.3604 13.3277 47.4321 13.2884 47.4522 13.1707C47.5554 13.1034 47.6587 13.0361 47.7648 12.9717C47.8795 12.9689 47.9885 12.9548 48.0115 12.8147C48.0315 12.7923 48.0602 12.7782 48.0918 12.7782C48.2008 12.7867 48.2725 12.7474 48.2925 12.6353C48.9522 12.1419 49.6807 11.7439 50.3634 11.287C50.7678 11.0151 51.1808 10.7516 51.5938 10.4881C51.7086 10.4152 51.8261 10.3367 51.9696 10.3227C52.0958 10.3395 52.1703 10.2918 52.1904 10.1657L52.199 10.1601C52.2248 10.1377 52.2506 10.1152 52.2765 10.0928L52.2793 10.09Z" fill="#939697"/>
<path d="M58.572 27.2032C58.3541 27.1247 58.1303 27.1107 57.9009 27.1023C57.3531 27.0827 56.8052 27.1724 56.2603 27.0406C56.1169 27.0042 55.9677 27.0827 55.8415 27.1808C55.8845 27.391 56.1025 27.5256 56.0824 27.7526C55.7612 27.4639 55.5776 27.0799 55.3339 26.7351C55.1073 26.4155 55.113 26.4071 54.7659 26.637C53.7391 27.3237 52.7123 28.0161 51.6855 28.7057C51.3815 28.9103 51.3786 28.9103 51.0947 28.6945C50.5698 28.2964 50.1109 27.8311 49.6634 27.3518C49.4455 27.1191 49.4483 27.1023 49.7323 26.9201C50.8251 26.2193 51.9236 25.5269 53.0192 24.8289C53.8453 24.3047 54.6684 23.7777 55.4945 23.2535C55.7813 23.0741 55.8243 23.0797 56.0107 23.3545C56.8626 24.6047 57.7116 25.8577 58.5606 27.1135C58.5749 27.1359 58.5692 27.1724 58.572 27.2004V27.2032Z" fill="#939697"/>
<path d="M39.1545 39.7697C38.8103 40.2322 38.6066 40.7228 38.3227 41.1657C38.2911 41.2161 38.2739 41.2778 38.2424 41.3283C38.119 41.5161 38.033 41.5217 37.9154 41.3255C37.6773 40.9218 37.4594 40.5097 37.2213 40.1061C37.141 39.9715 37.1066 39.7949 36.8656 39.7164C36.8656 40.022 36.8656 40.2995 36.8656 40.5798C36.8656 41.0788 36.8599 41.5749 36.8656 42.0739C36.8685 42.301 36.7853 42.3991 36.5415 42.3935C35.3512 42.3654 35.5491 42.5617 35.5405 41.4684C35.5291 40.0809 35.5377 38.6933 35.5405 37.3029C35.5405 37.1824 35.5405 37.0618 35.5463 36.9413C35.552 36.818 35.6122 36.7395 35.7442 36.7367C35.9593 36.7339 36.1773 36.7367 36.3924 36.7367C36.5358 36.7367 36.6046 36.8404 36.6763 36.9413C37.0177 37.4234 37.3618 37.9028 37.706 38.3821C37.7576 38.455 37.8064 38.5335 37.8638 38.6036C38.0387 38.8138 38.1219 38.8194 38.2854 38.6036C38.5751 38.2139 38.8504 37.8159 39.1286 37.4206C39.2434 37.2609 39.3667 37.1039 39.4671 36.9357C39.556 36.7871 39.6822 36.7283 39.8486 36.7311C40.7664 36.7367 40.6058 36.6414 40.6086 37.4234C40.6172 38.8867 40.6086 40.35 40.6086 41.8132C40.6086 41.9337 40.6086 42.0543 40.6029 42.1748C40.5972 42.3178 40.5254 42.3935 40.3677 42.3907C40.121 42.3851 39.8744 42.3963 39.6277 42.3907C39.2979 42.3823 39.252 42.343 39.2491 42.0234C39.2405 41.4348 39.2491 40.8461 39.2434 40.2575C39.2434 40.1145 39.2864 39.9603 39.1516 39.7725L39.1545 39.7697Z" fill="#939697"/>
<path d="M60.6257 39.316C60.7863 39.0917 60.7519 38.9235 60.7519 38.7638C60.7577 38.2059 60.7491 37.6481 60.7548 37.0903C60.7605 36.7511 60.7777 36.7399 61.1248 36.7343C61.3571 36.7287 61.5894 36.7371 61.8189 36.7343C61.9738 36.7343 62.0455 36.8016 62.0483 36.9501C62.0483 37.0258 62.0512 37.1015 62.0512 37.1772C62.0512 38.761 62.0512 40.3448 62.0512 41.9314C62.0512 42.0379 62.0484 42.1416 62.034 42.2481C62.0254 42.3294 61.9738 42.3883 61.882 42.3911C61.6497 42.3939 61.4173 42.4051 61.1879 42.3911C61.0129 42.3799 60.9441 42.2313 60.8609 42.1023C60.4766 41.5053 60.0894 40.9082 59.7022 40.3139C59.6534 40.2382 59.5989 40.1654 59.5444 40.0897C59.5014 40.0308 59.467 39.9467 59.3752 39.9607C59.249 39.9775 59.2605 40.0869 59.2605 40.171C59.2576 40.7148 59.2547 41.2586 59.2605 41.7996C59.2633 42.5256 59.2289 42.3855 58.6696 42.3995C58.6065 42.3995 58.5463 42.3995 58.4832 42.3995C57.9411 42.3995 57.9296 42.3911 57.9268 41.8809C57.9268 40.3279 57.9268 38.7722 57.9268 37.2192C57.9268 36.7427 57.9325 36.7679 58.423 36.7343C58.813 36.709 59.0367 36.852 59.2347 37.1772C59.6591 37.8864 60.1324 38.5704 60.6229 39.3244L60.6257 39.316Z" fill="#939697"/>
<path d="M55.7125 10.4292C55.6896 10.1545 55.486 10.1517 55.2737 10.1517C54.5194 10.1517 53.765 10.1517 53.0078 10.1517C52.8042 10.1517 52.6063 10.1517 52.4285 10.0396C52.6551 9.69201 53.0537 9.56587 53.3807 9.35282C55.0357 8.27921 56.7049 7.22802 58.3685 6.16842C58.4201 6.13479 58.4717 6.10115 58.5234 6.07031C58.8532 5.86849 58.9048 5.8797 59.1142 6.17964C59.923 7.35136 60.7319 8.52309 61.5407 9.69481C61.6354 9.83217 61.7616 9.9527 61.7644 10.1321C61.1162 10.1377 60.4709 10.1433 59.8227 10.1461C59.5731 10.1461 59.3293 10.1657 59.1343 10.3451C58.8159 10.0985 58.6582 9.73406 58.423 9.42571C58.0788 8.96879 58.0845 8.95197 57.6027 9.25471C57.1007 9.57147 56.6074 9.90225 56.1141 10.2274C55.9879 10.3115 55.8674 10.4068 55.7097 10.4264L55.7125 10.4292Z" fill="#939697"/>
<path d="M73.6243 40.2575C73.6243 40.5911 73.6243 40.9219 73.6243 41.2555C73.6243 41.3928 73.5985 41.5106 73.4809 41.6171C71.9923 42.9542 69.9272 42.5674 68.9979 41.0172C68.0944 39.5119 68.7082 37.5693 70.4377 36.8741C71.3383 36.5125 72.2275 36.6751 73.0507 37.1685C73.1281 37.2161 73.1998 37.275 73.283 37.317C73.4522 37.4039 73.4465 37.5132 73.3489 37.6478C73.2686 37.7571 73.1883 37.8692 73.1109 37.9786C72.7696 38.4551 72.7782 38.4411 72.239 38.2C71.5334 37.8861 70.6643 37.9281 70.1366 38.7635C69.8325 39.2456 69.8899 40.0221 70.2628 40.5154C70.6127 40.9808 71.2494 41.2022 71.8259 41.0621C72.1931 40.9724 72.3078 40.8406 72.2906 40.5547C72.2791 40.3697 72.1959 40.2772 72.0038 40.2772C71.7886 40.2772 71.5707 40.2688 71.3556 40.2772C71.1261 40.2884 71.0028 40.2015 71.0056 39.9688C71.0085 39.7277 71.0056 39.4867 71.0085 39.2428C71.0085 39.0606 71.1003 38.9681 71.2953 38.9681C71.9894 38.9709 72.6864 38.9709 73.3834 38.9681C73.5583 38.9681 73.63 39.0466 73.6272 39.2176C73.6214 39.5652 73.6272 39.9128 73.6272 40.2603H73.6243V40.2575Z" fill="#939697"/>
<path d="M84.9767 42.4189C83.4221 42.4525 82.0425 41.1294 82.0454 39.5484C82.0454 38.1048 83.2787 36.6808 84.9853 36.6836C86.5599 36.6864 87.9281 37.9562 87.9195 39.5568C87.9109 41.2303 86.4768 42.4441 84.9767 42.4189ZM86.5456 39.5793C86.6144 38.7551 85.9117 37.9871 84.9652 38.0039C83.9183 38.0235 83.3849 38.8308 83.3791 39.554C83.3734 40.3866 84.1048 41.1098 84.9624 41.1182C85.8601 41.1266 86.6087 40.3389 86.5456 39.5793Z" fill="#939697"/>
<path d="M49.7811 39.543C49.7524 38.0545 51.0517 36.6809 52.7267 36.6865C54.31 36.6921 55.658 37.9844 55.6552 39.5654C55.6494 41.1772 54.2354 42.4443 52.7038 42.4246C51.0833 42.405 49.7811 41.1352 49.784 39.543H49.7811ZM52.6923 41.1212C53.547 41.1352 54.2985 40.4316 54.2985 39.585C54.2985 38.6712 53.6618 38.0068 52.7095 38.0068C51.763 38.0068 51.1492 38.688 51.1177 39.5486C51.0861 40.3643 51.8462 41.1071 52.6923 41.1212Z" fill="#939697"/>
<path d="M77.5165 40.7145C77.396 40.8183 77.4419 40.9612 77.4391 41.0874C77.4333 41.3901 77.4448 41.69 77.4333 41.9928C77.4218 42.3432 77.3788 42.3824 77.0318 42.3908C76.8769 42.3936 76.722 42.3936 76.5671 42.3908C76.1684 42.3852 76.157 42.3796 76.157 41.9732C76.1541 40.6445 76.157 39.3186 76.157 37.9899C76.157 37.6871 76.1512 37.3872 76.157 37.0844C76.1656 36.7621 76.1828 36.734 76.4897 36.734C77.0002 36.734 77.5079 36.7032 78.0184 36.7593C79.2431 36.8938 79.6992 37.7432 79.6533 38.7299C79.6275 39.2457 79.4841 39.7446 79.0424 40.095C78.8703 40.2324 78.8961 40.3613 79.0051 40.5239C79.3206 40.9865 79.6275 41.4546 79.9344 41.9227C79.9831 41.9984 80.0348 42.0741 80.0778 42.1526C80.1552 42.2899 80.1438 42.388 79.9545 42.388C79.5988 42.388 79.2431 42.3852 78.8875 42.388C78.6552 42.388 78.5806 42.203 78.4831 42.0601C78.2594 41.7349 78.0643 41.3957 77.8463 41.0677C77.7603 40.936 77.7058 40.7678 77.5136 40.7145H77.5165ZM77.3817 38.629C77.3817 38.7047 77.3874 38.7804 77.3817 38.856C77.3444 39.2036 77.4993 39.2877 77.875 39.2205C77.9639 39.2036 78.0557 39.17 78.1332 39.1223C78.3569 38.985 78.4573 38.601 78.3454 38.3543C78.245 38.13 77.918 38.0011 77.5825 38.0684C77.2411 38.1356 77.4362 38.4075 77.3846 38.5841C77.3817 38.5982 77.3846 38.615 77.3846 38.629H77.3817Z" fill="#939697"/>
<path d="M23.2188 40.6643C23.0926 41.0372 23.1585 41.3679 23.1528 41.6931C23.1413 42.3911 23.1499 42.3911 22.4501 42.3911C22.0639 42.3911 21.8707 42.2014 21.8707 41.822C21.8707 40.3139 21.8707 38.803 21.8707 37.2949C21.8707 37.1884 21.8707 37.0847 21.8707 36.9782C21.8707 36.81 21.9568 36.7287 22.1289 36.7343C22.6853 36.7455 23.2417 36.7035 23.7953 36.7707C25.0401 36.9249 25.4531 37.8864 25.3613 38.8395C25.3154 39.3216 25.1663 39.7869 24.7447 40.1093C24.5611 40.2495 24.6271 40.3868 24.7303 40.5382C25.0429 41.0007 25.3527 41.4689 25.6625 41.9342C25.7198 42.0211 25.7829 42.1108 25.8231 42.2061C25.8661 42.3098 25.8231 42.3855 25.6998 42.3855C25.3298 42.3855 24.9598 42.3855 24.5869 42.3855C24.3775 42.3855 24.303 42.2117 24.214 42.0827C23.9903 41.7604 23.7924 41.4184 23.5802 41.0876C23.4913 40.9503 23.4081 40.8073 23.2188 40.6587V40.6643ZM23.4827 38.0658C23.1241 38.0546 23.0983 38.0798 23.0926 38.4414C23.0897 38.6208 23.0926 38.803 23.0926 38.9824C23.0926 39.1198 23.1528 39.2067 23.2991 39.2375C23.6892 39.3132 24.0506 39.0553 24.0907 38.6713C24.1309 38.2816 23.9272 38.077 23.4798 38.0658H23.4827Z" fill="#939697"/>
<path d="M92.8154 38.6993C92.8154 38.1415 92.8212 37.5836 92.8154 37.0258C92.8154 36.8156 92.8929 36.7231 93.1137 36.7315C93.346 36.7427 93.5784 36.7287 93.8078 36.7343C94.1434 36.7455 94.1635 36.7623 94.1664 37.1127C94.1692 38.1835 94.1922 39.2543 94.1577 40.3251C94.1291 41.1857 93.805 41.9061 92.9273 42.279C91.9664 42.6854 90.822 42.2509 90.4234 41.3035C90.2828 40.9699 90.1968 40.6167 90.1968 40.2495C90.1968 39.2235 90.1968 38.1975 90.1968 37.1716C90.1968 36.7427 90.2054 36.7315 90.6356 36.7343C91.6911 36.7427 91.519 36.5997 91.5305 37.578C91.5391 38.4218 91.5305 39.2684 91.5334 40.1121C91.5334 40.2635 91.5333 40.4176 91.562 40.5634C91.628 40.883 91.8747 41.0932 92.1615 41.1016C92.4655 41.11 92.7294 40.8914 92.8011 40.555C92.824 40.4373 92.8183 40.3139 92.8183 40.1934C92.8183 39.6944 92.8183 39.1983 92.8183 38.6993H92.8154Z" fill="#939697"/>
<path d="M30.5555 41.5331C30.4781 41.5331 30.4006 41.5331 30.3232 41.5331C29.6434 41.5556 29.6893 41.3846 29.3767 42.1274C29.3107 42.2816 29.2247 42.3881 29.044 42.3909C28.7514 42.3909 28.456 42.3909 28.1635 42.3909C27.9971 42.3909 27.9397 42.3012 27.9914 42.1554C28.1147 41.8163 28.2352 41.4743 28.3757 41.1407C28.9493 39.7783 29.5 38.4076 30.022 37.0256C30.0966 36.8294 30.2056 36.7285 30.4265 36.7341C31.0058 36.7481 30.9886 36.6865 31.1808 37.1798C31.677 38.4581 32.2019 39.7251 32.721 40.9949C32.8673 41.3593 33.0279 41.7153 33.1771 42.0797C33.2717 42.3124 33.2287 42.3825 32.9791 42.3937C32.7784 42.4021 32.5776 42.3937 32.3768 42.3937C31.9007 42.3937 31.8548 42.3601 31.6999 41.9424C31.6005 41.6733 31.4045 41.5378 31.112 41.5359C30.9255 41.5359 30.742 41.5359 30.5555 41.5359V41.5331ZM30.5957 40.2184C30.6272 40.2212 30.6588 40.2212 30.6875 40.2184C30.8882 40.2091 30.9513 40.1063 30.8768 39.9101C30.8653 39.8821 30.8653 39.8484 30.8481 39.8232C30.7448 39.6494 30.785 39.3046 30.567 39.3214C30.3834 39.3354 30.3375 39.6662 30.2687 39.8737C30.2544 39.9157 30.2314 39.9578 30.2199 39.9998C30.1827 40.1231 30.2113 40.21 30.3634 40.2128C30.4408 40.2128 30.5182 40.2128 30.5957 40.2128V40.2184Z" fill="#939697"/>
<path d="M45.6824 42.4188C44.5524 42.4132 43.5514 41.7376 43.124 40.6528C42.5102 39.1054 43.2674 37.4852 44.6155 36.9162C45.5132 36.5349 46.3622 36.6443 47.1739 37.1264C47.9684 37.6001 47.9627 37.6086 47.3116 38.2757C47.2685 38.3206 47.2198 38.357 47.1825 38.4075C47.0563 38.5756 46.9358 38.57 46.7666 38.4439C46.5257 38.2589 46.2704 38.0991 45.9492 38.0458C44.7159 37.8412 44.0189 39.055 44.2684 39.9464C44.3631 40.2856 44.5352 40.5911 44.8363 40.8014C45.5103 41.2751 45.9865 41.149 46.6318 40.7565C47.1194 40.4594 47.1108 40.4426 47.3861 40.9163C47.6519 41.3723 47.5487 41.7395 47.0764 42.0179C46.6461 42.2702 46.193 42.4468 45.6796 42.4216L45.6824 42.4188Z" fill="#939697"/>
<path d="M96.438 39.5261C96.438 38.7272 96.438 37.9255 96.438 37.1266C96.438 36.7426 96.4466 36.7286 96.8166 36.7342C97.4189 36.7426 98.0184 36.7034 98.6207 36.7903C99.3808 36.9024 100.04 37.4995 100.106 38.2843C100.155 38.859 100.092 39.4056 99.7135 39.8653C99.3549 40.297 98.8673 40.5073 98.2966 40.5213C97.809 40.5325 97.7115 40.4148 97.7229 41.1127C97.7287 41.4155 97.7315 41.7154 97.7229 42.0182C97.7143 42.3602 97.6885 42.391 97.3558 42.3882C96.2774 42.377 96.4581 42.5424 96.4437 41.5192C96.4351 40.8549 96.4437 40.1905 96.4437 39.5261H96.438ZM97.7029 38.6095C97.7029 38.6544 97.7029 38.6992 97.7029 38.7441C97.7029 39.243 97.8147 39.3271 98.3052 39.2038C98.3654 39.1898 98.4257 39.1701 98.4801 39.1449C98.7239 39.0384 98.8272 38.8113 98.7985 38.5058C98.7756 38.2507 98.6006 38.1386 98.3826 38.0825C97.8434 37.9452 97.7 38.0601 97.7 38.6067L97.7029 38.6095Z" fill="#939697"/>
<path d="M63.1124 26.1018C63.6574 25.9672 64.2167 26.0317 64.7673 26.0205C65.2148 26.0121 65.6622 26.0149 66.1097 26.0205C66.4997 26.0261 66.5083 26.0513 66.3104 26.3821C66.2961 26.4073 66.2932 26.4382 66.2846 26.469L66.2617 26.4858L66.233 26.483C66.1039 26.4662 66.0236 26.5138 66.0035 26.6456C65.9605 26.6932 65.9146 26.7409 65.84 26.7493C65.7253 26.7381 65.6507 26.7801 65.6307 26.8951C65.4557 27.0016 65.3266 27.1866 65.0972 27.209C65.037 27.1978 64.9997 27.223 64.9853 27.2819V27.2847C64.8792 27.2903 64.8104 27.338 64.7989 27.4473C64.6153 27.5398 64.4805 27.722 64.2597 27.7472C64.2023 27.7388 64.1679 27.7669 64.1536 27.8201L64.1507 27.8257C64.0474 27.8313 63.9786 27.879 63.9643 27.9855C63.9413 28.0023 63.9184 28.0135 63.8925 28.0191C63.7176 28.036 63.5598 28.0752 63.5082 28.2714C63.4508 28.3079 63.3906 28.3443 63.3333 28.3807C63.0522 28.4368 62.8227 28.5686 62.6707 28.8124C62.6105 28.8489 62.5531 28.8853 62.4929 28.9218C62.3122 28.9218 62.1516 29.0703 61.9594 28.9974C61.9422 28.9778 61.9307 28.9526 61.925 28.9274C61.9364 28.8124 61.8819 28.7508 61.7701 28.7283C61.7328 28.6695 61.6955 28.6106 61.6582 28.5517C61.664 28.448 61.6267 28.3779 61.5119 28.3611C61.4661 28.277 61.4173 28.1929 61.3714 28.1088C61.3284 27.8538 61.2137 27.6491 60.9555 27.5426C60.901 27.4613 60.8322 27.3856 60.8236 27.2819C60.7949 27.1193 60.7576 26.9623 60.5597 26.9147C60.5368 26.9007 60.5282 26.8811 60.5339 26.8558C60.5253 26.6736 60.4909 26.5082 60.27 26.4634C60.2872 26.0205 60.2872 26.0205 60.7347 26.0177C61.228 26.0177 61.7242 26.0177 62.2175 26.0177C62.4154 26.0177 62.6076 25.9981 62.7539 26.1971C62.8485 26.326 62.9977 26.3316 63.055 26.127C63.0694 26.1018 63.0895 26.0934 63.1181 26.0962L63.1124 26.1018Z" fill="#939697"/>
<path d="M63.6344 2.22412C64.5523 2.31382 65.4041 2.57452 66.2445 2.84642C67.0591 3.11273 67.845 3.46312 68.5993 3.86678C68.6538 3.89481 68.7112 3.91723 68.7628 3.95087C69.0066 4.10785 69.0152 4.18073 68.7771 4.33491C67.9683 4.8591 67.1566 5.37488 66.3478 5.89908C66.213 5.98597 66.1183 5.95514 66.0351 5.84301C65.952 5.73369 65.8716 5.62436 65.7942 5.51224C65.1259 4.55636 64.4548 3.60048 63.7893 2.64179C63.7148 2.53247 63.6086 2.43156 63.6344 2.22412Z" fill="#939697"/>
<path d="M61.2853 20.585C61.7643 20.585 62.2404 20.5822 62.7194 20.5766C63.0263 20.5738 63.3304 20.5794 63.6373 20.5093C63.8724 20.4532 64.1335 20.4532 64.3715 20.5177C64.5694 20.5738 64.7645 20.5766 64.9652 20.5766C65.6593 20.5766 66.3534 20.5766 67.0475 20.5766C67.1967 20.5766 67.3602 20.5345 67.4892 20.6551C67.4548 20.7224 67.3917 20.7504 67.3171 20.7616C67.1996 20.7532 67.1365 20.8064 67.1192 20.9186C67.0619 20.9578 67.0045 20.9943 66.9471 21.0335C66.8353 21.0251 66.7636 21.0699 66.7464 21.1821C66.6804 21.2185 66.6144 21.2578 66.5485 21.2942C66.3879 21.3334 66.2272 21.3699 66.1928 21.5661H66.1899C66.0838 21.5661 66.0207 21.6138 66.0035 21.7175C65.9806 21.7371 65.9548 21.7483 65.9261 21.7539C65.8917 21.782 65.8572 21.8072 65.8228 21.8352H65.8171C65.6077 21.8717 65.4241 21.9473 65.3438 22.1632L65.3238 22.1884C65.2033 22.1996 65.0914 22.2192 65.0771 22.3706C65.0627 22.3902 65.0398 22.4015 65.014 22.4015C64.8878 22.3818 64.8132 22.4351 64.7989 22.5612L64.7931 22.564C64.7645 22.5893 64.7358 22.6117 64.7071 22.6369C64.4404 22.8359 64.1793 23.049 63.8868 23.2116C63.7721 23.2004 63.7004 23.248 63.6831 23.3629C63.6258 23.4022 63.5684 23.4414 63.5111 23.4807C63.4422 23.4807 63.3762 23.4807 63.3074 23.4807C63.2787 23.4526 63.2472 23.4246 63.2185 23.3966C63.2271 23.2901 63.187 23.2172 63.0722 23.1976C63.0464 23.1807 63.0349 23.1555 63.0321 23.1275C63.0435 23.0153 62.9976 22.9453 62.8772 22.9284C62.837 22.8696 62.7997 22.8107 62.7596 22.7518C62.7366 22.5837 62.6965 22.4295 62.4928 22.3846C62.4728 22.3706 62.4642 22.351 62.4642 22.3258C62.4842 22.2024 62.4355 22.1267 62.3035 22.1127C62.2433 22.0735 62.2032 22.023 62.1946 21.9529C62.2118 21.8324 62.1544 21.7651 62.0339 21.7483C61.9708 21.7063 61.9393 21.6474 61.9249 21.5745C61.9307 21.4652 61.8791 21.4007 61.7701 21.3839C61.6926 21.2774 61.6123 21.1709 61.5349 21.0615C61.5722 20.8933 61.4832 20.798 61.3341 20.7392C61.314 20.7392 61.3025 20.728 61.2968 20.7083C61.2911 20.6663 61.2882 20.6242 61.2825 20.5794L61.2853 20.585Z" fill="#939697"/>
<path d="M72.3365 27.576C72.2878 27.3433 72.1014 27.3797 71.935 27.3769C71.3212 27.3769 70.7045 27.3741 70.0908 27.3769C69.6892 27.3797 69.2791 27.29 68.8918 27.4694C69.127 27.1751 69.4827 27.049 69.7896 26.8527C71.5277 25.7427 73.2687 24.6354 75.0126 23.5282C75.0613 23.4973 75.1244 23.4805 75.2334 23.4385C75.1302 23.8421 74.9179 24.1477 74.7401 24.4672C74.1492 25.5296 73.4207 26.4995 72.5947 27.3965C72.523 27.475 72.4599 27.5647 72.3394 27.576H72.3365Z" fill="#939697"/>
<path d="M115.987 47.0777C116.102 46.5844 116.185 46.2031 116.28 45.8247C116.36 45.4911 116.455 45.4323 116.788 45.4743C116.954 45.4967 117.037 45.5556 116.986 45.7434C116.811 46.3826 116.647 47.0217 116.481 47.6608C116.415 47.9159 116.363 47.9439 115.999 47.9495C115.772 47.9523 115.56 47.9495 115.509 47.6636C115.474 47.4702 115.422 47.2824 115.374 47.0918C115.351 47.0049 115.334 46.8955 115.225 46.8899C115.093 46.8815 115.118 47.0077 115.093 47.089C115.032 47.2908 114.964 47.4898 114.915 47.6944C114.852 47.9551 114.66 47.9495 114.45 47.9523C114.232 47.9523 114.057 47.9327 113.997 47.6776C113.845 47.0497 113.679 46.4246 113.515 45.7967C113.484 45.6818 113.423 45.5612 113.593 45.4939C113.779 45.4211 114.06 45.4799 114.126 45.6145C114.244 45.8499 114.249 46.1106 114.301 46.3601C114.33 46.5031 114.378 46.6432 114.416 46.7778C114.594 46.7806 114.611 46.6685 114.639 46.5704C114.711 46.3237 114.774 46.077 114.849 45.8331C114.949 45.5108 115.018 45.4631 115.282 45.4715C115.557 45.4799 115.606 45.6874 115.638 45.8724C115.704 46.262 115.876 46.6124 115.993 47.0805L115.987 47.0777Z" fill="#939697"/>
<path d="M6.00099 47.0413C6.17882 46.6629 6.2706 46.3321 6.34804 45.9957C6.37099 45.8948 6.3968 45.7911 6.42835 45.6902C6.48285 45.5276 6.59757 45.4575 6.78114 45.4631C6.95897 45.4715 7.07083 45.5276 7.11958 45.7042C7.18842 45.9509 7.27447 46.1919 7.34617 46.4386C7.38346 46.5648 7.37485 46.7105 7.55842 46.7918C7.69609 46.6236 7.70756 46.4134 7.73911 46.2144C7.76206 46.0658 7.77066 45.9172 7.82229 45.7715C7.92841 45.4799 7.98291 45.4463 8.28981 45.4687C8.48771 45.4856 8.56229 45.5584 8.50492 45.7603C8.33283 46.3994 8.16647 47.0413 8.01159 47.6832C7.94849 47.9467 7.75632 47.9411 7.54695 47.9439C7.33183 47.9467 7.1454 47.9327 7.08803 47.6776C7.03354 47.4422 6.95897 47.2123 6.893 46.9824C6.88153 46.9404 6.87005 46.8955 6.81556 46.8843C6.73812 46.8647 6.69509 46.9152 6.67502 46.9712C6.60044 47.1703 6.54308 47.3721 6.50292 47.5795C6.43982 47.8935 6.34231 47.9495 5.97518 47.9439C5.61952 47.9383 5.59944 47.9159 5.51627 47.5767C5.36999 46.9909 5.21797 46.4078 5.06022 45.8275C5.02581 45.6986 4.91968 45.5696 5.12046 45.4912C5.35852 45.3987 5.63673 45.4912 5.68836 45.6874C5.78874 46.0658 5.86905 46.4498 5.95797 46.8311C5.96944 46.8759 5.97518 46.918 6.00099 47.0413Z" fill="#939697"/>
<path d="M76.7851 46.7104C76.504 46.9038 76.4409 47.1505 76.2975 47.3411C76.0566 47.6635 76.048 47.6663 75.83 47.3524C75.7439 47.229 75.6636 47.0973 75.5776 46.9739C75.5432 46.9263 75.5087 46.873 75.4313 46.8954C75.3567 46.9179 75.3452 46.9795 75.3424 47.0384C75.3309 47.2486 75.3223 47.4589 75.3166 47.6719C75.308 47.8822 75.199 47.955 74.9867 47.9494C74.7773 47.9438 74.7257 47.8373 74.7257 47.6607C74.7257 47.058 74.7257 46.4525 74.7257 45.8499C74.7257 45.7237 74.677 45.5555 74.8605 45.5051C75.0584 45.4518 75.2707 45.4434 75.4055 45.634C75.5747 45.8667 75.7181 46.1162 75.8816 46.3544C76.0193 46.5591 76.0709 46.5619 76.2086 46.3684C76.3663 46.147 76.5212 45.9199 76.6589 45.6873C76.7593 45.5163 76.9055 45.4798 77.0862 45.4742C77.2698 45.4686 77.3845 45.5275 77.3845 45.7265C77.3845 46.3769 77.3845 47.0244 77.3845 47.6747C77.3845 47.8934 77.2641 47.955 77.0604 47.9522C76.8625 47.9522 76.7793 47.8709 76.7851 47.6803C76.7908 47.3804 76.7851 47.0776 76.7851 46.716V46.7104Z" fill="#939697"/>
<path d="M56.7021 31.618C56.5271 31.6909 56.3694 31.5816 56.2202 31.5311C55.1905 31.1807 54.1867 30.7631 53.2574 30.2024C53.0251 30.0623 53.0136 30.0062 53.2316 29.8745C53.7019 29.5914 54.1809 29.3222 54.6513 29.0419C54.7603 28.9747 54.8492 28.9578 54.9267 29.0672C55.5175 29.8885 56.1112 30.7098 56.6992 31.5311C56.7135 31.5508 56.6992 31.5872 56.6992 31.618H56.7021Z" fill="#939697"/>
<path d="M104.632 47.0805C104.523 47.0609 104.466 47.0413 104.406 47.0413C104.202 47.0441 104.087 46.9768 104.096 46.7526C104.107 46.5031 104.282 46.5143 104.454 46.5115C104.578 46.5115 104.701 46.5115 104.824 46.5115C105.341 46.5115 105.421 46.5984 105.326 47.0945C105.266 47.4057 105.094 47.6692 104.807 47.8093C103.95 48.2298 102.98 47.8822 102.716 46.9264C102.57 46.3909 103.072 45.5108 103.932 45.4463C104.366 45.4154 104.761 45.5136 105.063 45.8471C105.146 45.9396 105.235 46.049 105.12 46.1639C105.014 46.2676 104.893 46.3741 104.715 46.2648C104.572 46.1779 104.443 46.0658 104.271 46.0293C103.97 45.9621 103.66 46.0574 103.494 46.3068C103.33 46.5535 103.322 46.8338 103.465 47.0805C103.608 47.3272 103.846 47.4674 104.162 47.4309C104.366 47.4085 104.5 47.3104 104.627 47.0833L104.632 47.0805Z" fill="#939697"/>
<path d="M42.5389 46.722C42.5389 46.9939 42.5446 47.2658 42.536 47.5377C42.5303 47.6779 42.6049 47.8741 42.3984 47.9217C42.1919 47.9722 41.971 47.989 41.8161 47.7704C41.6612 47.5461 41.4949 47.3275 41.3199 47.1172C41.2396 47.0219 41.1679 46.8425 41.0159 46.893C40.8553 46.9462 40.9327 47.1284 40.9184 47.2546C40.9098 47.3443 40.9184 47.4368 40.9184 47.5265C40.9098 47.8965 40.8696 47.947 40.5971 47.9442C40.3476 47.9386 40.3189 47.9077 40.3161 47.5461C40.3132 46.9883 40.3103 46.4277 40.3161 45.8698C40.3161 45.7297 40.2501 45.5447 40.4652 45.4914C40.6688 45.4437 40.8639 45.4578 41.0044 45.6484C41.1937 45.9063 41.3916 46.1557 41.5809 46.4108C41.644 46.4949 41.6899 46.6239 41.8161 46.593C41.9767 46.5538 41.9222 46.3968 41.928 46.2847C41.9366 46.1025 41.928 45.9231 41.9366 45.7409C41.9423 45.5222 42.0857 45.469 42.2808 45.4718C42.4844 45.4774 42.5418 45.5867 42.5389 45.7661C42.5332 46.0829 42.5389 46.3996 42.5389 46.7192V46.722Z" fill="#939697"/>
<path d="M94.7285 46.7219C94.6166 47.0751 94.6711 47.3583 94.6567 47.633C94.6481 47.7955 94.6252 47.9301 94.4129 47.9469C94.1376 47.9693 94.0573 47.9133 94.0544 47.6274C94.0487 47.0387 94.0487 46.4528 94.0544 45.8642C94.0544 45.724 93.9971 45.5502 94.2093 45.4857C94.4158 45.4241 94.6338 45.4941 94.7715 45.6792C94.9895 45.9707 95.2046 46.2622 95.4226 46.5537C95.4771 46.6266 95.5344 46.6967 95.6635 46.7444C95.7581 46.422 95.6836 46.0968 95.7094 45.7801C95.7295 45.5278 95.8012 45.4661 96.0507 45.4745C96.1998 45.4801 96.2801 45.5418 96.2801 45.6904C96.2801 46.3687 96.2888 47.0471 96.2744 47.7227C96.2687 47.9665 95.8958 48.045 95.6606 47.8516C95.5459 47.7563 95.4598 47.6246 95.3681 47.504C95.1788 47.2601 95.0124 46.9966 94.7313 46.7219H94.7285Z" fill="#939697"/>
<path d="M16.5215 46.7442C16.5215 47.0609 16.5187 47.3777 16.5215 47.6917C16.5215 47.8963 16.4011 47.9439 16.2233 47.9439C16.0426 47.9439 15.8762 47.9271 15.8561 47.7001C15.8504 47.6244 15.8561 47.5487 15.8504 47.4758C15.8303 47.1366 15.8102 47.117 15.4775 47.1086C15.0702 47.0974 15.0358 47.1282 15.0129 47.5263C15.0014 47.7113 15.0702 47.9411 14.7461 47.9468C14.488 47.9496 14.4192 47.9075 14.4163 47.6412C14.4077 47.0077 14.4163 46.377 14.4134 45.7435C14.4134 45.5556 14.4823 45.4716 14.683 45.4688C14.8838 45.4688 15.0129 45.5192 15.01 45.7407C15.01 45.8752 15.01 46.0126 15.0157 46.1471C15.0243 46.2901 14.9727 46.4751 15.1764 46.5227C15.3685 46.5676 15.575 46.5872 15.7615 46.4919C15.8533 46.4471 15.8475 46.3377 15.8475 46.248C15.8504 46.0826 15.8533 45.9173 15.8504 45.7519C15.8504 45.5276 15.9967 45.4716 16.186 45.4744C16.3695 45.4744 16.5244 45.5192 16.5215 45.7491C16.5158 46.0798 16.5215 46.4106 16.5215 46.7442Z" fill="#939697"/>
<path d="M97.611 46.7049C97.611 46.419 97.6053 46.1331 97.611 45.8444C97.6196 45.494 97.634 45.4771 97.9695 45.4715C98.2306 45.4659 98.4916 45.4659 98.7554 45.4996C99.395 45.5837 99.8425 46.0125 99.8683 46.6208C99.897 47.3076 99.5643 47.7561 98.8931 47.9019C98.503 47.986 98.0384 48.0757 97.72 47.871C97.4418 47.6944 97.6512 47.2515 97.611 46.9292C97.6024 46.8563 97.611 46.7778 97.611 46.7021V46.7049ZM98.2219 46.733C98.2219 46.8675 98.2277 47.0049 98.2219 47.1394C98.2133 47.3272 98.2879 47.4085 98.4887 47.4141C98.9046 47.4253 99.1971 47.2151 99.2402 46.8479C99.2975 46.3629 99.0853 46.0742 98.6292 46.0069C98.3252 45.9621 98.2392 46.0266 98.2248 46.3265C98.2191 46.461 98.2248 46.5984 98.2248 46.733H98.2219Z" fill="#939697"/>
<path d="M80.0004 47.9692C79.3607 47.9917 78.6666 47.4647 78.6781 46.6882C78.6867 46.0126 79.3378 45.424 80.052 45.4408C80.8207 45.4576 81.3914 46.1023 81.3828 46.7415C81.3771 47.3301 80.8493 47.9945 80.0004 47.9692ZM80.0233 45.9734C79.6476 45.9734 79.2976 46.321 79.2976 46.7022C79.2976 47.1115 79.6017 47.4198 80.0147 47.4282C80.4306 47.4338 80.7432 47.1311 80.7375 46.719C80.7317 46.3266 80.3962 45.9734 80.0233 45.9734Z" fill="#939697"/>
<path d="M53.1569 46.7077C53.1569 46.405 53.1655 46.105 53.1569 45.8023C53.1483 45.5668 53.2687 45.4715 53.4896 45.4687C53.8911 45.4659 54.2927 45.4687 54.6942 45.4659C54.8921 45.4631 54.9696 45.5472 54.9667 45.7378C54.9638 45.9116 54.9266 46.0349 54.7143 46.0293C54.5135 46.0237 54.3128 46.0293 54.112 46.0293C53.9542 46.0293 53.8366 46.0686 53.8424 46.2564C53.8481 46.4162 53.9571 46.4526 54.0948 46.4554C54.2812 46.4582 54.4648 46.4554 54.6512 46.4638C54.8061 46.4722 54.9266 46.5367 54.9122 46.7133C54.9007 46.8703 54.852 47.016 54.6483 47.0216C54.4476 47.0273 54.2468 47.0245 54.046 47.0301C53.9227 47.0301 53.8424 47.0833 53.8452 47.2207C53.8452 47.358 53.9313 47.4057 54.0518 47.4057C54.2525 47.4085 54.4533 47.4141 54.6541 47.4057C54.8577 47.3973 54.9753 47.4505 54.9667 47.6804C54.961 47.8794 54.8663 47.9411 54.677 47.9383C54.2755 47.9327 53.8739 47.9327 53.4724 47.9383C53.2343 47.9411 53.1454 47.8346 53.154 47.6075C53.1655 47.3076 53.1569 47.0048 53.1569 46.7021V46.7077Z" fill="#939697"/>
<path d="M17.7922 46.7135C17.7922 46.4135 17.7979 46.1108 17.7922 45.8109C17.7864 45.6118 17.861 45.4829 18.0733 45.4773C18.5207 45.4689 18.9681 45.4717 19.4156 45.4745C19.5819 45.4745 19.6077 45.595 19.6049 45.7268C19.6049 45.8641 19.6106 46.0155 19.4127 46.0239C19.1976 46.0351 18.9825 46.0295 18.7645 46.0323C18.6182 46.0323 18.4805 46.0519 18.4805 46.2454C18.4805 46.436 18.6182 46.4556 18.7645 46.4584C18.9022 46.4584 19.0427 46.464 19.1804 46.4584C19.384 46.4528 19.5016 46.5173 19.4987 46.7415C19.4987 46.9518 19.407 47.0443 19.189 47.0302C19.0198 47.019 18.8505 47.0302 18.6813 47.033C18.558 47.0358 18.4777 47.0863 18.4805 47.2237C18.4805 47.361 18.5695 47.4059 18.6899 47.4087C18.8907 47.4115 19.0915 47.4171 19.2922 47.4115C19.493 47.4059 19.6135 47.4563 19.6077 47.6862C19.602 47.8852 19.5016 47.9469 19.3181 47.9441C18.9165 47.9385 18.515 47.9385 18.1163 47.9441C17.8782 47.9497 17.7864 47.846 17.795 47.6161C17.8065 47.3162 17.7979 47.0134 17.795 46.7135H17.7922Z" fill="#939697"/>
<path d="M111.066 47.969C110.32 47.9606 109.741 47.3859 109.755 46.6739C109.766 45.9984 110.369 45.4518 111.091 45.4377C111.78 45.4237 112.44 46.0348 112.422 46.7272C112.405 47.4504 111.84 47.9802 111.066 47.969ZM111.074 47.4252C111.476 47.428 111.823 47.1056 111.823 46.7244C111.823 46.3516 111.476 45.9872 111.103 45.9731C110.724 45.9591 110.377 46.2983 110.369 46.6936C110.357 47.1028 110.664 47.4224 111.074 47.4252Z" fill="#939697"/>
<path d="M9.7038 46.7051C9.7038 46.3883 9.70667 46.0716 9.7038 45.7548C9.70094 45.567 9.78698 45.4717 9.97628 45.4717C10.4094 45.4717 10.8396 45.4717 11.2727 45.4745C11.4763 45.4773 11.5165 45.6118 11.5165 45.7828C11.5165 45.9566 11.4247 46.0267 11.2584 46.0267C11.0433 46.0267 10.8253 46.0267 10.6102 46.0351C10.4897 46.0379 10.4008 46.0884 10.3922 46.2201C10.3807 46.3687 10.4639 46.4444 10.6102 46.45C10.7966 46.4584 10.9801 46.4612 11.1666 46.4584C11.3501 46.4584 11.4075 46.5593 11.4018 46.7191C11.396 46.8817 11.376 47.0246 11.158 47.0246C10.9715 47.0246 10.788 47.0246 10.6015 47.0302C10.4811 47.033 10.3922 47.0779 10.3922 47.2153C10.3922 47.3526 10.4782 47.4003 10.6015 47.4031C10.8167 47.4087 11.0346 47.4115 11.2498 47.4087C11.4448 47.4087 11.5251 47.4956 11.5194 47.6862C11.5136 47.8572 11.4362 47.9357 11.267 47.9357C10.8339 47.9357 10.4036 47.9357 9.97055 47.9357C9.7669 47.9357 9.70667 47.8263 9.70667 47.6469C9.70954 47.3302 9.70667 47.0134 9.70667 46.6967L9.7038 46.7051Z" fill="#939697"/>
<path d="M29.3912 47.9465C28.5422 47.9381 28.6196 48.0306 28.6139 47.2709C28.6139 46.7888 28.6081 46.3095 28.6139 45.8273C28.6196 45.5078 28.6426 45.4825 28.9466 45.4713C29.2707 45.4601 29.5919 45.4545 29.9132 45.519C30.3922 45.6143 30.6245 46.0095 30.4008 46.4244C30.3061 46.601 30.266 46.6935 30.4294 46.8365C30.7593 47.1196 30.57 47.7447 30.0824 47.8708C29.8243 47.9381 29.5661 47.9521 29.3854 47.9465H29.3912ZM29.5518 47.4167C29.8329 47.4139 29.9763 47.3298 29.9705 47.1784C29.9648 47.0159 29.7812 46.9121 29.5145 46.9065C29.3252 46.9009 29.1818 46.9262 29.1875 47.1616C29.1933 47.3887 29.2334 47.4223 29.5518 47.4167ZM29.4428 45.9871C29.2908 45.9759 29.1875 46.0263 29.1904 46.2114C29.1933 46.4104 29.308 46.4692 29.4915 46.4664C29.6751 46.4664 29.8357 46.4132 29.8816 46.2226C29.916 46.0796 29.7267 45.9815 29.4457 45.9871H29.4428Z" fill="#939697"/>
<path d="M83.2787 45.455C83.4766 45.4746 83.6774 45.4886 83.8753 45.5138C84.2252 45.5587 84.4833 45.7353 84.5895 46.066C84.6985 46.4024 84.6669 46.75 84.3916 46.9855C84.1793 47.1677 84.1764 47.2826 84.3743 47.4452C84.3973 47.4648 84.426 47.4844 84.4346 47.5125C84.4862 47.6414 84.6927 47.7227 84.5809 47.8993C84.5292 47.9834 84.1248 47.9554 84.013 47.8601C83.9097 47.7704 83.8237 47.6639 83.7376 47.5573C83.6716 47.4732 83.62 47.3779 83.5168 47.3331C83.402 47.2826 83.3017 47.2994 83.2672 47.434C83.25 47.5069 83.2472 47.5826 83.25 47.6582C83.2586 47.8741 83.1525 47.947 82.9374 47.9442C82.7251 47.9414 82.6305 47.8657 82.6334 47.6498C82.6391 47.0472 82.6334 46.4473 82.6362 45.8446C82.6391 45.4914 82.662 45.4774 83.0406 45.4662C83.1181 45.4662 83.1955 45.4662 83.273 45.4662V45.4521L83.2787 45.455ZM83.2156 46.3548C83.2099 46.6968 83.2586 46.7556 83.5512 46.7556C83.8351 46.7556 84.013 46.6071 84.0101 46.3688C84.0101 46.1361 83.8265 45.9904 83.5397 45.9876C83.2844 45.9848 83.2213 46.0548 83.2185 46.3576L83.2156 46.3548Z" fill="#939697"/>
<path d="M108.547 47.9017C108.186 48.0194 107.925 47.9129 107.727 47.6354C107.684 47.5737 107.635 47.512 107.592 47.4532C107.526 47.3635 107.44 47.2906 107.323 47.3186C107.185 47.3495 107.205 47.4728 107.191 47.5737C107.142 47.9213 107.093 47.9633 106.818 47.9437C106.672 47.9325 106.586 47.8764 106.586 47.7251C106.586 47.0467 106.586 46.3683 106.586 45.69C106.586 45.505 106.72 45.4713 106.87 45.4713C107.194 45.4713 107.518 45.4545 107.839 45.5162C108.556 45.6563 108.854 46.4637 108.335 46.9766C108.114 47.1953 108.154 47.3018 108.324 47.4868C108.421 47.5961 108.542 47.7027 108.547 47.9017ZM107.46 45.9843C107.205 45.9843 107.153 46.0516 107.151 46.3655C107.151 46.6991 107.202 46.758 107.495 46.7552C107.776 46.7524 107.951 46.5926 107.942 46.3571C107.934 46.1301 107.744 45.9843 107.458 45.9871L107.46 45.9843Z" fill="#939697"/>
<path d="M43.8726 46.7131C43.8726 46.3964 43.8755 46.0796 43.8726 45.7629C43.8697 45.5498 43.973 45.4657 44.1824 45.4685C44.5696 45.4741 44.9568 45.4741 45.3411 45.4685C45.5562 45.4629 45.6509 45.5442 45.648 45.7601C45.6423 45.9843 45.519 46.0404 45.3182 46.032C45.149 46.0264 44.9769 46.0292 44.8076 46.032C44.6671 46.0348 44.5122 46.0376 44.5065 46.2282C44.4979 46.4468 44.67 46.4524 44.8277 46.4552C44.9969 46.4608 45.169 46.458 45.3383 46.4609C45.5218 46.4637 45.5735 46.5758 45.5648 46.7328C45.5591 46.8813 45.5218 47.0103 45.3383 47.0159C45.1231 47.0243 44.9052 47.0215 44.6901 47.0271C44.5925 47.0299 44.5036 47.0607 44.4979 47.1785C44.4893 47.299 44.5409 47.3915 44.6728 47.3971C44.9052 47.4083 45.1375 47.4139 45.3669 47.4055C45.562 47.3999 45.6509 47.47 45.6452 47.669C45.6394 47.854 45.5591 47.9437 45.3612 47.9409C44.9597 47.9353 44.5581 47.9381 44.1566 47.9409C43.9615 47.9409 43.8755 47.8456 43.8726 47.6634C43.8726 47.3467 43.8726 47.0299 43.8726 46.7131Z" fill="#939697"/>
<path d="M86.8122 45.4715C87.013 45.4715 87.2138 45.4771 87.4146 45.4715C87.6211 45.4659 87.6784 45.5724 87.6784 45.7546C87.6784 45.9368 87.6125 46.0377 87.4088 46.0349C87.1937 46.0293 86.9757 46.0349 86.7606 46.0433C86.6201 46.0489 86.5254 46.1162 86.5254 46.2676C86.5254 46.433 86.6459 46.461 86.7778 46.4638C86.9642 46.4666 87.1478 46.4666 87.3342 46.4666C87.5035 46.4666 87.5981 46.5395 87.5838 46.7133C87.5723 46.8703 87.5551 47.0244 87.34 47.03C87.1392 47.0357 86.9384 47.0301 86.7377 47.0357C86.6201 47.0357 86.5225 47.0721 86.5283 47.2151C86.534 47.3468 86.6143 47.4057 86.7348 47.4085C86.9356 47.4169 87.1363 47.4197 87.3371 47.4141C87.5235 47.4113 87.6727 47.4281 87.6784 47.6664C87.6813 47.8878 87.5694 47.9523 87.3629 47.9467C86.9786 47.9383 86.5914 47.9383 86.207 47.9467C85.9977 47.9495 85.8944 47.8738 85.8973 47.658C85.903 47.0244 85.903 46.3909 85.8973 45.7574C85.8973 45.5388 86.0149 45.4659 86.2156 45.4715C86.4164 45.4743 86.6172 45.4715 86.818 45.4715H86.8122Z" fill="#939697"/>
<path d="M91.6739 45.4774C91.9206 45.4269 92.0296 45.5531 92.107 45.7689C92.3221 46.3604 92.563 46.9462 92.7839 47.5377C92.8298 47.6583 92.9015 47.832 92.7495 47.9049C92.5889 47.9834 92.3479 48.0227 92.2447 47.8405C92.0611 47.5125 91.7714 47.5714 91.4846 47.5657C91.324 47.5657 91.2035 47.5826 91.1203 47.7648C91.04 47.9414 90.7475 48.0002 90.5553 47.933C90.4119 47.8825 90.4205 47.7704 90.4664 47.6751C90.5754 47.4424 90.6471 47.1957 90.7303 46.9547C90.8679 46.5566 91.0429 46.1726 91.1863 45.7745C91.2724 45.5391 91.4158 45.4297 91.6739 45.4774ZM91.6051 46.3464C91.5448 46.523 91.4846 46.6687 91.4502 46.8201C91.4244 46.935 91.4703 47.0219 91.6137 47.0247C91.737 47.0247 91.823 46.9883 91.823 46.8509C91.823 46.6743 91.7886 46.5061 91.6051 46.3464Z" fill="#939697"/>
<path d="M65.0256 47.9441C64.8707 47.9441 64.7158 47.9469 64.5609 47.9441C64.1737 47.9357 64.1594 47.9301 64.1536 47.5713C64.1479 46.9826 64.1594 46.394 64.1479 45.8053C64.145 45.5755 64.2311 45.4689 64.4691 45.4717C64.8563 45.4773 65.2407 45.4717 65.6279 45.4717C65.8487 45.4717 65.9176 45.5895 65.9118 45.7913C65.9061 46.0043 65.777 46.0352 65.6021 46.0324C65.4013 46.0324 65.2005 46.0324 64.9997 46.038C64.8535 46.0436 64.7674 46.1165 64.7789 46.265C64.7875 46.394 64.8764 46.4472 64.9969 46.4528C65.1977 46.4584 65.3984 46.4641 65.5992 46.4613C65.7942 46.4613 65.8258 46.579 65.8172 46.7332C65.8086 46.8705 65.8143 47.0191 65.6135 47.0247C65.4443 47.0303 65.2722 47.0247 65.103 47.0303C64.9739 47.0359 64.7904 46.9939 64.7875 47.1985C64.7846 47.4143 64.9653 47.4087 65.1231 47.4115C65.278 47.4143 65.4328 47.4171 65.5877 47.4115C65.7799 47.4059 65.9176 47.4396 65.9147 47.6778C65.9118 47.9133 65.7713 47.9469 65.582 47.9441C65.3956 47.9385 65.212 47.9441 65.0256 47.9441Z" fill="#939697"/>
<path d="M57.1323 45.4377C57.3675 45.4546 57.6428 45.4854 57.8465 45.704C57.9239 45.7853 58.0903 45.8666 57.9469 45.99C57.8379 46.0853 57.7346 46.2899 57.5252 46.1581C57.3904 46.0741 57.2556 46.0152 57.095 46.0236C56.9946 46.0292 56.9086 46.0656 56.8914 46.1694C56.877 46.2507 56.9373 46.3039 57.0032 46.3488C57.1724 46.4637 57.3732 46.5001 57.5597 46.5702C57.9411 46.7132 58.1276 46.9402 58.1161 47.257C58.1046 47.5766 57.9067 47.7952 57.5195 47.9157C57.0721 48.0531 56.6734 47.9774 56.3149 47.6719C56.2087 47.5822 56.1342 47.484 56.2288 47.3663C56.3292 47.243 56.4468 47.0888 56.6504 47.1813C56.748 47.2262 56.8311 47.2962 56.9229 47.3495C57.0348 47.414 57.1552 47.428 57.2786 47.3859C57.356 47.3607 57.4105 47.3074 57.4162 47.2234C57.4249 47.1337 57.3704 47.086 57.2929 47.0552C57.0778 46.9711 56.8598 46.8982 56.6504 46.8029C56.3665 46.6739 56.1772 46.4749 56.1858 46.1413C56.1973 45.7209 56.5529 45.4377 57.1294 45.4321L57.1323 45.4377Z" fill="#939697"/>
<path d="M36.1714 47.9663C35.8531 47.9803 35.5806 47.8962 35.3425 47.7056C35.2335 47.6187 35.1131 47.5318 35.2221 47.3693C35.3368 47.1983 35.5376 47.1226 35.6925 47.1983C35.7728 47.2375 35.8445 47.302 35.9248 47.3468C36.0194 47.4001 36.1256 47.4225 36.2374 47.4057C36.3378 47.3917 36.4124 47.3412 36.4296 47.2403C36.4468 47.1338 36.378 47.0777 36.2804 47.0441C36.0911 46.9796 35.9018 46.9179 35.7183 46.8395C35.3626 46.6909 35.1848 46.4274 35.2106 46.1134C35.2393 45.7714 35.4716 45.536 35.8674 45.4603C36.2145 45.393 36.5443 45.4519 36.8225 45.6761C36.92 45.7546 37.0778 45.8583 36.9344 46.0069C36.8283 46.1162 36.7193 46.2928 36.5128 46.1415C36.3694 46.0377 36.2087 45.9957 36.0338 46.0377C35.9563 46.0574 35.8846 46.0966 35.8703 46.1779C35.8531 46.2648 35.9104 46.3153 35.9908 46.3433C36.1772 46.4134 36.3607 46.4947 36.55 46.5563C36.7164 46.6096 36.8541 46.6881 36.9659 46.8226C37.2757 47.2011 37.1638 47.6636 36.7021 47.857C36.5328 47.9271 36.355 47.9859 36.1772 47.9635L36.1714 47.9663Z" fill="#939697"/>
<path d="M47.8365 47.9638C47.5525 47.9694 47.2829 47.9161 47.0563 47.7367C46.9244 47.633 46.7724 47.5265 46.9387 47.3302C47.0908 47.1452 47.2141 47.1032 47.4063 47.2349C47.5382 47.3246 47.6673 47.3947 47.825 47.4087C47.9541 47.4199 48.0831 47.4003 48.1147 47.2489C48.1405 47.1144 48.043 47.0751 47.9283 47.0387C47.739 46.9798 47.5497 46.9098 47.3661 46.8313C47.0219 46.6883 46.8613 46.4248 46.8957 46.0856C46.9273 45.7717 47.1194 45.5726 47.4866 45.4801C47.8508 45.3904 48.1893 45.4381 48.4847 45.6792C48.5879 45.7661 48.7285 45.8614 48.6023 46.0127C48.499 46.1361 48.3843 46.2931 48.1835 46.1361C48.0688 46.0492 47.934 46.0184 47.7935 46.024C47.6816 46.0268 47.564 46.0464 47.5439 46.1753C47.5267 46.2847 47.6185 46.3267 47.7074 46.3603C47.8652 46.4192 48.02 46.4865 48.1807 46.5425C48.6195 46.6995 48.869 46.9967 48.8231 47.3162C48.7744 47.6442 48.4073 47.9273 47.9799 47.9638C47.934 47.9666 47.8881 47.9638 47.8422 47.9638H47.8365Z" fill="#939697"/>
<path d="M51.8319 45.8751C51.6617 46.0993 51.4619 46.1675 51.2324 46.0797C51.2037 46.0685 51.1751 46.0545 51.1464 46.0517C50.98 46.0236 50.7735 45.9563 50.7018 46.1526C50.6301 46.3516 50.8624 46.3768 50.9858 46.4329C51.1521 46.5114 51.3414 46.5366 51.5078 46.6151C52.047 46.8702 52.0957 47.4897 51.6081 47.8148C51.2295 48.0671 50.4781 47.9999 50.1368 47.6831C50.0306 47.585 49.9217 47.4729 50.0593 47.3439C50.1741 47.2402 50.3031 47.072 50.4953 47.2038C50.6473 47.3103 50.7965 47.4112 50.9915 47.414C51.1091 47.414 51.2209 47.3832 51.2554 47.271C51.2955 47.1477 51.198 47.086 51.0861 47.0468C50.8997 46.9795 50.7075 46.9206 50.5268 46.8393C50.1511 46.6712 49.9905 46.4105 50.0364 46.0629C50.0765 45.7601 50.3146 45.5359 50.6961 45.463C51.1578 45.3761 51.5393 45.5163 51.8347 45.8751H51.8319Z" fill="#939697"/>
<path d="M61.9192 47.9637C61.6037 47.9637 61.3083 47.8993 61.0759 47.6666C61.0014 47.5909 60.8981 47.5292 60.9612 47.4031C61.0272 47.2742 61.314 47.1396 61.4259 47.1929C61.5349 47.2461 61.6352 47.3218 61.7414 47.3807C61.8245 47.4255 61.9192 47.4227 62.0138 47.4115C62.1114 47.4003 62.1974 47.3583 62.2175 47.2601C62.2376 47.1536 62.1601 47.0976 62.0683 47.0639C61.8819 46.9938 61.6926 46.9322 61.509 46.8565C61.1649 46.7135 60.9153 46.3659 60.9555 46.0996C60.9985 45.8053 61.2939 45.5306 61.6611 45.4661C62.0081 45.4072 62.338 45.4577 62.6047 45.7072C62.6936 45.7885 62.8227 45.8754 62.7166 46.0043C62.6162 46.1249 62.5043 46.2958 62.3007 46.1529C62.1687 46.0576 62.0225 46.0267 61.8676 46.0324C61.7729 46.0352 61.6783 46.0576 61.6525 46.1641C61.6266 46.2734 61.6955 46.3267 61.7901 46.3631C61.9622 46.4304 62.1314 46.5061 62.3035 46.5706C62.7424 46.7387 62.9403 46.9882 62.8973 47.3218C62.8542 47.6554 62.5273 47.9245 62.1085 47.9665C62.0483 47.9721 61.9852 47.9665 61.9221 47.9665L61.9192 47.9637Z" fill="#939697"/>
<path d="M33.9142 46.4413C33.9142 46.6235 33.9142 46.8029 33.9142 46.9851C33.9228 47.5233 33.6303 47.9242 32.9362 47.9606C32.3654 47.9915 31.8692 47.7336 31.829 47.0664C31.8032 46.6291 31.8204 46.1918 31.8176 45.7545C31.8176 45.5359 31.9438 45.4714 32.1445 45.4742C32.3396 45.4742 32.4199 45.5667 32.417 45.7545C32.4113 46.1021 32.4113 46.4497 32.417 46.7973C32.4256 47.1954 32.592 47.4196 32.8673 47.4252C33.1427 47.4308 33.3234 47.2066 33.3348 46.8141C33.3463 46.4665 33.3406 46.1189 33.3348 45.7713C33.3348 45.5947 33.3836 45.4742 33.593 45.4798C33.7823 45.4854 33.9257 45.5303 33.9142 45.7629C33.9027 45.99 33.9142 46.217 33.9142 46.4413Z" fill="#939697"/>
<path d="M23.801 46.6966C23.801 46.3798 23.801 46.0659 23.801 45.7491C23.801 45.5921 23.8555 45.48 24.0333 45.4772C24.3861 45.4716 24.7418 45.4324 25.0917 45.5221C25.5248 45.6342 25.7772 45.9145 25.8002 46.3041C25.8288 46.7442 25.6395 47.0021 25.1634 47.1759C25.1061 47.1956 25.0516 47.2236 24.9913 47.2432C24.8049 47.3021 24.4693 47.6188 24.4005 47.8066C24.3374 47.9832 24.1825 47.9384 24.0506 47.944C23.9071 47.9496 23.8096 47.8907 23.8068 47.7394C23.8039 47.3946 23.8068 47.047 23.8068 46.7022C23.8068 46.7022 23.8068 46.7022 23.8039 46.7022L23.801 46.6966ZM24.3747 46.3742C24.3747 46.6938 24.4206 46.7499 24.6816 46.7555C24.9827 46.7639 25.172 46.5985 25.1577 46.3434C25.1462 46.1191 24.9913 45.993 24.7217 45.9874C24.4378 45.979 24.3747 46.0491 24.3747 46.377V46.3742Z" fill="#939697"/>
<path d="M20.8381 46.6852C20.8381 46.3993 20.8324 46.1105 20.8381 45.8246C20.8439 45.5247 20.9127 45.4602 21.1766 45.4714C21.4318 45.4798 21.5007 45.5527 21.5035 45.8498C21.5093 46.1806 21.5035 46.5142 21.5035 46.845C21.5055 47.2 21.6833 47.3794 22.037 47.3832C22.146 47.3832 22.2521 47.3832 22.3611 47.3888C22.5734 47.3972 22.6594 47.5009 22.6479 47.7083C22.6365 47.9214 22.4988 47.9438 22.3296 47.9438C21.9424 47.9438 21.558 47.9494 21.1708 47.9438C20.8582 47.9354 20.8439 47.9186 20.8381 47.5934C20.8324 47.2907 20.8381 46.9907 20.8381 46.688V46.6852Z" fill="#939697"/>
<path d="M70.1137 46.7135C70.1137 46.4276 70.1108 46.1417 70.1137 45.8558C70.1194 45.5306 70.1653 45.4745 70.4149 45.4717C70.6787 45.4689 70.7677 45.5586 70.7763 45.8726C70.7849 46.1585 70.7763 46.4444 70.7763 46.7304C70.7763 46.8509 70.782 46.9714 70.7763 47.092C70.7619 47.319 70.8594 47.4256 71.1004 47.4171C71.3011 47.4087 71.499 47.4171 71.6998 47.4227C71.8518 47.4255 71.9178 47.5096 71.9178 47.6554C71.9178 47.8012 71.8977 47.9385 71.7084 47.9413C71.2466 47.9469 70.7849 47.9469 70.3231 47.9413C70.1338 47.9413 70.1051 47.8096 70.108 47.661C70.108 47.3443 70.108 47.0303 70.108 46.7135H70.1137Z" fill="#939697"/>
<path d="M68.0572 47.9437C67.8564 47.9437 67.6556 47.9381 67.4549 47.9437C67.2569 47.9493 67.1766 47.854 67.1766 47.669C67.1766 47.0215 67.1766 46.3711 67.1766 45.7236C67.1766 45.5218 67.2799 45.4601 67.4663 45.4685C67.6355 45.4741 67.7732 45.505 67.7732 45.7152C67.7732 46.1525 67.7704 46.5898 67.7732 47.0271C67.779 47.3915 67.7933 47.3999 68.1719 47.4111C68.2952 47.4139 68.4186 47.4111 68.5419 47.4111C68.9004 47.4167 68.9492 47.456 68.9492 47.6886C68.9492 47.9717 68.7484 47.9409 68.562 47.9437C68.3927 47.9437 68.2235 47.9437 68.0514 47.9437H68.0572Z" fill="#939697"/>
<path d="M39.0913 46.7524C39.0913 47.0832 39.0827 47.4168 39.0913 47.7475C39.0999 47.997 38.9336 48.0054 38.7557 47.9998C38.5808 47.9942 38.3628 48.0531 38.3628 47.7588C38.3657 47.0972 38.3685 46.4329 38.3628 45.7713C38.3628 45.5246 38.5177 45.5134 38.6984 45.5218C38.8733 45.5302 39.0942 45.4658 39.0913 45.7601C39.0884 46.0909 39.0913 46.4217 39.0913 46.7552V46.7524Z" fill="#939697"/>
<path d="M59.6735 32.1987C60.6229 32.1735 61.5723 32.1707 62.5188 32.1987C62.4356 32.28 62.3295 32.2912 62.2205 32.2996C61.4547 32.3585 60.6889 32.3501 59.9231 32.2912C59.8284 32.2828 59.7424 32.2632 59.6707 32.1987H59.6735Z" fill="#939697"/>
<path d="M65.1775 31.7892C65.189 31.764 65.1976 31.7164 65.2148 31.7135C65.6221 31.6379 65.9748 31.3744 66.4051 31.38C66.0293 31.6098 65.602 31.6939 65.1775 31.7892Z" fill="#939697"/>
<path d="M73.7333 22.8389C73.9341 22.8753 73.9828 23.1893 74.2467 23.1108C74.0947 23.4135 74.0947 23.4135 73.8997 23.1809C73.8136 23.0799 73.7276 22.979 73.7333 22.8389Z" fill="#939697"/>
<path d="M46.0667 19.1416C45.9405 19.3602 46.0266 19.6294 45.8889 19.848C45.8086 19.7331 45.8 19.6013 45.7942 19.4724C45.7856 19.2902 45.8602 19.164 46.0639 19.1444L46.0667 19.1416Z" fill="#939697"/>
<path d="M54.1293 21.7454C54.2612 21.4763 54.5079 21.3698 54.7832 21.3081C54.6083 21.5155 54.4132 21.6977 54.1293 21.7454Z" fill="#939697"/>
<path d="M62.6678 28.8125C62.8199 28.5687 63.0493 28.4369 63.3304 28.3809C63.1612 28.5995 62.9317 28.7313 62.6678 28.8125Z" fill="#939697"/>
<path d="M60.9526 27.5454C61.2079 27.6519 61.3226 27.8566 61.3685 28.1117C61.1534 27.9771 61.0272 27.7809 60.9526 27.5454Z" fill="#939697"/>
<path d="M63.0465 32.1787C63.2473 32.075 63.4394 31.9208 63.6861 32.0778C63.4796 32.1479 63.2702 32.2096 63.0465 32.1787Z" fill="#939697"/>
<path d="M71.9436 27.9966C72.0124 27.8004 72.0469 27.5677 72.3394 27.5733C72.2734 27.7724 72.13 27.9041 71.9436 27.9966Z" fill="#939697"/>
<path d="M66.5657 31.3297C66.7033 31.1279 66.9127 31.097 67.1393 31.1026C66.9873 31.2764 66.7693 31.2849 66.5657 31.3297Z" fill="#939697"/>
<path d="M65.3468 22.1688C65.4271 21.9529 65.6078 21.8773 65.8201 21.8408C65.7197 22.0286 65.5533 22.1239 65.3468 22.1688Z" fill="#939697"/>
<path d="M67.3057 31.0352C67.4147 30.8642 67.581 30.8138 67.776 30.8222C67.6585 30.9735 67.4892 31.0184 67.3057 31.0352Z" fill="#939697"/>
<path d="M72.8757 22.2696C73.0966 21.9865 73.2084 21.9752 73.3346 22.2247C73.1683 22.121 73.0306 22.2668 72.8757 22.2696Z" fill="#939697"/>
<path d="M61.9565 29C62.1487 29.0701 62.3093 28.9243 62.49 28.9243C62.1946 29.2186 62.1487 29.2243 61.9565 29Z" fill="#939697"/>
<path d="M64.5293 31.9152C64.6698 31.8255 64.7989 31.6966 64.9853 31.8115C64.8419 31.8872 64.6985 31.9545 64.5293 31.9152Z" fill="#939697"/>
<path d="M67.865 30.7883C67.9568 30.5837 68.1604 30.5921 68.3382 30.5557C68.2293 30.7267 68.0399 30.7435 67.865 30.7883Z" fill="#939697"/>
<path d="M74.5708 22.4183C74.568 22.2417 74.6052 22.0875 74.806 22.0259C74.7659 22.1773 74.7487 22.3454 74.5708 22.4183Z" fill="#939697"/>
<path d="M51.3528 15.7832C51.3041 15.985 51.1435 16.0215 50.9685 16.0355C51.0459 15.8757 51.1865 15.8112 51.3528 15.7832Z" fill="#939697"/>
<path d="M74.849 21.8743C74.8433 21.6948 74.8834 21.5435 75.0842 21.479C75.0412 21.6304 75.0297 21.7986 74.849 21.8743Z" fill="#939697"/>
<path d="M50.5154 21.4932C50.4695 21.7006 50.3089 21.737 50.1282 21.7454C50.2085 21.5885 50.349 21.5212 50.5154 21.4932Z" fill="#939697"/>
<path d="M70.4694 21.3164C70.4235 21.5182 70.26 21.5519 70.0879 21.5687C70.1711 21.4201 70.2973 21.336 70.4694 21.3164Z" fill="#939697"/>
<path d="M66.1957 21.5688C66.2301 21.3726 66.3907 21.3361 66.5513 21.2969C66.5112 21.4847 66.3592 21.5323 66.1957 21.5688Z" fill="#939697"/>
<path d="M51.3528 20.9551C51.304 21.1513 51.1463 21.1933 50.9713 21.2074C51.0488 21.0504 51.1893 20.9859 51.3528 20.9551Z" fill="#939697"/>
<path d="M52.1903 20.4194C52.1358 20.6044 51.9838 20.6465 51.8146 20.6661C51.8863 20.5063 52.0268 20.4447 52.1903 20.4194Z" fill="#939697"/>
<path d="M45.9061 20.0327C46.1298 20.1084 46.0438 20.285 46.0438 20.4336C45.9032 20.3299 45.8803 20.1897 45.9061 20.0327Z" fill="#939697"/>
<path d="M68.2465 27.8618C68.1949 28.0468 68.0343 28.0805 67.8737 28.1057C67.9654 27.9767 68.0859 27.8898 68.2465 27.8618Z" fill="#939697"/>
<path d="M50.0507 16.6016C50.0077 16.8006 49.8471 16.8342 49.6779 16.8567C49.7381 16.6829 49.8987 16.6464 50.0507 16.6016Z" fill="#939697"/>
<path d="M63.5054 28.2743C63.557 28.078 63.7176 28.0388 63.8897 28.022C63.8037 28.1677 63.6775 28.2546 63.5054 28.2743Z" fill="#939697"/>
<path d="M71.5793 23.0996C71.6281 22.9062 71.7887 22.8725 71.9551 22.8501C71.8719 22.9959 71.7457 23.0772 71.5793 23.0996Z" fill="#939697"/>
<path d="M66.6689 28.8657C66.6116 29.0423 66.4596 29.0816 66.299 29.104C66.3793 28.961 66.5141 28.8966 66.6689 28.8657Z" fill="#939697"/>
<path d="M60.0578 29.3758C59.8541 29.3281 59.8168 29.1711 59.7968 29.0029C59.9402 29.0898 60.0176 29.2188 60.0578 29.3758Z" fill="#939697"/>
<path d="M65.8314 29.3955C65.7769 29.5861 65.622 29.6254 65.45 29.6422C65.5389 29.502 65.6737 29.4319 65.8314 29.3955Z" fill="#939697"/>
<path d="M57.313 29.5522C57.5109 29.5999 57.5424 29.7569 57.5683 29.9167C57.4363 29.827 57.3445 29.7092 57.313 29.5522Z" fill="#939697"/>
<path d="M60.6142 30.1917C60.4106 30.144 60.3733 29.987 60.3561 29.8188C60.4995 29.9057 60.5741 30.0347 60.6142 30.1917Z" fill="#939697"/>
<path d="M64.994 29.9277C64.9452 30.1324 64.7817 30.166 64.6039 30.18C64.6957 30.0399 64.8305 29.9642 64.994 29.9277Z" fill="#939697"/>
<path d="M68.4214 30.5166C68.4874 30.3372 68.6394 30.2952 68.8143 30.2896C68.7225 30.4325 68.5791 30.4858 68.4214 30.5166Z" fill="#939697"/>
<path d="M61.1707 31.0043C60.9699 30.9566 60.9326 30.8025 60.9154 30.6343C61.0588 30.7184 61.1334 30.8501 61.1707 31.0043Z" fill="#939697"/>
<path d="M62.6736 31.3882C62.6248 31.5816 62.4642 31.6124 62.2979 31.6349C62.3925 31.5087 62.513 31.419 62.6736 31.3882Z" fill="#939697"/>
<path d="M63.97 32.0583C64.0503 31.8452 64.2281 31.9237 64.3801 31.9321C64.2683 32.0471 64.1306 32.0863 63.97 32.0583Z" fill="#939697"/>
<path d="M60.2643 26.4658C60.4851 26.5107 60.5196 26.6761 60.5282 26.8583C60.379 26.7658 60.2901 26.6368 60.2643 26.4658Z" fill="#939697"/>
<path d="M74.2926 22.9623C74.2898 22.7857 74.327 22.6315 74.525 22.5698C74.4819 22.7212 74.4705 22.8894 74.2926 22.9623Z" fill="#939697"/>
<path d="M62.4987 22.3872C62.6994 22.4321 62.7425 22.5862 62.7654 22.7544C62.6019 22.6843 62.5331 22.5498 62.4987 22.3872Z" fill="#939697"/>
<path d="M60.5569 26.9175C60.7548 26.9623 60.7921 27.1193 60.8208 27.2847C60.6544 27.2174 60.6056 27.0689 60.5569 26.9175Z" fill="#939697"/>
<path d="M46.6174 18.7827C46.5715 18.9789 46.4081 19.0098 46.2417 19.0322C46.3191 18.8808 46.4597 18.8192 46.6174 18.7827Z" fill="#939697"/>
<path d="M61.337 20.7422C61.4862 20.8011 61.5751 20.8964 61.5378 21.0646C61.4317 20.9805 61.3112 20.902 61.337 20.7422Z" fill="#939697"/>
<path d="M71.2122 28.647C71.2322 28.476 71.324 28.3835 71.5047 28.3863C71.4674 28.5377 71.3642 28.6162 71.2122 28.647Z" fill="#939697"/>
<path d="M46.1873 21.21C46.368 21.2548 46.3393 21.3894 46.325 21.5183C46.2102 21.4454 46.1615 21.3445 46.1873 21.21Z" fill="#939697"/>
<path d="M52.8357 22.5668C52.8529 22.3958 52.9762 22.3846 53.1082 22.3902C53.0623 22.5164 52.9734 22.578 52.8357 22.5668Z" fill="#939697"/>
<path d="M68.4443 21.3027C68.5332 21.3027 68.625 21.3083 68.7139 21.3111C68.7053 21.3812 68.6996 21.4541 68.6021 21.4569C68.496 21.4597 68.4529 21.398 68.4443 21.3027Z" fill="#939697"/>
<path d="M49.956 21.8495C49.9417 22.0204 49.8155 22.0317 49.6807 22.0261C49.7237 21.8971 49.8183 21.841 49.956 21.8495Z" fill="#939697"/>
<path d="M67.5897 20.6105C67.7073 20.4199 67.7991 20.4591 67.8765 20.6413C67.7819 20.6301 67.6844 20.6217 67.5897 20.6105Z" fill="#939697"/>
<path d="M73.4437 22.3901C73.6158 22.407 73.6272 22.5275 73.6244 22.6564C73.4953 22.6116 73.4351 22.5247 73.4437 22.3901Z" fill="#939697"/>
<path d="M58.9449 27.7443C58.7814 27.7275 58.7671 27.6126 58.7671 27.4893C58.8933 27.5313 58.9191 27.6378 58.9449 27.7443Z" fill="#939697"/>
<path d="M55.8903 20.6243C55.9275 20.4673 56.0365 20.4617 56.1627 20.5038C56.0796 20.5598 56.0079 20.6411 55.8903 20.6243Z" fill="#939697"/>
<path d="M65.08 22.3761C65.0943 22.2275 65.2062 22.2051 65.3266 22.1938C65.3008 22.3284 65.1889 22.3508 65.08 22.3761Z" fill="#939697"/>
<path d="M55.3368 10.6844C55.3569 10.519 55.4802 10.5078 55.6121 10.5078C55.5634 10.6283 55.463 10.676 55.3368 10.6844Z" fill="#939697"/>
<path d="M61.2854 20.5851C61.2912 20.6271 61.294 20.6691 61.2998 20.714C61.1535 20.7056 61.1506 20.5851 61.1219 20.4897C61.1937 20.4954 61.251 20.5234 61.2883 20.5879L61.2854 20.5851Z" fill="#939697"/>
<path d="M48.0142 12.812C47.9913 12.9522 47.8823 12.9662 47.7676 12.969C47.7991 12.84 47.9053 12.8232 48.0142 12.812Z" fill="#939697"/>
<path d="M49.3079 14.6621C49.3251 14.55 49.3939 14.5051 49.5058 14.5107C49.4713 14.6004 49.4226 14.6733 49.3079 14.6621Z" fill="#939697"/>
<path d="M52.1903 10.1629C52.1703 10.289 52.0928 10.3367 51.9695 10.3199C52.0039 10.2134 52.0727 10.1545 52.1903 10.1629Z" fill="#939697"/>
<path d="M61.9278 10.3337C61.8016 10.3225 61.7414 10.258 61.7615 10.1318C61.8791 10.1515 61.925 10.2243 61.9278 10.3337Z" fill="#939697"/>
<path d="M51.6339 20.7782C51.6139 20.8988 51.5393 20.9464 51.4188 20.9268C51.4532 20.8259 51.5192 20.767 51.6339 20.7782Z" fill="#939697"/>
<path d="M69.2618 20.4002C69.2618 20.3077 69.2905 20.2376 69.3909 20.2124C69.411 20.3161 69.3393 20.3582 69.2618 20.4002Z" fill="#939697"/>
<path d="M52.6436 12.4728C52.6608 12.3719 52.7296 12.327 52.83 12.3242C52.7984 12.4111 52.7612 12.4896 52.6436 12.4728Z" fill="#939697"/>
<path d="M48.2924 12.6325C48.2724 12.7418 48.2007 12.7838 48.0917 12.7754C48.1261 12.6829 48.1777 12.6156 48.2924 12.6325Z" fill="#939697"/>
<path d="M52.2706 12.725C52.2936 12.6353 52.3567 12.5989 52.4456 12.5933C52.4226 12.6802 52.3825 12.7474 52.2706 12.725Z" fill="#939697"/>
<path d="M60.6745 12.5933C60.7778 12.6129 60.8179 12.6774 60.8179 12.7755C60.7262 12.7474 60.6573 12.7026 60.6745 12.5933Z" fill="#939697"/>
<path d="M51.8118 13.0221C51.829 12.9184 51.8978 12.8735 52.0011 12.8735C51.9695 12.9604 51.9294 13.0389 51.8118 13.0221Z" fill="#939697"/>
<path d="M60.9384 12.9575C61.0474 12.9743 61.0932 13.0416 61.0932 13.1453C61.0015 13.1117 60.924 13.0696 60.9384 12.9575Z" fill="#939697"/>
<path d="M60.9269 20.2178C61.0473 20.2318 61.0904 20.3019 61.0789 20.414C60.9842 20.3804 60.9211 20.3271 60.9269 20.2178Z" fill="#939697"/>
<path d="M47.4549 13.168C47.4348 13.283 47.3631 13.325 47.2484 13.3138C47.2828 13.2213 47.3373 13.1512 47.4549 13.168Z" fill="#939697"/>
<path d="M51.436 13.2742C51.4561 13.1789 51.525 13.1425 51.6167 13.1396C51.5881 13.2265 51.5479 13.2938 51.436 13.2742Z" fill="#939697"/>
<path d="M50.9771 13.5686C50.9943 13.4621 51.0631 13.4172 51.1692 13.42C51.1348 13.5069 51.0946 13.5826 50.9771 13.5686Z" fill="#939697"/>
<path d="M50.6013 13.8239C50.6185 13.723 50.6874 13.6865 50.782 13.6865C50.7533 13.7734 50.7103 13.8407 50.6013 13.8239Z" fill="#939697"/>
<path d="M64.406 13.8772C64.297 13.8548 64.2454 13.7875 64.254 13.6782C64.3515 13.7091 64.4203 13.7623 64.406 13.8772Z" fill="#939697"/>
<path d="M61.5005 13.7734C61.6038 13.7903 61.6497 13.8547 61.6497 13.9528C61.5636 13.922 61.4833 13.8856 61.5005 13.7734Z" fill="#939697"/>
<path d="M53.2975 17.109C53.309 17.0081 53.3721 16.9576 53.4724 16.9492C53.461 17.0501 53.4093 17.1118 53.2975 17.109Z" fill="#939697"/>
<path d="M50.1425 14.1154C50.1597 14.006 50.2285 13.9612 50.3375 13.964C50.3031 14.0537 50.2572 14.1266 50.1425 14.1154Z" fill="#939697"/>
<path d="M61.7616 14.1348C61.8763 14.1544 61.9308 14.2189 61.9193 14.3338C61.8275 14.2973 61.7558 14.2441 61.7616 14.1348Z" fill="#939697"/>
<path d="M49.7667 14.3675C49.7839 14.2638 49.8528 14.2273 49.9532 14.2301C49.9245 14.317 49.8757 14.3815 49.7667 14.3675Z" fill="#939697"/>
<path d="M60.7977 30.4635C60.6715 30.4439 60.6285 30.3682 60.6457 30.2505C60.7404 30.2925 60.8063 30.3514 60.7977 30.4635Z" fill="#939697"/>
<path d="M62.0283 14.502C62.1574 14.5188 62.209 14.5889 62.1889 14.7122C62.0857 14.6786 62.0254 14.6141 62.0283 14.502Z" fill="#939697"/>
<path d="M48.9349 14.9168C48.955 14.8131 49.0239 14.7766 49.1214 14.7794C49.0898 14.8663 49.0439 14.9336 48.9349 14.9168Z" fill="#939697"/>
<path d="M62.3265 14.9561C62.4383 14.9701 62.4871 15.0373 62.4814 15.1439C62.3982 15.1074 62.3207 15.0654 62.3265 14.9561Z" fill="#939697"/>
<path d="M62.5961 15.3208C62.7194 15.3348 62.7653 15.4077 62.751 15.5226C62.6535 15.489 62.5875 15.4329 62.5961 15.3208Z" fill="#939697"/>
<path d="M60.6515 19.856C60.7633 19.87 60.8121 19.9344 60.8035 20.041C60.7203 20.0045 60.6486 19.9597 60.6515 19.856Z" fill="#939697"/>
<path d="M54.9639 16.0244C54.9839 15.9151 55.0499 15.8618 55.1675 15.8731C55.1274 15.9599 55.0786 16.0328 54.9639 16.0244Z" fill="#939697"/>
<path d="M49.1213 19.8282C49.1328 19.7273 49.1959 19.6769 49.2963 19.6685C49.2762 19.761 49.2303 19.8282 49.1213 19.8282Z" fill="#939697"/>
<path d="M50.7047 16.1756C50.6846 16.2765 50.6186 16.3158 50.5211 16.3186C50.5555 16.2373 50.59 16.1588 50.7047 16.1756Z" fill="#939697"/>
<path d="M54.5021 16.3074C54.5193 16.1812 54.5939 16.1336 54.7201 16.1532C54.6828 16.2541 54.6168 16.313 54.5021 16.3074Z" fill="#939697"/>
<path d="M60.3876 19.4888C60.488 19.5028 60.5339 19.5645 60.5339 19.6598C60.4536 19.6289 60.3761 19.5953 60.3876 19.4888Z" fill="#939697"/>
<path d="M50.3318 16.4222C50.3117 16.5399 50.2429 16.5904 50.1224 16.5736C50.1626 16.4839 50.22 16.4166 50.3318 16.4222Z" fill="#939697"/>
<path d="M54.1321 16.5654C54.1493 16.4533 54.2153 16.4056 54.33 16.414C54.2927 16.4981 54.2439 16.571 54.1321 16.5654Z" fill="#939697"/>
<path d="M53.6703 16.8514C53.6846 16.7253 53.7621 16.6804 53.8825 16.6972C53.8481 16.7954 53.7821 16.857 53.6703 16.8514Z" fill="#939697"/>
<path d="M72.589 22.4268C72.6291 22.3371 72.698 22.2979 72.7955 22.3063C72.7639 22.41 72.6922 22.4436 72.589 22.4268Z" fill="#939697"/>
<path d="M49.4054 16.9995C49.3853 17.0977 49.3165 17.1341 49.2218 17.1341C49.2505 17.0472 49.2964 16.9855 49.4054 16.9995Z" fill="#939697"/>
<path d="M49.0296 17.2463C49.0124 17.3584 48.9435 17.4032 48.8317 17.3948C48.869 17.3079 48.9148 17.235 49.0296 17.2463Z" fill="#939697"/>
<path d="M52.8328 17.3952C52.85 17.2719 52.9245 17.2242 53.0479 17.2411C53.0135 17.342 52.9446 17.4008 52.8328 17.3952Z" fill="#939697"/>
<path d="M52.4628 17.653C52.48 17.5408 52.5459 17.496 52.6578 17.5044C52.6177 17.5885 52.5718 17.6586 52.4628 17.653Z" fill="#939697"/>
<path d="M51.9982 17.9388C52.0154 17.8155 52.09 17.7678 52.2133 17.7875C52.176 17.8856 52.1129 17.9473 51.9982 17.9388Z" fill="#939697"/>
<path d="M51.1636 18.4828C51.1808 18.3594 51.2554 18.3118 51.3787 18.3314C51.3443 18.4295 51.2783 18.4884 51.1636 18.4828Z" fill="#939697"/>
<path d="M59.5501 18.3115C59.6591 18.3283 59.7021 18.3956 59.6964 18.4965C59.6046 18.4657 59.5387 18.418 59.5501 18.3115Z" fill="#939697"/>
<path d="M50.7936 18.7404C50.8079 18.6283 50.8768 18.5834 50.9886 18.5918C50.9485 18.6731 50.9026 18.746 50.7936 18.7404Z" fill="#939697"/>
<path d="M59.814 18.6763C59.9288 18.6903 59.9775 18.7548 59.9689 18.8641C59.88 18.8304 59.8054 18.7856 59.814 18.6763Z" fill="#939697"/>
<path d="M50.3289 19.0236C50.3432 18.8946 50.4235 18.8554 50.5468 18.8694C50.5038 18.9619 50.4436 19.0292 50.3289 19.0236Z" fill="#939697"/>
<path d="M55.7986 15.4776C55.8187 15.3655 55.8875 15.315 56.0022 15.3262C55.9649 15.4159 55.9133 15.486 55.7986 15.4776Z" fill="#939697"/>
<path d="M49.9589 19.2843C49.9703 19.1834 50.0334 19.1329 50.131 19.1245C50.1137 19.2198 50.065 19.2843 49.9589 19.2843Z" fill="#939697"/>
<path d="M60.1237 19.1245C60.2213 19.1413 60.2557 19.2058 60.2614 19.2955C60.1725 19.2703 60.1094 19.2282 60.1237 19.1245Z" fill="#939697"/>
<path d="M49.4943 19.5675C49.5086 19.4386 49.5918 19.3993 49.7122 19.4133C49.6692 19.5058 49.609 19.5731 49.4943 19.5675Z" fill="#939697"/>
<path d="M57.8837 23.021C57.9898 23.0378 58.0328 23.1023 58.0328 23.2032C57.9525 23.1668 57.8694 23.1331 57.8837 23.021Z" fill="#939697"/>
<path d="M52.0011 23.1081C52.0154 22.9791 52.0929 22.9343 52.2162 22.9567C52.1818 23.0604 52.1158 23.1165 52.0011 23.1081Z" fill="#939697"/>
<path d="M51.6254 23.366C51.6426 23.2538 51.7085 23.2006 51.8261 23.2174C51.7831 23.2987 51.7344 23.3744 51.6254 23.366Z" fill="#939697"/>
<path d="M63.0752 23.2002C63.1899 23.2226 63.2301 23.2927 63.2215 23.3992C63.1125 23.374 63.0895 23.2899 63.0752 23.2002Z" fill="#939697"/>
<path d="M63.689 23.3659C63.7062 23.2482 63.775 23.2033 63.8926 23.2146C63.8611 23.3099 63.8066 23.3799 63.689 23.3659Z" fill="#939697"/>
<path d="M71.2036 23.3492C71.2208 23.2427 71.2925 23.2034 71.3958 23.209C71.3642 23.2987 71.3097 23.3576 71.2036 23.3492Z" fill="#939697"/>
<path d="M48.1978 22.9567C48.1806 23.0688 48.1118 23.1193 47.9971 23.1081C48.0344 23.0184 48.0831 22.9455 48.1978 22.9567Z" fill="#939697"/>
<path d="M51.1636 23.6487C51.1808 23.5226 51.2554 23.4777 51.3787 23.5002C51.3443 23.6011 51.2783 23.66 51.1636 23.6487Z" fill="#939697"/>
<path d="M63.3132 23.4834C63.3821 23.4834 63.448 23.4834 63.5169 23.4834C63.448 23.5787 63.3821 23.7105 63.3132 23.4834Z" fill="#939697"/>
<path d="M50.7906 23.9069C50.8079 23.7948 50.8767 23.7472 50.9914 23.7612C50.9484 23.8397 50.8996 23.9153 50.7906 23.9069Z" fill="#939697"/>
<path d="M58.4372 23.8369C58.5433 23.8537 58.5892 23.921 58.5864 24.0219C58.5032 23.9855 58.42 23.949 58.4372 23.8369Z" fill="#939697"/>
<path d="M58.6954 24.2012C58.8159 24.2208 58.8704 24.2853 58.8503 24.4086C58.7585 24.3694 58.6925 24.3105 58.6954 24.2012Z" fill="#939697"/>
<path d="M58.9908 24.6553C59.0969 24.6721 59.1428 24.7366 59.1399 24.8403C59.0568 24.8038 58.9736 24.7674 58.9908 24.6553Z" fill="#939697"/>
<path d="M66.0065 26.6453C66.0237 26.5136 66.1069 26.4659 66.2359 26.4827C66.1929 26.5837 66.1298 26.6537 66.0065 26.6453Z" fill="#939697"/>
<path d="M65.6335 26.8952C65.6536 26.7774 65.7311 26.7382 65.8429 26.7494C65.8028 26.8391 65.7483 26.9092 65.6335 26.8952Z" fill="#939697"/>
<path d="M64.799 27.4473C64.8104 27.3379 64.8793 27.2903 64.9854 27.2847C64.9854 27.4052 64.9165 27.4529 64.799 27.4473Z" fill="#939697"/>
<path d="M72.0382 22.8107C72.0583 22.7014 72.1271 22.6621 72.2361 22.6705C72.2017 22.7602 72.1501 22.8247 72.0382 22.8107Z" fill="#939697"/>
<path d="M68.6193 27.621C68.5964 27.7135 68.5275 27.7471 68.4386 27.7471C68.4759 27.6714 68.5218 27.6097 68.6193 27.621Z" fill="#939697"/>
<path d="M56.1227 27.8257C56.2345 27.8481 56.2718 27.9238 56.2661 28.0247C56.1571 27.9995 56.1485 27.907 56.1227 27.8257Z" fill="#939697"/>
<path d="M64.3458 30.3203C64.3286 30.424 64.2597 30.4633 64.1622 30.4633C64.2081 30.396 64.2368 30.3091 64.3458 30.3203Z" fill="#939697"/>
<path d="M68.3383 22.6902C68.3211 22.8051 68.2465 22.8471 68.1346 22.8331C68.1691 22.7378 68.2236 22.6733 68.3383 22.6902Z" fill="#939697"/>
<path d="M57.8722 30.3682C57.987 30.385 58.0328 30.4523 58.03 30.5616C57.9497 30.5195 57.8665 30.4803 57.8722 30.3682Z" fill="#939697"/>
<path d="M63.8839 30.6206C63.861 30.7103 63.795 30.7355 63.709 30.7383C63.7434 30.6654 63.7893 30.6094 63.8839 30.6206Z" fill="#939697"/>
<path d="M56.897 28.9131C56.986 28.9467 57.0146 29.0168 57.0118 29.1037C56.9171 29.0729 56.8827 29.0056 56.897 28.9131Z" fill="#939697"/>
<path d="M58.1733 30.8193C58.2737 30.8362 58.311 30.9034 58.311 30.9959C58.2336 30.9623 58.1733 30.9118 58.1733 30.8193Z" fill="#939697"/>
<path d="M63.5082 30.853C63.491 30.9596 63.4222 31.0044 63.316 31.0016C63.3619 30.9287 63.3963 30.8418 63.5082 30.853Z" fill="#939697"/>
<path d="M56.4897 28.3696C56.6044 28.3864 56.6446 28.4593 56.636 28.563C56.5528 28.5238 56.484 28.4733 56.4897 28.3696Z" fill="#939697"/>
<path d="M61.3542 31.2791C61.228 31.2595 61.1879 31.1838 61.2022 31.0688C61.294 31.1109 61.3628 31.167 61.3542 31.2791Z" fill="#939697"/>
<path d="M63.0465 31.1445C63.0293 31.2454 62.9576 31.2791 62.8629 31.2791C62.9002 31.2034 62.9518 31.1445 63.0465 31.1445Z" fill="#939697"/>
<path d="M52.4572 22.8247C52.4772 22.7126 52.5432 22.6565 52.6637 22.6733C52.6235 22.7602 52.569 22.8303 52.4572 22.8247Z" fill="#939697"/>
<path d="M58.4315 31.1836C58.5405 31.2004 58.5892 31.2649 58.5864 31.3714C58.5118 31.3266 58.4229 31.2929 58.4315 31.1836Z" fill="#939697"/>
<path d="M61.5063 28.3638C61.6181 28.3806 61.6583 28.4507 61.6525 28.5544C61.5579 28.5264 61.5005 28.4675 61.5063 28.3638Z" fill="#939697"/>
<path d="M48.5736 22.7069C48.5564 22.8106 48.4875 22.8498 48.3843 22.8442C48.4158 22.7573 48.4675 22.6957 48.5736 22.7069Z" fill="#939697"/>
<path d="M61.6181 31.6434C61.5091 31.6266 61.4632 31.5593 61.469 31.4556C61.5378 31.506 61.621 31.5425 61.6181 31.6434Z" fill="#939697"/>
<path d="M58.7384 31.6353C58.8359 31.6549 58.8675 31.7193 58.8703 31.8062C58.7929 31.7726 58.7384 31.725 58.7384 31.6353Z" fill="#939697"/>
<path d="M62.209 31.6773C62.1917 31.7867 62.1172 31.8231 62.0139 31.8175C62.0541 31.739 62.1057 31.6745 62.209 31.6773Z" fill="#939697"/>
<path d="M59.3924 28.3808C59.2777 28.364 59.2318 28.2939 59.2404 28.1846C59.3121 28.235 59.3953 28.2743 59.3924 28.3808Z" fill="#939697"/>
<path d="M61.9336 31.8565C61.9222 31.9126 61.8992 31.9687 61.8304 31.9603C61.7644 31.9518 61.7501 31.893 61.7472 31.8369C61.8103 31.8425 61.8734 31.8509 61.9365 31.8565H61.9336Z" fill="#939697"/>
<path d="M59.685 28.8321C59.5559 28.8124 59.5129 28.7339 59.5301 28.6162C59.6276 28.6583 59.6965 28.7171 59.685 28.8321Z" fill="#939697"/>
<path d="M58.9909 32.0024C59.0827 32.0109 59.1372 32.0557 59.1486 32.1454C59.0655 32.1286 58.9852 32.1118 58.9909 32.0024Z" fill="#939697"/>
<path d="M71.6682 28.2715C71.6797 28.1649 71.7342 28.1005 71.8489 28.0977C71.826 28.193 71.7829 28.2687 71.6682 28.2715Z" fill="#939697"/>
<path d="M57.052 29.1851C57.161 29.2019 57.2011 29.272 57.1954 29.3729C57.1122 29.3364 57.0491 29.2832 57.052 29.1851Z" fill="#939697"/>
<path d="M57.5854 22.5669C57.703 22.5865 57.7575 22.651 57.7403 22.7715C57.6514 22.7323 57.5797 22.679 57.5854 22.5669Z" fill="#939697"/>
<path d="M64.8047 22.5671C64.819 22.4409 64.8936 22.3877 65.0198 22.4073C64.9854 22.5082 64.9223 22.5727 64.8047 22.5671Z" fill="#939697"/>
<path d="M66.1097 29.219C66.0896 29.3395 66.0122 29.3759 65.8975 29.3647C65.9405 29.2778 65.9978 29.2077 66.1097 29.219Z" fill="#939697"/>
<path d="M49.0354 22.4211C49.0182 22.5304 48.9522 22.5781 48.8403 22.5697C48.8776 22.4828 48.9178 22.4071 49.0354 22.4211Z" fill="#939697"/>
<path d="M67.7819 28.148C67.7618 28.2546 67.6901 28.291 67.5897 28.2882C67.6299 28.2097 67.6815 28.1452 67.7819 28.148Z" fill="#939697"/>
<path d="M69.1729 22.1464C69.1557 22.2614 69.084 22.3034 68.9692 22.2894C69.0037 22.1969 69.0582 22.1324 69.1729 22.1464Z" fill="#939697"/>
<path d="M62.3064 22.1157C62.4383 22.1297 62.4871 22.2026 62.467 22.3288C62.3609 22.2951 62.3007 22.2307 62.3064 22.1157Z" fill="#939697"/>
<path d="M57.2957 22.1182C57.4276 22.1322 57.4764 22.2079 57.4534 22.3312C57.3473 22.3004 57.2899 22.2303 57.2957 22.1182Z" fill="#939697"/>
<path d="M53.2946 22.2866C53.3146 22.1716 53.3806 22.1156 53.5039 22.1352C53.4638 22.2249 53.4064 22.2922 53.2946 22.2866Z" fill="#939697"/>
<path d="M49.411 22.177C49.391 22.2723 49.3221 22.3059 49.2303 22.3059C49.259 22.219 49.3049 22.1574 49.411 22.177Z" fill="#939697"/>
<path d="M66.9472 28.6834C66.93 28.7984 66.8525 28.8348 66.7435 28.8264C66.7837 28.7423 66.8382 28.6778 66.9472 28.6834Z" fill="#939697"/>
<path d="M63.9614 27.9855C63.9758 27.8789 64.0446 27.8313 64.1479 27.8257C64.145 27.9434 64.0762 27.9911 63.9614 27.9855Z" fill="#939697"/>
<path d="M59.1285 28.0191C58.9994 27.9994 58.9564 27.921 58.9736 27.8032C59.0711 27.8453 59.1399 27.9041 59.1285 28.0191Z" fill="#939697"/>
<path d="M53.7563 21.995C53.7736 21.8913 53.8395 21.8464 53.9456 21.8492C53.9112 21.9333 53.8739 22.0118 53.7563 21.995Z" fill="#939697"/>
<path d="M62.0368 21.751C62.1573 21.7706 62.2147 21.8351 62.1974 21.9556C62.1028 21.9164 62.034 21.8603 62.0368 21.751Z" fill="#939697"/>
<path d="M57.0318 21.751C57.1494 21.7706 57.2039 21.8351 57.1867 21.9528C57.0978 21.9136 57.0232 21.8631 57.0318 21.751Z" fill="#939697"/>
<path d="M62.883 22.9312C63.0034 22.948 63.0493 23.0181 63.0378 23.1302C62.9403 23.0965 62.8715 23.0461 62.883 22.9312Z" fill="#939697"/>
<path d="M70.0075 21.6054C69.9903 21.7204 69.9186 21.7624 69.8068 21.7484C69.8412 21.6559 69.8957 21.5914 70.0075 21.6054Z" fill="#939697"/>
<path d="M66.0065 21.7261C66.0237 21.6224 66.0868 21.5747 66.1929 21.5747C66.1585 21.6588 66.1241 21.7429 66.0065 21.7261Z" fill="#939697"/>
<path d="M60.2414 29.6475C60.1123 29.6279 60.0693 29.5494 60.0865 29.4316C60.1812 29.4737 60.25 29.5326 60.2414 29.6475Z" fill="#939697"/>
<path d="M71.0229 28.8237C71.0344 28.7144 71.0918 28.6499 71.2094 28.6499C71.1807 28.7424 71.1405 28.8237 71.0229 28.8237Z" fill="#939697"/>
<path d="M61.773 21.3867C61.8848 21.4035 61.9336 21.468 61.9279 21.5773C61.8361 21.5437 61.7558 21.5045 61.773 21.3867Z" fill="#939697"/>
<path d="M65.2721 29.7513C65.252 29.8774 65.1717 29.9167 65.0513 29.8998C65.0943 29.8045 65.1545 29.7401 65.2721 29.7513Z" fill="#939697"/>
<path d="M61.7644 28.731C61.8762 28.7506 61.9307 28.8151 61.9193 28.93C61.8246 28.8963 61.7472 28.8487 61.7644 28.731Z" fill="#939697"/>
<path d="M56.7422 21.3027C56.8741 21.3168 56.92 21.3924 56.8971 21.513C56.7909 21.4793 56.7336 21.4149 56.7422 21.3027Z" fill="#939697"/>
<path d="M51.6282 18.1969C51.6425 18.0848 51.7113 18.0399 51.8232 18.0484C51.7831 18.1296 51.7372 18.2025 51.6282 18.1969Z" fill="#939697"/>
<path d="M50.7935 21.3168C50.7763 21.443 50.7017 21.4878 50.5784 21.4654C50.6128 21.3617 50.6788 21.3056 50.7935 21.3168Z" fill="#939697"/>
<path d="M68.7111 21.314C68.7054 21.2103 68.7455 21.1402 68.8574 21.1206C68.8717 21.2299 68.7914 21.272 68.7111 21.314Z" fill="#939697"/>
<path d="M66.7493 21.1849C66.7665 21.07 66.8353 21.0251 66.95 21.0363C66.9185 21.1316 66.8697 21.2017 66.7493 21.1849Z" fill="#939697"/>
<path d="M55.0529 21.1597C55.0729 21.0616 55.1389 21.0252 55.2364 21.028C55.2106 21.1177 55.159 21.1765 55.0529 21.1597Z" fill="#939697"/>
<path d="M56.4783 20.9355C56.5931 20.9524 56.6447 21.0168 56.6304 21.1318C56.5443 21.0925 56.4697 21.0449 56.4783 20.9355Z" fill="#939697"/>
<path d="M67.2254 28.5346C67.1881 28.6243 67.1164 28.6496 67.0247 28.644C67.0562 28.5487 67.1279 28.5178 67.2254 28.5346Z" fill="#939697"/>
<path d="M67.1193 20.9215C67.1336 20.8094 67.1996 20.7561 67.3172 20.7645C67.2856 20.857 67.2397 20.9327 67.1193 20.9215Z" fill="#939697"/>
<path d="M55.4286 20.9132C55.4458 20.8039 55.5118 20.7562 55.6236 20.7646C55.5892 20.8515 55.5462 20.93 55.4286 20.9132Z" fill="#939697"/>
<path d="M62.0053 10.4237C61.9795 10.3929 61.9537 10.3648 61.9279 10.334C61.9766 10.3452 62.0053 10.3704 62.0053 10.4237Z" fill="#939697"/>
<path d="M46.8011 11.416L46.781 11.4469L46.804 11.4216L46.8011 11.416Z" fill="#939697"/>
<path d="M51.6254 13.1342C51.6598 13.1089 51.6942 13.0809 51.7286 13.0557C51.7114 13.1033 51.6799 13.1314 51.6254 13.1342Z" fill="#939697"/>
<path d="M61.9536 14.415C61.9766 14.4431 61.9995 14.4683 62.0253 14.4963C61.9823 14.4851 61.9565 14.4627 61.9536 14.415Z" fill="#939697"/>
<path d="M55.2507 15.8363C55.2765 15.8139 55.3024 15.7915 55.331 15.769C55.3224 15.8111 55.2995 15.8363 55.2507 15.8363Z" fill="#939697"/>
<path d="M50.8824 16.0693C50.8566 16.0918 50.8279 16.1142 50.8021 16.1366C50.8136 16.0946 50.8365 16.0693 50.8824 16.0693Z" fill="#939697"/>
<path d="M54.416 16.3803C54.4418 16.3578 54.4676 16.3354 54.4935 16.313C54.4849 16.355 54.4619 16.3803 54.416 16.3803Z" fill="#939697"/>
<path d="M53.4839 16.9354C53.5068 16.8906 53.5441 16.8682 53.5929 16.8682C53.5556 16.8906 53.5183 16.913 53.4839 16.9354Z" fill="#939697"/>
<path d="M52.2792 10.09C52.2534 10.1125 52.2276 10.1349 52.2018 10.1573C52.2104 10.1153 52.2333 10.0872 52.2792 10.09Z" fill="#939697"/>
<path d="M64.7129 22.6427C64.7416 22.6175 64.7703 22.5951 64.7989 22.5698C64.7875 22.6147 64.7616 22.6427 64.7129 22.6427Z" fill="#939697"/>
<path d="M51.72 20.7138C51.7057 20.7419 51.6856 20.7615 51.6541 20.7671C51.6569 20.7278 51.6799 20.7082 51.72 20.7138Z" fill="#939697"/>
<path d="M46.0639 20.6689C46.0782 20.6858 46.0954 20.7026 46.104 20.7222C46.104 20.7278 46.0897 20.7418 46.0839 20.753C46.061 20.7278 46.0553 20.6998 46.0639 20.6689Z" fill="#939697"/>
<path d="M51.9121 18.0089C51.9379 17.9893 51.9609 17.9669 51.9867 17.9473C51.9781 17.9865 51.9551 18.0089 51.9121 18.0089Z" fill="#939697"/>
<path d="M52.7468 17.4678C52.7726 17.4454 52.7985 17.4257 52.8214 17.4033C52.8128 17.4426 52.7898 17.4678 52.7468 17.4678Z" fill="#939697"/>
<path d="M64.4576 13.9472L64.429 13.9136L64.4605 13.9192L64.4576 13.9472Z" fill="#939697"/>
<path d="M64.5264 30.2165C64.4977 30.2389 64.4719 30.2614 64.4432 30.281C64.4547 30.2389 64.4777 30.2137 64.5264 30.2165Z" fill="#939697"/>
<path d="M51.0775 18.5529C51.1033 18.5333 51.1263 18.5108 51.1521 18.4912C51.1435 18.5305 51.1205 18.5529 51.0775 18.5529Z" fill="#939697"/>
<path d="M65.8257 21.8411C65.8601 21.813 65.8945 21.7878 65.9289 21.7598C65.9146 21.8102 65.8802 21.8383 65.8257 21.8411Z" fill="#939697"/>
<path d="M60.27 19.3096C60.2958 19.3404 60.3216 19.3712 60.3446 19.3993C60.2987 19.3853 60.27 19.3572 60.27 19.3096Z" fill="#939697"/>
<path d="M68.43 27.7497C68.3927 27.7749 68.3583 27.8029 68.321 27.8282C68.3383 27.7777 68.3727 27.7469 68.43 27.7497Z" fill="#939697"/>
<path d="M46.1413 19.0825C46.1269 19.1049 46.1069 19.119 46.0811 19.133C46.0868 19.0993 46.1069 19.0825 46.1413 19.0825Z" fill="#939697"/>
<path d="M49.3049 19.6546C49.3422 19.6321 49.3795 19.6097 49.4168 19.5845C49.3795 19.6069 49.3422 19.6293 49.3049 19.6546Z" fill="#939697"/>
<path d="M64.9883 27.2791C65.0026 27.223 65.0399 27.1978 65.1001 27.2062C65.0629 27.2314 65.0256 27.2538 64.9883 27.2791Z" fill="#939697"/>
<path d="M64.1508 27.8197C64.1651 27.7665 64.1995 27.7413 64.2569 27.7469C64.2225 27.7721 64.1852 27.7945 64.1508 27.8197Z" fill="#939697"/>
</g>
<defs>
<clipPath id="clip0_365_827">
<rect width="112" height="46" fill="white" transform="translate(5 2)"/>
</clipPath>
</defs>
</svg>
