<svg width="160" height="110" viewBox="0 0 160 110" fill="none" xmlns="http://www.w3.org/2000/svg">
<mask id="mask0_343_199" style="mask-type:alpha" maskUnits="userSpaceOnUse" x="0" y="0" width="160" height="110">
<rect width="160" height="110" fill="#D9D9D9"/>
</mask>
<g mask="url(#mask0_343_199)">
<path d="M107.376 3.37345C107.087 3.68304 107.025 4.19904 107.025 6.05663C107.025 8.30638 107.025 8.34766 107.582 8.7811C107.995 9.11134 108.325 9.1939 108.78 9.11134C109.832 8.8843 110.018 8.53342 110.1 6.49007C110.162 4.44672 110.08 3.80688 109.584 3.33217C109.13 2.87809 107.789 2.89873 107.376 3.37345Z" fill="#07BCFF"/>
<path d="M94.7448 6.81977C94.4558 7.08808 94.2288 7.54216 94.2288 7.78984C94.2288 8.34712 95.9212 11.4431 96.4372 11.8146C97.3867 12.537 98.8521 11.794 98.8315 10.6175C98.8315 9.85383 97.4279 7.27384 96.6849 6.65465C96.0657 6.15929 95.3227 6.22121 94.7448 6.81977Z" fill="#07BCFF"/>
<path d="M120.4 6.51072C119.842 6.84096 118.171 9.93695 118.171 10.6387C118.171 11.4643 118.81 12.0835 119.677 12.0835C120.503 12.0835 120.751 11.8358 121.865 9.91631C122.815 8.28576 122.938 7.35696 122.299 6.71712C121.865 6.28369 120.978 6.18049 120.4 6.51072Z" fill="#07BCFF"/>
<mask id="path-5-inside-1_343_199" fill="white">
<path d="M105.065 11.1337C97.9232 12.2895 92.7426 16.6239 91.0914 22.7952C90.369 25.4784 90.5341 29.7715 91.4629 33.0739L91.5868 33.5486L61.7002 33.5899L31.793 33.6518L30.9468 34.1059C29.8528 34.6838 28.7383 35.9428 28.3049 37.078C27.9953 37.9036 27.9746 40.6075 28.0159 70.7211L28.0778 103.456L28.7796 104.488C29.1717 105.066 29.9354 105.83 30.5133 106.222L31.5453 106.923L69.7498 106.985C98.3773 107.027 108.181 106.985 108.842 106.8C110.018 106.469 111.504 105.107 112.103 103.827L112.598 102.795V81.9285V61.0822L113.321 60.3805C114.126 59.5962 114.456 58.688 114.456 57.2639C114.456 56.3144 114.476 56.2938 115.364 55.9635C116.334 55.592 117.634 54.333 117.965 53.4455C118.088 53.1565 118.171 51.7324 118.171 50.2876C118.171 45.6023 118.481 44.7354 121.927 39.6167C125.56 34.2091 126.303 32.0625 126.303 27.047C126.282 24.3639 126.221 23.724 125.787 22.2999C124.136 16.8922 119.698 12.95 113.589 11.4639C111.38 10.9067 107.314 10.7622 105.065 11.1337ZM112.805 14.4774C113.548 14.6425 115.075 15.241 116.21 15.7983C119.492 17.3876 121.659 19.8024 122.732 23.0636C123.145 24.3432 123.228 24.9624 123.228 27.1503C123.207 31.2576 122.423 33.4248 119.306 37.8624C116.52 41.8252 115.632 43.7034 115.323 46.139L115.178 47.2742L113.981 47.3361L112.805 47.398V42.0729V36.7478L113.981 36.1286C116.231 34.9521 118.192 32.3928 118.77 29.8334C119.513 26.5723 118.233 24.1781 115.777 24.2194C112.805 24.2813 110.617 27.6662 109.812 33.3835L109.688 34.3742H108.491H107.294L107.149 33.1771C106.695 29.1523 104.92 25.6229 102.836 24.5496C102.031 24.1162 100.379 24.1368 99.6363 24.5909C98.336 25.3546 97.7375 27.2947 98.1503 29.3381C98.7488 32.2689 100.668 34.9109 103.104 36.2112L104.342 36.8716V42.1348V47.3774H103.145H101.948L101.618 45.6436C101.205 43.3732 100.256 41.4743 97.9439 38.1926C94.7447 33.6518 93.7746 31.1337 93.754 27.2534C93.7127 23.4557 94.7653 20.7725 97.304 18.2751C99.5125 16.0873 101.886 14.9108 105.436 14.2297C107.273 13.8788 110.926 14.0026 112.805 14.4774ZM102.154 28.0378C103.021 29.173 104.198 32.5166 103.847 32.8675C103.62 33.0945 102.216 31.4021 101.742 30.3288C100.689 27.9139 100.937 26.4485 102.154 28.0378ZM115.901 28.0584C115.901 29.173 115.075 31.0305 114.126 32.0625C113.651 32.5992 113.197 32.9707 113.135 32.9088C112.97 32.7643 113.548 30.5971 114.064 29.4413C114.476 28.5125 115.405 27.3566 115.735 27.3566C115.818 27.3566 115.901 27.6663 115.901 28.0584ZM93.4237 37.0987C93.5476 37.367 94.4144 38.6467 95.3226 39.947C97.0564 42.3825 98.3567 44.7354 98.3567 45.3546C98.3567 45.7055 97.8819 45.7262 91.2565 45.7262H84.1358L82.5259 44.5703C81.6383 43.9305 80.4 43.1462 79.7808 42.8366C72.6187 39.2246 63.9293 40.0089 57.6961 44.7974L56.499 45.7262H43.6609H30.8229L30.9055 42.1555C30.9674 39.0801 31.0293 38.5228 31.3802 37.9449C32.2058 36.562 29.956 36.6446 63.1037 36.6446H93.176L93.4237 37.0987ZM109.709 42.4238V47.3774H108.573H107.438V42.4238V37.4702H108.573H109.709V42.4238ZM74.7859 44.2814C79.9046 45.7262 83.7643 48.9253 86.0759 53.6312C87.4794 56.4795 87.7271 57.656 87.7271 61.3093C87.7271 64.9419 87.4794 66.139 86.0759 68.9873C83.8055 73.59 79.7601 76.9543 74.724 78.3785C73.3411 78.7706 72.5981 78.8326 70.1832 78.8326C66.8189 78.8119 65.1058 78.3991 61.824 76.8098C60.2761 76.0462 59.6775 75.8604 58.79 75.8604C57.3865 75.8604 56.3751 76.2938 55.3018 77.3258L54.4762 78.1308L53.9809 77.6148L53.4855 77.0988L54.2286 76.3145C55.3018 75.1999 55.694 74.2918 55.7146 72.8676C55.7353 71.7943 55.6114 71.3609 54.7652 69.6684C52.6187 65.2928 52.1646 61.9285 53.0727 57.5322C54.4969 50.7623 59.9045 45.4991 66.984 43.9718C68.8829 43.559 72.8251 43.7034 74.7859 44.2814ZM53.3204 49.2762C51.0707 52.7024 50.0593 55.4269 49.6465 59.1008C49.2131 63.1049 49.8942 66.7995 51.8343 70.8243C52.8663 72.9502 52.8457 73.1979 51.7105 74.4775C51.1532 75.1174 50.9881 75.1999 50.3483 75.0967C48.8003 74.8491 48.2843 75.2619 41.6589 81.8873C37.3864 86.1804 35.3224 88.4095 35.0747 88.9667C34.6207 90.04 34.6 92.4136 35.0335 93.425C35.4875 94.4776 36.7672 95.8192 37.7579 96.3352C38.9344 96.9337 40.8539 97.0576 42.2368 96.6035C43.2688 96.2733 43.8467 95.7366 49.6259 90.0194C53.114 86.5519 56.0036 83.5178 56.1687 83.1463C56.3338 82.7748 56.4577 82.0317 56.4577 81.4538C56.4577 80.5457 56.5402 80.3805 57.2833 79.6994C57.7786 79.266 58.3153 78.9564 58.6249 78.9564C58.9138 78.9564 59.8633 79.3073 60.7508 79.7613C69.0067 83.91 78.9139 82.2588 85.1678 75.7159C87.6033 73.1566 89.1926 70.4321 90.2452 67.0472C90.7612 65.3341 90.8025 64.9832 90.8025 61.3093C90.8025 57.6354 90.7612 57.2845 90.2452 55.5714C89.6466 53.6519 88.3257 50.8036 87.5001 49.7097C87.2318 49.3588 87.0047 49.0079 87.0047 48.946C87.0047 48.8841 89.6466 48.8221 92.8871 48.8221H98.7695V50.6178C98.7695 51.6292 98.8727 52.7644 98.9759 53.1772C99.2648 54.2298 100.544 55.592 101.556 55.9429L102.381 56.2112L102.588 57.7799C102.815 59.4723 103.228 60.1741 104.342 60.9378C104.941 61.3506 105.271 61.4125 107.252 61.4125H109.502V81.7428C109.502 104.199 109.585 102.919 108.202 103.662C107.583 104.013 105.519 104.034 70.1832 104.034C34.3936 104.034 32.8044 104.013 32.2677 103.662C31.9581 103.456 31.5453 103.043 31.3389 102.734C30.988 102.197 30.9674 100.897 30.9055 75.4889L30.8642 48.8221H42.2368H53.6094L53.3204 49.2762ZM115.075 51.4021C115.075 52.0626 114.951 52.4548 114.662 52.7437C114.27 53.1359 113.981 53.1565 108.532 53.1565C102.959 53.1565 102.815 53.1565 102.34 52.7024C101.989 52.3722 101.865 52.042 101.865 51.3608V50.4733H108.47H115.075V51.4021ZM111.36 57.0575C111.36 58.3578 111.05 58.5229 108.553 58.5229C106.076 58.5229 105.581 58.2752 105.581 56.9749V56.2525H108.47H111.36V57.0575ZM47.4793 87.6252C41.2461 93.8584 40.9778 94.0648 39.6568 93.7346C38.9344 93.5488 37.9643 92.4962 37.7992 91.7325C37.5515 90.4941 38.2326 89.6479 44.1769 83.7036L49.8529 78.0276L51.6692 79.8439L53.4649 81.6396L47.4793 87.6252Z"/>
</mask>
<path d="M105.065 11.1337C97.9232 12.2895 92.7426 16.6239 91.0914 22.7952C90.369 25.4784 90.5341 29.7715 91.4629 33.0739L91.5868 33.5486L61.7002 33.5899L31.793 33.6518L30.9468 34.1059C29.8528 34.6838 28.7383 35.9428 28.3049 37.078C27.9953 37.9036 27.9746 40.6075 28.0159 70.7211L28.0778 103.456L28.7796 104.488C29.1717 105.066 29.9354 105.83 30.5133 106.222L31.5453 106.923L69.7498 106.985C98.3773 107.027 108.181 106.985 108.842 106.8C110.018 106.469 111.504 105.107 112.103 103.827L112.598 102.795V81.9285V61.0822L113.321 60.3805C114.126 59.5962 114.456 58.688 114.456 57.2639C114.456 56.3144 114.476 56.2938 115.364 55.9635C116.334 55.592 117.634 54.333 117.965 53.4455C118.088 53.1565 118.171 51.7324 118.171 50.2876C118.171 45.6023 118.481 44.7354 121.927 39.6167C125.56 34.2091 126.303 32.0625 126.303 27.047C126.282 24.3639 126.221 23.724 125.787 22.2999C124.136 16.8922 119.698 12.95 113.589 11.4639C111.38 10.9067 107.314 10.7622 105.065 11.1337ZM112.805 14.4774C113.548 14.6425 115.075 15.241 116.21 15.7983C119.492 17.3876 121.659 19.8024 122.732 23.0636C123.145 24.3432 123.228 24.9624 123.228 27.1503C123.207 31.2576 122.423 33.4248 119.306 37.8624C116.52 41.8252 115.632 43.7034 115.323 46.139L115.178 47.2742L113.981 47.3361L112.805 47.398V42.0729V36.7478L113.981 36.1286C116.231 34.9521 118.192 32.3928 118.77 29.8334C119.513 26.5723 118.233 24.1781 115.777 24.2194C112.805 24.2813 110.617 27.6662 109.812 33.3835L109.688 34.3742H108.491H107.294L107.149 33.1771C106.695 29.1523 104.92 25.6229 102.836 24.5496C102.031 24.1162 100.379 24.1368 99.6363 24.5909C98.336 25.3546 97.7375 27.2947 98.1503 29.3381C98.7488 32.2689 100.668 34.9109 103.104 36.2112L104.342 36.8716V42.1348V47.3774H103.145H101.948L101.618 45.6436C101.205 43.3732 100.256 41.4743 97.9439 38.1926C94.7447 33.6518 93.7746 31.1337 93.754 27.2534C93.7127 23.4557 94.7653 20.7725 97.304 18.2751C99.5125 16.0873 101.886 14.9108 105.436 14.2297C107.273 13.8788 110.926 14.0026 112.805 14.4774ZM102.154 28.0378C103.021 29.173 104.198 32.5166 103.847 32.8675C103.62 33.0945 102.216 31.4021 101.742 30.3288C100.689 27.9139 100.937 26.4485 102.154 28.0378ZM115.901 28.0584C115.901 29.173 115.075 31.0305 114.126 32.0625C113.651 32.5992 113.197 32.9707 113.135 32.9088C112.97 32.7643 113.548 30.5971 114.064 29.4413C114.476 28.5125 115.405 27.3566 115.735 27.3566C115.818 27.3566 115.901 27.6663 115.901 28.0584ZM93.4237 37.0987C93.5476 37.367 94.4144 38.6467 95.3226 39.947C97.0564 42.3825 98.3567 44.7354 98.3567 45.3546C98.3567 45.7055 97.8819 45.7262 91.2565 45.7262H84.1358L82.5259 44.5703C81.6383 43.9305 80.4 43.1462 79.7808 42.8366C72.6187 39.2246 63.9293 40.0089 57.6961 44.7974L56.499 45.7262H43.6609H30.8229L30.9055 42.1555C30.9674 39.0801 31.0293 38.5228 31.3802 37.9449C32.2058 36.562 29.956 36.6446 63.1037 36.6446H93.176L93.4237 37.0987ZM109.709 42.4238V47.3774H108.573H107.438V42.4238V37.4702H108.573H109.709V42.4238ZM74.7859 44.2814C79.9046 45.7262 83.7643 48.9253 86.0759 53.6312C87.4794 56.4795 87.7271 57.656 87.7271 61.3093C87.7271 64.9419 87.4794 66.139 86.0759 68.9873C83.8055 73.59 79.7601 76.9543 74.724 78.3785C73.3411 78.7706 72.5981 78.8326 70.1832 78.8326C66.8189 78.8119 65.1058 78.3991 61.824 76.8098C60.2761 76.0462 59.6775 75.8604 58.79 75.8604C57.3865 75.8604 56.3751 76.2938 55.3018 77.3258L54.4762 78.1308L53.9809 77.6148L53.4855 77.0988L54.2286 76.3145C55.3018 75.1999 55.694 74.2918 55.7146 72.8676C55.7353 71.7943 55.6114 71.3609 54.7652 69.6684C52.6187 65.2928 52.1646 61.9285 53.0727 57.5322C54.4969 50.7623 59.9045 45.4991 66.984 43.9718C68.8829 43.559 72.8251 43.7034 74.7859 44.2814ZM53.3204 49.2762C51.0707 52.7024 50.0593 55.4269 49.6465 59.1008C49.2131 63.1049 49.8942 66.7995 51.8343 70.8243C52.8663 72.9502 52.8457 73.1979 51.7105 74.4775C51.1532 75.1174 50.9881 75.1999 50.3483 75.0967C48.8003 74.8491 48.2843 75.2619 41.6589 81.8873C37.3864 86.1804 35.3224 88.4095 35.0747 88.9667C34.6207 90.04 34.6 92.4136 35.0335 93.425C35.4875 94.4776 36.7672 95.8192 37.7579 96.3352C38.9344 96.9337 40.8539 97.0576 42.2368 96.6035C43.2688 96.2733 43.8467 95.7366 49.6259 90.0194C53.114 86.5519 56.0036 83.5178 56.1687 83.1463C56.3338 82.7748 56.4577 82.0317 56.4577 81.4538C56.4577 80.5457 56.5402 80.3805 57.2833 79.6994C57.7786 79.266 58.3153 78.9564 58.6249 78.9564C58.9138 78.9564 59.8633 79.3073 60.7508 79.7613C69.0067 83.91 78.9139 82.2588 85.1678 75.7159C87.6033 73.1566 89.1926 70.4321 90.2452 67.0472C90.7612 65.3341 90.8025 64.9832 90.8025 61.3093C90.8025 57.6354 90.7612 57.2845 90.2452 55.5714C89.6466 53.6519 88.3257 50.8036 87.5001 49.7097C87.2318 49.3588 87.0047 49.0079 87.0047 48.946C87.0047 48.8841 89.6466 48.8221 92.8871 48.8221H98.7695V50.6178C98.7695 51.6292 98.8727 52.7644 98.9759 53.1772C99.2648 54.2298 100.544 55.592 101.556 55.9429L102.381 56.2112L102.588 57.7799C102.815 59.4723 103.228 60.1741 104.342 60.9378C104.941 61.3506 105.271 61.4125 107.252 61.4125H109.502V81.7428C109.502 104.199 109.585 102.919 108.202 103.662C107.583 104.013 105.519 104.034 70.1832 104.034C34.3936 104.034 32.8044 104.013 32.2677 103.662C31.9581 103.456 31.5453 103.043 31.3389 102.734C30.988 102.197 30.9674 100.897 30.9055 75.4889L30.8642 48.8221H42.2368H53.6094L53.3204 49.2762ZM115.075 51.4021C115.075 52.0626 114.951 52.4548 114.662 52.7437C114.27 53.1359 113.981 53.1565 108.532 53.1565C102.959 53.1565 102.815 53.1565 102.34 52.7024C101.989 52.3722 101.865 52.042 101.865 51.3608V50.4733H108.47H115.075V51.4021ZM111.36 57.0575C111.36 58.3578 111.05 58.5229 108.553 58.5229C106.076 58.5229 105.581 58.2752 105.581 56.9749V56.2525H108.47H111.36V57.0575ZM47.4793 87.6252C41.2461 93.8584 40.9778 94.0648 39.6568 93.7346C38.9344 93.5488 37.9643 92.4962 37.7992 91.7325C37.5515 90.4941 38.2326 89.6479 44.1769 83.7036L49.8529 78.0276L51.6692 79.8439L53.4649 81.6396L47.4793 87.6252Z" fill="#F1F1F1" stroke="#3E2BC5" stroke-width="1.4" mask="url(#path-5-inside-1_343_199)"/>
<path d="M35.5495 39.9474C35.116 40.2983 34.9922 40.5666 34.9922 41.1652C34.9922 42.4449 35.3637 42.6306 38.0469 42.6306C40.1522 42.6306 40.3792 42.5893 40.7714 42.1765C41.2874 41.6193 41.308 40.7524 40.792 40.1332C40.4205 39.6791 40.2141 39.6378 38.2533 39.5759C36.3338 39.514 36.0655 39.5346 35.5495 39.9474Z" fill="#F1F1F1"/>
<path d="M43.9706 40.0506C43.3307 40.6698 43.2894 41.6399 43.8674 42.2178C44.2389 42.5893 44.5485 42.6306 46.5505 42.6306C48.5526 42.6306 48.8622 42.5893 49.2337 42.2178C49.8529 41.5986 49.791 40.5047 49.1099 39.9681C48.6352 39.5966 48.2637 39.5346 46.5093 39.5346C44.6104 39.5346 44.4246 39.5759 43.9706 40.0506Z" fill="#F1F1F1"/>
<path d="M52.7425 39.8035C52.4535 39.9479 52.1646 40.3401 52.0407 40.7323C51.8963 41.2895 51.9169 41.5166 52.2678 41.9707C52.6806 42.5073 52.7425 42.5279 55.0129 42.5899C57.469 42.6518 57.7786 42.5486 58.1295 41.6611C58.3772 41.0212 57.985 40.0511 57.3658 39.7622C56.6641 39.4526 53.3823 39.4732 52.7425 39.8035Z" fill="#F1F1F1"/>
<path d="M67.5 46.4277C64.4453 47.0057 61.8446 48.4092 59.5536 50.6796C56.7053 53.5279 55.4256 56.4794 55.2605 60.7106C55.178 62.7745 55.2399 63.4969 55.6114 64.9417C56.953 70.3494 61.1429 74.5806 66.5712 76.0047C68.5733 76.5414 72.1852 76.4794 74.3111 75.8809C78.6455 74.6631 81.9273 71.8767 83.9293 67.7075C84.9201 65.6641 85.3535 63.7446 85.3535 61.3091C85.3535 57.8622 84.3009 54.7869 82.1543 51.9592C78.9345 47.6868 72.8664 45.3957 67.5 46.4277ZM72.66 49.5444C78.1295 50.7002 82.2369 55.7157 82.2575 61.2472C82.2575 63.208 81.9273 64.5496 80.9778 66.5516C79.079 70.5351 74.6207 73.3834 70.2864 73.3834C65.0438 73.3834 59.9458 69.3793 58.6248 64.1987C58.4597 63.5382 58.3152 62.2173 58.3152 61.3091C58.3152 57.9861 59.4091 55.3855 61.824 52.9293C64.7962 49.9159 68.6558 48.6981 72.66 49.5444Z" fill="#07BCFF"/>
<path d="M93.2997 73.2808L92.7837 73.7761V84.7359V95.6957L93.2997 96.191C93.795 96.6864 93.8776 96.707 97.0768 96.707C100.09 96.707 100.42 96.6658 100.916 96.2736L101.452 95.8608V84.7359V73.611L100.916 73.1982C100.42 72.806 100.09 72.7648 97.0768 72.7648C93.8776 72.7648 93.795 72.7854 93.2997 73.2808ZM98.3565 84.7359V93.611H97.1181H95.8797V84.7359V75.8607H97.1181H98.3565V84.7359Z" fill="#07BCFF"/>
<path d="M83.599 80.9175L83.083 81.4129V88.6368V95.8608L83.6196 96.2736C84.115 96.6658 84.4452 96.707 87.4587 96.707C90.6578 96.707 90.7404 96.6864 91.2358 96.191L91.7518 95.6957V88.5543V81.4129L91.2358 80.9175C90.7404 80.4222 90.6785 80.4015 87.4174 80.4015C84.1563 80.4015 84.0944 80.4222 83.599 80.9175ZM88.6558 88.5543V93.611H87.4174H86.179V88.5543V83.4975H87.4174H88.6558V88.5543Z" fill="#07BCFF"/>
<path d="M74.4762 86.9444C73.4855 87.1301 73.3823 87.6255 73.3823 91.8773V95.8608L73.919 96.2736C74.4143 96.6658 74.7446 96.707 77.758 96.707C80.9572 96.707 81.0397 96.6864 81.5351 96.191C82.0511 95.6957 82.0511 95.6544 82.0511 91.8567C82.0511 89.7307 81.9685 87.8319 81.8447 87.6255C81.7415 87.4191 81.3493 87.1508 80.9984 87.0269C80.3792 86.8205 75.4876 86.7586 74.4762 86.9444ZM78.9551 91.7535V93.611H77.7167H76.4783V91.7535V89.8959H77.7167H78.9551V91.7535Z" fill="#07BCFF"/>
<path d="M36.912 98.2756C36.4992 98.6884 36.4166 98.9155 36.5198 99.4521C36.7468 100.608 37.2422 100.835 39.6364 100.835C42.0307 100.835 42.526 100.608 42.7531 99.4521C42.8563 98.9155 42.7737 98.6884 42.3609 98.2756C41.8449 97.7596 41.7004 97.739 39.6364 97.739C37.5724 97.739 37.428 97.7596 36.912 98.2756Z" fill="#F1F1F1"/>
<path d="M45.5185 98.1518C45.1057 98.5646 44.9612 99.6791 45.2708 100.133C45.6011 100.649 46.4267 100.835 48.3049 100.835C50.1418 100.835 50.3276 100.794 50.7817 100.319C51.4422 99.6791 51.4628 98.7916 50.823 98.1931C50.3895 97.7803 50.1212 97.739 48.1398 97.739C46.1996 97.739 45.89 97.7803 45.5185 98.1518Z" fill="#F1F1F1"/>
<path d="M54.0223 98.2137C53.3825 98.8948 53.4237 99.8649 54.1049 100.402C54.5796 100.773 54.9511 100.835 56.6642 100.835C58.3773 100.835 58.7488 100.773 59.2236 100.402C59.9047 99.8649 59.9666 98.771 59.3474 98.1518C58.9759 97.7803 58.6663 97.739 56.7055 97.739C54.6415 97.739 54.4351 97.7803 54.0223 98.2137Z" fill="#F1F1F1"/>
<path d="M62.464 98.2756C61.8861 98.998 61.9274 99.6998 62.5466 100.319C63.0007 100.794 63.1864 100.835 65.1885 100.835C67.7685 100.835 68.3051 100.567 68.3051 99.287C68.3051 97.9867 67.7891 97.739 65.1266 97.739C62.9594 97.739 62.8768 97.7596 62.464 98.2756Z" fill="#F1F1F1"/>
<path d="M71.4626 97.9664C70.5132 98.5236 70.7196 100.484 71.7722 100.732C72.0405 100.794 79.2439 100.815 87.7888 100.794C102.918 100.732 103.351 100.711 103.64 100.34C103.805 100.113 103.929 99.5763 103.929 99.1635C103.929 97.6568 104.879 97.7393 87.4172 97.7393C76.9115 97.76 71.7103 97.8219 71.4626 97.9664Z" fill="#F1F1F1"/>
<path d="M85.4776 16.0254C84.9409 16.4382 84.7758 17.2018 85.0648 17.9449C85.2299 18.3783 88.6767 20.3391 89.2547 20.3391C90.2247 20.3391 90.9884 18.9975 90.5963 17.9862C90.4311 17.5734 86.9843 15.5919 86.4476 15.5919C86.2206 15.5919 85.7872 15.7777 85.4776 16.0254Z" fill="#07BCFF"/>
<path d="M129.214 16.1288C127.294 17.1608 126.613 17.6768 126.407 18.2135C126.118 18.9771 126.51 19.8234 127.294 20.1536C127.831 20.3807 128.037 20.3394 128.842 19.9472C129.358 19.6995 130.287 19.1835 130.886 18.7914C131.918 18.1309 132 18.0071 132 17.2847C132 15.6748 130.906 15.2207 129.214 16.1288Z" fill="#07BCFF"/>
</g>
</svg>
